/* XPM */
static char *result[] = {
/* columns rows colors chars-per-pixel */
"75 75 93 2 ",
"   c #1D1B19",
".  c #201E1C",
"X  c #23211E",
"o  c #262523",
"O  c #292624",
"+  c #2C2926",
"@  c #2E2C29",
"#  c #312E2B",
"$  c #34312E",
"%  c #353331",
"&  c #393632",
"*  c #3D3935",
"=  c #3D3B39",
"-  c #403C37",
";  c #433E39",
":  c #46413C",
">  c #49443E",
",  c #4B4641",
"<  c #4E4943",
"1  c #4F4D4A",
"2  c #524C46",
"3  c #554F48",
"4  c #56504A",
"5  c #5A544D",
"6  c #555452",
"7  c #5D5750",
"8  c #5F5851",
"9  c #635C55",
"0  c #665F58",
"q  c #676059",
"w  c #69625B",
"e  c #6D6760",
"r  c #867C72",
"t  c #887E73",
"y  c #8A8075",
"u  c #8D8479",
"i  c #91877C",
"p  c #94897E",
"a  c #958D83",
"s  c #998E83",
"d  c #9C9286",
"f  c #96928B",
"g  c #9D948A",
"h  c #9D9890",
"j  c #A09487",
"k  c #A2968A",
"l  c #A59A8D",
"z  c #A89C8F",
"x  c #A49C92",
"c  c #AA9E91",
"v  c #ADA194",
"b  c #A5A19B",
"n  c #ACA49A",
"m  c #B1A496",
"M  c #B3A699",
"N  c #B5A99C",
"B  c #B9AC9E",
"V  c #B4ACA3",
"C  c #BBAEA1",
"Z  c #BDB1A4",
"A  c #B7B1A9",
"S  c #BCB5AB",
"D  c #BFB9B0",
"F  c #C1B4A6",
"G  c #C3B6A9",
"H  c #C5BAAC",
"J  c #CABCAE",
"K  c #C6BDB1",
"L  c #CABEB1",
"P  c #C7C0B5",
"I  c #CDC2B4",
"U  c #C6C2BB",
"Y  c #CEC5BA",
"T  c #D1C4B5",
"R  c #D1C6B9",
"E  c #D4CABC",
"W  c #DACDBD",
"Q  c #E0D0BF",
"!  c #D6CDC1",
"~  c #D9CFC1",
"^  c #DCD2C4",
"/  c #DED6CA",
"(  c #E1D5C6",
")  c #E1D7C9",
"_  c #E3DACC",
"`  c #E9DDCF",
"'  c #E6DED0",
"]  c #E8DFD1",
"[  c #EFE0CF",
"{  c #EBE2D4",
"}  c #EDE6D9",
"|  c #F1E9DB",
" . c #F4EEE0",
/* pixels */
"h A l N v d l V V n x n n x l s s l , ; 2 , < < < < < 2 2 > < 2 < 2 5 5 2 # a l d a l g x n n s g V N b N m d N : 2 4 < 8 5 > 8 9 9 > 8 > > 9 5 > 5 > ",
"v R B Z F z Z T G m B N m G Z z B C : < 8 2 2 2 3 2 5 3 2 3 2 5 3 2 9 5 2 # c c M N B Z J H Z Z B N G N J B z J : < 4 4 5 8 8 9 9 w 8 > > 9 > 8 5 > 5 ",
"g B c B M z k F G k v v T K N x N G < 2 0 4 2 < 3 2 3 2 3 5 5 3 5 5 2 2 2 @ d F c N N N N H B N C m v k B N B m - > 4 2 2 9 q 9 8 8 q 8 8 5 > > > 8 8 ",
"n C F G B F F l N l J m J L _ L n N < > 3 5 5 2 9 9 9 4 2 5 5 2 2 2 9 9 5 @ V ) R C n B Y I P C N B M v B M B c * 3 2 2 5 8 w w q 9 > > 5 5 > 5 8 > 5 ",
"S G m m c G B m B v T N H J G R E H : ; 7 < 4 9 w w w 9 5 7 3 2 < < 2 9 9 # S ~ I Y ! W L R H m m M z H m v l m & > 2 5 7 2 5 q q 8 > 8 > 8 5 > > 5 8 ",
"g N M l G M z m Z z Z B B C n ^ Z E 4 : 4 2 7 q 9 9 9 9 9 2 5 7 5 5 7 0 5 + Z ^ W I I ^ Y W ~ v z F F l v M B l $ 2 4 5 8 5 5 7 5 8 8 > 8 > > 8 8 > > ",
"k B v v m M d J L C C Z Z N N F Z ( 9 2 9 5 8 9 2 5 9 9 3 2 4 5 q 0 q q 9 + K ! L I R ! E _ _ m M N B l z N F v & 4 2 2 9 7 9 8 8 8 9 > > 8 8 > 8 > 8 ",
"l R n H N m M I H J J B N B B N I / e 5 e 5 5 5 5 0 9 3 3 3 3 3 0 0 q 0 0 % H ^ I R R I G E E n M J z M B B F m $ 2 2 2 4 5 4 5 w 8 > > > 8 8 9 5 > 5 ",
"m Z k l N m v m v B k c M M m G ^ R 5 2 q 0 7 9 9 5 5 4 3 5 5 9 3 6 9 9 0 $ v I ~ H R S G W Y v z B B B m M v B & 4 4 > 3 3 > 4 8 8 8 5 8 > 8 > > 5 > ",
"l B m l M z B m c l B M M G B R R Y 2 2 9 q 5 7 9 5 5 4 2 4 5 9 7 2 2 2 7 & a M ^ G C J S E R H c m v k z m M z & > 3 4 3 3 4 5 > 9 > > 8 5 > > 5 5 5 ",
"n C N M m m F B m l L G v c k R ! } 4 4 w 7 w q 3 5 9 9 3 5 9 9 7 9 5 7 7 @ x ~ R L _ R G E I W T W F z F C B z $ > 4 5 5 4 7 4 5 > > 5 > > 8 8 5 > 5 ",
"g G T B z z v m m N H I G L z I R R 4 4 q q q 7 7 9 9 w w 9 9 w 0 0 9 9 9 % n I I E Y H ' E I E W _ J B C m j c # 3 3 4 5 5 4 3 > 8 > 5 5 > 9 8 > 4 > ",
"n M J N Z m c N C M C G I Y J N J / 7 4 w 9 9 5 7 9 9 w 9 w w 9 3 9 9 0 9 @ n M I K B L R R I L I | ) B M m M F - > > 5 5 4 5 4 > 5 > > 5 7 9 > 5 > 5 ",
"V N Z N I B l c B m l m M l c j B I 6 2 w q q 5 2 2 5 9 q q 7 5 5 9 9 0 5 O C N z k c ~ I R ~ Y R W I G B T z c - > 4 4 4 5 5 5 5 5 > 5 5 > 5 5 7 5 > ",
"v N v m Z J C z N M m G I v c v z c < : 9 8 9 5 4 2 2 9 0 q 4 3 9 9 9 0 7 + Z G c c c c J ^ L / I Y I H m J m c ; > 4 4 > 4 4 5 8 > 5 > > > > 8 8 > 5 ",
"N J N M I I F M G G A ^ J N M v l v < > 9 4 9 8 4 5 9 9 9 0 3 5 9 7 5 9 7 + M H M N B m m W H Z T ^ J G z M F J $ 5 5 > 4 4 4 7 8 > 7 5 > 7 7 > 5 8 5 ",
"x M N Z W A G B Z m I H M v m M z m , 5 q 7 q q 7 8 0 8 0 0 9 5 3 4 q q 5 @ k m j m v B m B v M L R E I c z m G - 2 2 4 5 5 4 4 3 4 4 5 4 > 4 5 3 4 > ",
"x Z Z ^ ^ I [ B J W R B N B H l B T < : 5 w w 9 0 8 q 0 q 0 w 9 9 8 8 8 3 # v B Z c B I F I M F n J F B R G m B ; 3 2 2 2 5 4 2 3 5 > 7 5 > > 5 > 4 5 ",
", : 5 4 > 2 < ; > 2 : - - ; - - ; 2 . O # @ $ $ # + @ % % % % % $ $ @ @ + X > > > > > 4 > 3 : : & > & > 5 ; - > X @ @ @ + @ @ O + + + + # + + # # @ + ",
": , 2 < < 3 > 2 3 3 > : > : > 2 > 5 $ g K K P S V N H N D A U V n b A Y S 1 : > 7 > : > > > > > 2 > > < : : < ; # v g d g l v k l z m B c l d x V N N ",
"9 w 7 3 7 9 q 9 w 9 8 4 2 2 3 9 0 e @ D | ! R T B N B R ^ Z Z J G Z H I Q > 5 q w 4 > 8 5 5 3 5 5 5 5 2 2 5 7 2 $ N m B v m J B m Z M c I F z M x z B ",
"9 w 5 3 3 5 9 7 9 w w 9 4 2 2 9 w 0 + V / Y I ^ N k z N G T T H C C c l C - 5 8 7 4 4 5 8 5 4 8 5 2 5 3 2 2 5 > $ v l z x G Z m M C B z C P l v m c z ",
"5 5 3 2 2 2 2 2 9 w 9 7 4 3 9 8 8 9 @ x R Y H R N l c M N M T G c N C N c : 5 5 > 3 > 4 5 4 5 > 2 5 4 2 3 2 2 > # C z z m m N C B z B M z I P P H Z G ",
"> 2 < 2 5 2 2 3 3 4 2 2 5 9 9 w 7 5 @ d M R l N B m c Z T d k M C G E H Z : 5 5 5 3 > 5 8 > 5 4 2 5 5 5 2 2 5 2 $ M z v c I B B C m z z z I E E E E P ",
"2 2 < 4 2 2 3 3 2 5 3 5 5 5 w 9 7 5 O n Q ) H m c F B j M v j m T H J B G * 2 7 5 2 > > 3 3 > 5 2 3 5 < < 2 1 < $ N B B B G J B c z B l m { W ' [ W m ",
"< 3 2 2 5 3 5 9 3 5 5 2 2 8 w 9 5 3 O x Q B N j z G T z N B M v P E P M C > > 3 > 3 5 5 3 3 5 5 3 3 2 < 3 1 < , % M H Y N z m M C I C P N T E ( ( Q m ",
"2 4 2 2 5 2 2 2 4 2 2 2 2 2 w 8 5 4 @ a N M m B l J R G z z z G I G Z F C > 2 5 3 3 3 3 3 3 5 5 4 2 < 2 5 5 7 < % N K R k m Z M G { P G E Z G B P P F ",
"4 9 2 2 2 2 2 4 2 5 4 2 2 2 5 3 5 4 + a m N Z J z M W J M F m T W P Z Q F - > 7 5 2 > > > 3 3 > 3 2 < 3 7 8 q 4 % S N L Z G J I D W Q W ) R P Z B P B ",
"< 2 3 2 5 5 3 5 5 5 5 4 2 2 4 2 2 4 + d Z H z B B m C M z B m T ) { Q C C & > 8 8 3 3 3 3 2 2 3 2 < 2 8 8 9 9 7 = S B W W Z I ` R E I T Q T C J v z F ",
"> 2 2 2 2 5 5 3 3 5 5 5 4 2 2 4 2 4 + b M B N N z z c M H z C F m I I J B - > 8 9 5 2 4 q 8 4 2 < 2 5 q 8 9 q 8 = D m I B I A G W [ P C B N c p F C F ",
"2 2 2 2 5 5 2 2 2 5 5 5 2 3 3 2 2 4 O v B B B G B F m m F m l m k c F | Z & > 7 8 3 2 8 w 7 4 5 7 3 q q 8 w w 8 & / { I F G ) W T T T F v c p N T J B ",
"2 5 2 2 3 2 2 2 2 2 4 2 2 > 2 4 2 2 O x G m G T J C C M c J H c M N j N M & > 3 3 9 5 7 8 3 > 3 5 7 5 8 8 8 w 9 % ! _ Z H H I E W E Z J B N c G F F T ",
"> 7 8 > > 4 > 3 5 9 7 > > 5 > 4 5 5 O m W m T W G B B F T I B z v v v c M : : 3 4 9 8 4 4 4 2 > 5 9 q 9 5 9 w 5 % Z Y I P I I Z T E T F z l m I T v m ",
"5 7 4 4 4 > 3 3 > > 5 5 4 > 7 7 5 7 + v F p N B v F M ( T T m v c M c N Q : : 5 9 4 4 8 < < < 2 9 9 9 q 5 9 9 5 % Y Y W I I W R I [ W I m l Z Z F m m ",
"4 4 3 > 3 > > 3 5 > > > 5 5 3 > 4 5 + c N c F m m z z z I F B F p I z l C * > 5 q 5 2 9 9 5 4 7 w 9 4 9 0 9 8 5 * U P Y I C B W W W N I m c l P J p F ",
"7 > > 3 4 4 3 3 5 7 4 5 8 7 7 7 4 7 O m G B F J m B m m F B T T M B z z z - > 5 8 0 9 q w w 0 9 w 9 9 q q q w 8 & E Q W W Y G G I z z N c z c Z m G F ",
"> > > > > > : > > > > > > > > > > > O m F N T m z Z Z z m B F G I N d z m : : > > 2 4 3 5 5 8 8 8 5 4 4 5 5 5 4 % E P H Y W P C I F z M p v m z p T T ",
"& - & * % * & % : * - - & & - * * * o * : : : # & & $ $ # # - $ $ & $ $ $ X & * * ; = ; = = = = ; = = = = ; = ; @ : - * = : - % $ $ $ & & & & $ # & : ",
"l S m m v z v m Z P B m v M c v C B > > 9 > > 8 9 > > > 5 8 5 8 4 5 3 2 1 @ v N B A D I E P Y / P E W W U Y E Y < 7 9 7 q q 0 4 > 8 8 8 > > 5 5 8 8 > ",
"V Z _ Z N v v B M m z z z z v l P R > : 8 > 8 8 > 8 > 9 > 5 > > 2 3 4 2 2 # v c l m B S W _ W { Y R { P S W W P = 8 3 3 8 0 q 0 8 0 w w 0 w 9 8 8 q e ",
"P W { P P B m B M N z M N Z M F M C > : > 5 4 > > 5 5 8 5 > > 5 < < 3 3 8 # A Z Z I Y P R P R P E I Y I F R I P - 4 3 > 3 8 5 8 q q q 0 8 8 8 8 q 9 q ",
"S G P Z j m G W N v Z T T B C v B N : > 4 > 4 4 > 5 > > > 4 4 > 3 4 3 5 4 # P W Q Z P W Q P E Q I P E W P C P { = 7 q 5 8 7 7 5 9 q q 7 9 9 9 9 q 9 9 ",
"A Y S x c C Z P G C F Z Z z z B G I > : 4 4 5 > 8 q 9 8 4 > 5 5 3 7 3 5 3 # N ) G F E I E I E } R ( R R W Z E Y = 8 q q 8 9 w 9 7 9 q q 8 q q q q 9 5 ",
"n ' Z W I F C G I C I I m v z M l Z 4 - 5 > > 4 > > 5 > 4 > > 5 4 3 5 8 q + P P W I P I T T P I ^ I G ^ | W E M $ 7 0 9 5 9 q 4 > 7 5 q 7 5 9 9 9 q 8 ",
"g S W R I I R N M Q Q T J c M B m J > : 4 5 > 8 > 5 8 8 8 8 5 8 5 2 4 5 9 @ v H T G Q Y R I W W I I R E ^ K n M * 8 5 7 4 8 q 7 > 8 > 9 8 8 q w 8 8 q ",
"x Z { Q T ( N m c I M N I m z m p I > > 4 > 4 8 5 5 5 > > > > > 4 3 5 5 5 # l C W / Q W P P P T E P E [ Q M c B - 0 8 8 8 q 8 3 9 > 5 > 5 8 9 8 q w 9 ",
"V I I S G W v g p B F p p m c B m F 8 > 5 4 5 7 > 5 > > 5 5 > 5 3 5 q 5 7 # N W P P T I I C I T ^ E H I W C l B : 9 w q w 0 3 4 8 > > > 9 q q 8 q q 5 ",
"A W I _ P [ P z B T F v m F C v v I 8 > > > > 4 5 > 5 5 5 > 5 > 2 3 5 5 7 $ A G F W P v Z I T C E E C C S C M M * 8 9 q 0 5 > 8 5 5 8 > q 9 9 q w q > ",
"n Y P _ I T W P M p z v m M m M z F > > 8 > > 8 5 > 8 8 8 > > > 7 4 4 3 > # S P B P I I Z ) T Z E ^ Z m z m R Y - > 4 8 > 4 5 > 8 > 8 7 8 8 9 q w w 9 ",
"z Q R R I I W G m v v v m c p N B F > > 8 9 8 > > 8 > 5 8 8 q 5 3 5 7 > 4 # Z H P m Q I R W I T H I B z W E R I - > 4 4 8 8 4 4 > 8 5 > 5 9 8 q w w 8 ",
"A Q E E P I G c F p M Z m N m m N T 5 > > 5 > 5 8 > 8 > 8 > 9 > 4 4 4 3 8 % V C P m z m I R B I F M m I Q I Z v $ 5 5 > > 5 > 4 > 8 8 5 5 5 7 9 q 9 q ",
"A W P Y T P B l m m C M N F M F Q I > > 9 > 5 > > 8 > 8 8 > 8 5 4 5 5 > 4 % M B E B m M I P N C B I F P T F v B * > > 5 > 5 > 5 5 > 8 7 > 5 9 w w q q ",
"S / H E { E P z m m m C p m F J Z I > > 9 > 5 7 > 8 > 9 8 5 8 5 5 8 4 > 4 % D P W R I T J M T z v E G F P G m B : > 4 > 5 > 4 4 > > 8 5 5 8 8 q q q w ",
"A I H Y { / E B p m C F N m W F N T > > 8 > 7 > > > > 8 8 > 5 8 > 4 > 5 > O N Z E ( R P v v T F Z _ G I N C Z c $ 5 > 5 q 8 4 4 > 5 9 8 9 q 9 9 q q w ",
"D } ( _ E W W P F m F T C M C m m G > > 9 7 4 5 0 > 0 8 9 > 9 > > 5 7 8 4 # E E E Q I P F J J T I F C E G p C C : 9 8 8 5 9 q 8 q e e e e q q e w e e ",
"b n H C S A A A p u i m p M p p l m > & : & : - : : > : : : : : ; : ; - $ o A p C p p i i m v N m l m j p c v l # > - : & - : > > > > > > > : : > > > ",
"- & & & & - - & $ # + + $ $ # & # #   : < , > > 2 3 5 > > > > > > 3 > > 4 # # + $ # # # # # $ # + - $ + # & # $ . > > > > > 1 6 > 3 6 6 6 6 6 1 1 6 6 ",
"q w w w w w 9 w 9 8 8 5 4 4 8 8 3 5 + D P P T F P I T F E T F Z N C B z E 7 > 9 8 8 > 8 8 w w > q w 8 8 5 > 5 > * B v N N ( G G M B E _  ./ W ( E W Q ",
"> 9 9 8 9 9 q q 9 8 8 8 > > 4 4 3 3 o P E M N F m B B m N F F c m m m m m - 4 9 9 9 9 9 q 8 8 8 5 > > 5 > > > > $ c c m M l v p m m B B N N z Z E K v ",
"5 q 4 q 9 q q w 9 q 8 > 5 5 5 5 < 4 O C G C m N M Z J m F F F m m z N P R : > e 9 9 q 9 8 8 > 8 5 > > 5 > 8 5 > $ N v v v v N c J Z m Z C v l v C W G ",
"9 q 9 q 9 q q q w w q 5 > 8 5 4 5 5 O x F m M Z F I P m B N C v m P J p B : : 5 9 q q 8 5 > > 5 > > 5 5 > 5 8 5 $ N c c C c B F F z z B G Z N I S P _ ",
"8 w q 9 q 9 q 9 8 w 9 > 5 > > 5 5 5 O m F M B B Z m J c B p C C p J B m Z & > 5 9 8 9 9 > 5 8 9 8 > 5 > > 5 > > & N c m Z c c F N F z z m m P G Z Z _ ",
"5 q q 9 q q q q > 9 9 > 4 > 4 5 5 8 # z B B F B M m m B v v m F c v c z Z - > 8 > 9 q 5 > 8 5 > 8 > 8 > > 5 > > $ H m Z c N B m F H l B M m m v G W G ",
"> 8 w 9 9 q q 9 4 > > 5 > 4 > 4 4 5 # p M m m F F m C C v v N c m c C l I > > 8 > 8 > 9 > 5 > 5 > 8 8 > > 5 8 > & G Z B N I P N p m z F Z Z C C P E B ",
"5 q q 9 > 5 5 8 2 > 4 2 > 3 4 4 3 5 O p I J c v F v p m m p F B J p F J m - > 8 4 8 4 5 4 > 4 > 5 5 > 4 5 5 4 > % B m N m M Q m k z v F W Q A H P E I ",
"q w 8 8 5 8 8 > 4 2 2 2 2 2 2 4 5 5 $ p F Q N B C z N J J F C B p B B B m : > 8 8 8 4 8 8 > > 5 > 4 4 5 5 5 8 5 % c M m I m E C v N B c W Q E { I ) ) ",
"5 9 4 8 8 q 5 > 4 2 3 > 4 4 2 2 5 8 $ p F N m v N m N J J m B m p B F J J : > > 5 8 9 9 4 5 4 > 5 > 5 5 > 4 5 > $ M v N H P P P m m m S P P H Y W W I ",
"> 4 > > 5 9 > 4 > 4 3 2 4 2 2 > > 5 # B T m m z p J F C z B C N F p B B M : > 4 5 8 w w q 9 5 5 5 4 > 5 5 5 4 > % I B m M m m c l l z Z l Z C M N P m ",
"> 4 4 > 5 4 > 5 > 8 5 2 > 3 4 4 > 8 O C I N B v c m N C c m C N B J B p p > > 8 8 8 9 9 q 8 8 > 5 8 > 3 5 5 4 > % Z C v Z P T J M z m c C C C C m N Z ",
"3 5 2 2 > 4 4 4 8 4 5 8 8 5 8 > > 5 # v M N C N C m m B F B B p M F B B J > > q 5 9 5 8 w 9 9 9 3 > 5 2 > 8 5 > $ N F B Z Q F m z l z p m m C P z l B ",
"3 4 > 3 > 2 5 2 8 2 4 w 9 > 5 4 5 5 + p v v F B m m p m T G c p m C C C F : > > 5 w 9 q q 8 8 9 8 3 3 3 > 4 8 4 & C F B N I N C C F m c v G T E N m c ",
"> 5 5 5 5 4 > 4 > 2 4 5 9 2 > 3 > 8 O p C F N v N C N J m p N N m p m p m : > 5 4 5 9 q 4 > 8 9 8 > > 3 5 5 4 > $ N c Z p z J C M m W T P G B M C N l ",
"> 5 8 3 > 4 4 > 4 > > 4 > 5 5 4 9 > + m F C T m B N N T p m m p p m v v B : > > > 5 8 8 > > 8 8 5 > 5 5 8 > 4 > - p F B m Q G J E C F C Z E Q m M m z ",
"3 8 8 4 3 5 8 5 5 4 2 5 4 4 5 3 8 5 + p F p F F N B J C m F F F N m F N T : > 8 5 8 > > 8 > 8 9 8 3 3 5 3 3 4 > $ B F J M T F T Q I F P ( E I N m m C ",
": > > : > > > > > > > > > : - - > > X u y u p p i i p u p p i p p u p p u # : > > : : > : : > > : : : : ; - : - $ m p p p y u p c h j z G h i h y p j "
};
