/* XPM */
static char *result[] = {
/* columns rows colors chars-per-pixel */
"37 37 195 2 ",
"   c #09210B",
".  c #0A230B",
"X  c #0A260C",
"o  c #0B280D",
"O  c #0A2B0D",
"+  c #0B2A0E",
"@  c #0C2B0E",
"#  c #0D2C0F",
"$  c #0E2C0F",
"%  c #0D2E0F",
"&  c #0D3010",
"*  c #0D3110",
"=  c #0E3210",
"-  c #0E3211",
";  c #0E3311",
":  c #0E3411",
">  c #0E3511",
",  c #0F3511",
"<  c #0D3711",
"1  c #0E3711",
"2  c #0F3512",
"3  c #0F3612",
"4  c #0F3712",
"5  c #0F3813",
"6  c #0D3C13",
"7  c #0F3B14",
"8  c #103813",
"9  c #103A13",
"0  c #113B14",
"q  c #123B14",
"w  c #103C14",
"e  c #113D14",
"r  c #113F15",
"t  c #123F16",
"y  c #0F4014",
"u  c #114015",
"i  c #114016",
"p  c #114116",
"a  c #124016",
"s  c #134017",
"d  c #124216",
"f  c #124317",
"g  c #134317",
"h  c #144017",
"j  c #124417",
"k  c #124517",
"l  c #114617",
"z  c #144318",
"x  c #134518",
"c  c #134618",
"v  c #124718",
"b  c #124719",
"n  c #154518",
"m  c #174519",
"M  c #17471A",
"N  c #104818",
"B  c #124919",
"V  c #124A19",
"C  c #134A1A",
"Z  c #154A1A",
"A  c #154B1A",
"S  c #164A1B",
"D  c #134F1B",
"F  c #144D1B",
"G  c #144E1B",
"H  c #154E1B",
"J  c #154F1C",
"K  c #19481B",
"L  c #19491B",
"P  c #184A1B",
"I  c #194A1B",
"U  c #17531E",
"Y  c #15561E",
"T  c #17561E",
"R  c #19531E",
"E  c #14581E",
"W  c #15591F",
"Q  c #16591F",
"!  c #1D5320",
"~  c #1C5B22",
"^  c #1B5C21",
"/  c #195D22",
"(  c #1A5F23",
")  c #1C5D23",
"_  c #1D5E23",
"`  c #1B5F24",
"'  c #186022",
"]  c #196222",
"[  c #1A6223",
"{  c #196423",
"}  c #1D6024",
"|  c #1D6124",
" . c #1E6124",
".. c #1C6224",
"X. c #1D6224",
"o. c #1F6325",
"O. c #1F6126",
"+. c #1F6326",
"@. c #1A6424",
"#. c #1B6424",
"$. c #1C6625",
"%. c #1E6526",
"&. c #1F6927",
"*. c #1D6B27",
"=. c #1F6B28",
"-. c #1F6F28",
";. c #216326",
":. c #236226",
">. c #216426",
",. c #206427",
"<. c #216527",
"1. c #226527",
"2. c #276729",
"3. c #226828",
"4. c #276829",
"5. c #24692A",
"6. c #276C2B",
"7. c #266E2B",
"8. c #276B2C",
"9. c #256F2D",
"0. c #23702B",
"q. c #22712B",
"w. c #24732C",
"e. c #25732E",
"r. c #23752C",
"t. c #24762C",
"y. c #25762D",
"u. c #28702C",
"i. c #29712D",
"p. c #29702F",
"a. c #29732E",
"s. c #25782D",
"d. c #26792E",
"f. c #277C2F",
"g. c #28782F",
"h. c #2C7130",
"j. c #297631",
"k. c #277E30",
"l. c #287830",
"z. c #2A7930",
"x. c #297A31",
"c. c #2D7931",
"v. c #297C30",
"b. c #297F31",
"n. c #2B7F32",
"m. c #307D33",
"M. c #317A35",
"N. c #317F37",
"B. c #2B8233",
"V. c #2D8134",
"C. c #2F8134",
"Z. c #2D8235",
"A. c #2F8234",
"S. c #2F8236",
"D. c #2C8534",
"F. c #2D8435",
"G. c #2E8735",
"H. c #2F8637",
"J. c #2F8836",
"K. c #2F8A37",
"L. c #308134",
"P. c #338537",
"I. c #308736",
"U. c #308438",
"Y. c #328739",
"T. c #348D3B",
"R. c #348E3A",
"E. c #36883C",
"W. c #34903B",
"Q. c #36913D",
"!. c #38913C",
"~. c #38913D",
"^. c #3A903C",
"/. c #38923C",
"(. c #38933E",
"). c #3D9A43",
"_. c #3C9C41",
"`. c #3C9D41",
"'. c #3F9D42",
"]. c #3E9F42",
"[. c #3F9C44",
"{. c #3F9C45",
"}. c #3F9D45",
"|. c #409B46",
" X c #429C47",
".X c #419E46",
"XX c #419F46",
"oX c #41A547",
"OX c #42A946",
"+X c #48A74C",
"@X c #44A949",
"#X c #46AA4C",
"$X c #47AE4C",
"%X c #50BC54",
"&X c None",
/* pixels */
"&X&X&X&X&X&X&X&X&X&X&X&X&X&X&X&X&X&X&X&X&X&X&X&X&X&X&X&X&X&X&X&X&X&X&X&X&X",
"&X&X&X&X&X&X&X&X&X&X&X&X&X&X&X&X&X&X&X&X&X&X&X&X&X&X&X&X&X&X&X&X&X&X&X&X&X",
"&X&X&X&X&X&X&X&X&X&X&X&X&X&X&X&X&X&X&X&X&X&X&X&X&X&X&X&X&X&X&X&X&X&X&X&X&X",
"&X&X&X&X&X&X&X&X&X&X&X&X&X&X&X&X&X&X&X&X&X&X&X&X&X&X&X&X&X&X&X&X&X&X&X&X&X",
"&X&X&X&X&X&X&X&X&X&X&X&X&X&X&X&X&X&X&X&X&X&X&X&X&X&X&X&X&X&X&X&X&X&X&X&X&X",
"&X&X&X&X&X&X&X&X&X&X&X&X&X&X&X&X&X&X&X&X&X&X&X&X&X&X&X&X&X&X&X&X&X&X&X&X&X",
"&X&X&X&X&X&X&X&X&X&X&X&X&X&X&X&X&X&X&X&X&X&X&X&X&X&X&X&X&X&X&X&X&X&X&X&X&X",
"&X&X&X&X&X&X&X&X&X&X&X&X&X&X&X&X&X&X&X&X&X&X&X&X&X&X&X&X&X&X&X&X&X&X&X&X&X",
"&X&X&X&X&X&X&X&X&X&X&X&X&X&X&X&X&X&X&X&X&X&Xz h &X&X&X&X&X&X&X&X&X&X&X&X&X",
"&X&X&X&X&X&X&X&X&X&X&X&X&X&X&X&X&X&X&X&X&X7 =.6.@ &X&X&X&X&X&X&X&X&X&X&X&X",
"&X&X&X&X&X&X&X&X&X&X&X&X&X&X&X&X&X&X&X: b $.k./.K &X&X&X&X&X&X&X&X&X&X&X&X",
"&X&X&X&X&X&X&X&X&X&X&X&X&X&X&X&X&X&X5 S ( t.R.OX2.&X&X&X&X&X&X&X&X&X&X&X&X",
"&X&X&X&X&X&X&X&X&X&X&X&X&X&X&X&X- 1 V 0._ y.XX@Xc.P &X&X&X&X&X&X&X&X&X&X&X",
"&X&X&X&X&X&X&X&X&X&X&X&X&X&X&X&X8 8.W d.u.[ w.r.g.! &X&X&X&X&X&X&X&X&X&X&X",
"&X&X&X&X&X&X&X&X&X&X&X&X&X&X&X& y E.Y.B.L.J |  .3.m &X&X&X&X&X&X&X&X&X&X&X",
"&X&X&X&X&X&X&X&X&X&X&X&X&X&X$ n O.j..Xf.a.&.J.].'.M &X&X&X&X&X&X&X&X&X&X&X",
"&X&X&X&X&X&X&X&X&X&X&X&X&X&Xq h.5.e.{.v.) H.}.$XP.s &X&X&X&X&X&X&X&X&X&X&X",
"&X&X&X&X&X&X&X&X&X&X&X&X&X# < M.9.S.s.z...T.).oX4.&X&X&X&X&X&X&X&X&X&X&X&X",
"&X&X&X&X&X&X&X&X&X&X&X&X&X2 6 p.U.x.D.i.U #.F.~.I &X&X&X&X&X&X&X&X&X&X&X&X",
"&X&X&X&X&X&X&X&X&X&X&X&X. 9 B ` |.-.C.o.A.>.E ^ 0 &X&X&X&X&X&X&X&X&X&X&X&X",
"&X&X&X&X&X&X&X&X&X&X&X&X% u F Q Z.I.;.q.#X_.m.t &X&X&X&X&X&X&X&X&X&X&X&X&X",
"&X&X&X&X&X&X&X&X&X&X&X  : r G Y ' <.%.Q.(.%X^.; &X&X&X&X&X&X&X&X&X&X&X&X&X",
"&X&X&X&X&X&X&X&X&X&X&X& F e f R u.1.] n.W.`.L &X&X&X&X&X&X&X&X&X&X&X&X&X&X",
"&X&X&X&X&X&X&X&X&X&X&X> T v ,.[.K.!.} *.G.:.O &X&X&X&X&X&X&X&X&X&X&X&X&X&X",
"&X&X&X&X&X&X&X&X&X&X&X* H k / +XV.b.7.@.~ 4 &X&X&X&X&X&X&X&X&X&X&X&X&X&X&X",
"&X&X&X&X&X&X&X&X&X&X&X+ A g D  Xl.{ X.Z w &X&X&X&X&X&X&X&X&X&X&X&X&X&X&X&X",
"&X&X&X&X&X&X&X&X&X&X&X&Xd a N N.+.l C p 3 &X&X&X&X&X&X&X&X&X&X&X&X&X&X&X&X",
"&X&X&X&X&X&X&X&X&X&X&X&X; w j c x i 2 &X&X&X&X&X&X&X&X&X&X&X&X&X&X&X&X&X&X",
"&X&X&X&X&X&X&X&X&X&X&X&Xo , 3 = X &X&X&X&X&X&X&X&X&X&X&X&X&X&X&X&X&X&X&X&X",
"&X&X&X&X&X&X&X&X&X&X&X&X&X&X&X&X&X&X&X&X&X&X&X&X&X&X&X&X&X&X&X&X&X&X&X&X&X",
"&X&X&X&X&X&X&X&X&X&X&X&X&X&X&X&X&X&X&X&X&X&X&X&X&X&X&X&X&X&X&X&X&X&X&X&X&X",
"&X&X&X&X&X&X&X&X&X&X&X&X&X&X&X&X&X&X&X&X&X&X&X&X&X&X&X&X&X&X&X&X&X&X&X&X&X",
"&X&X&X&X&X&X&X&X&X&X&X&X&X&X&X&X&X&X&X&X&X&X&X&X&X&X&X&X&X&X&X&X&X&X&X&X&X",
"&X&X&X&X&X&X&X&X&X&X&X&X&X&X&X&X&X&X&X&X&X&X&X&X&X&X&X&X&X&X&X&X&X&X&X&X&X",
"&X&X&X&X&X&X&X&X&X&X&X&X&X&X&X&X&X&X&X&X&X&X&X&X&X&X&X&X&X&X&X&X&X&X&X&X&X",
"&X&X&X&X&X&X&X&X&X&X&X&X&X&X&X&X&X&X&X&X&X&X&X&X&X&X&X&X&X&X&X&X&X&X&X&X&X",
"&X&X&X&X&X&X&X&X&X&X&X&X&X&X&X&X&X&X&X&X&X&X&X&X&X&X&X&X&X&X&X&X&X&X&X&X&X"
};
