/* XPM */
static char *result[] = {
/* columns rows colors chars-per-pixel */
"75 75 234 2 ",
"   c #36073B",
".  c #2D0732",
"X  c #2A0447",
"o  c #351549",
"O  c #2D0353",
"+  c #360754",
"@  c #34104E",
"#  c #521A59",
"$  c #452C4A",
"%  c #4B2654",
"&  c #542959",
"*  c #4D325A",
"=  c #57365D",
"-  c #49314F",
";  c #4C077D",
":  c #44106F",
">  c #572961",
",  c #5C3A66",
"<  c #573866",
"1  c #5F3671",
"2  c #5A2679",
"3  c #633768",
"4  c #673A77",
"5  c #53435B",
"6  c #5A4368",
"7  c #5C4672",
"8  c #614668",
"9  c #604573",
"0  c #685970",
"q  c #72627C",
"w  c #460D84",
"e  c #4B0C84",
"r  c #470A8A",
"t  c #520989",
"y  c #4B1584",
"u  c #591A8C",
"i  c #4D0996",
"p  c #58089C",
"a  c #56169D",
"s  c #64049A",
"d  c #63149E",
"f  c #5B2389",
"g  c #622B8E",
"h  c #662997",
"j  c #560BA4",
"k  c #5B0CA5",
"l  c #5E0DAA",
"z  c #5A05A5",
"x  c #5B12AB",
"c  c #5911A4",
"v  c #5B17B5",
"b  c #5F05B2",
"n  c #6307A8",
"m  c #7608AD",
"M  c #6513AC",
"N  c #6917AD",
"B  c #7317A9",
"V  c #650DB4",
"C  c #6808BA",
"Z  c #7508B6",
"A  c #6412B2",
"S  c #6A16B8",
"D  c #7416B3",
"F  c #7315BB",
"G  c #731ABB",
"H  c #781CB8",
"J  c #7331A7",
"K  c #6A24B6",
"L  c #7422BA",
"P  c #6F24A5",
"I  c #6E4184",
"U  c #746382",
"Y  c #6C06C5",
"T  c #7405CD",
"R  c #750BCC",
"E  c #7608C5",
"W  c #7414C4",
"Q  c #7512CB",
"!  c #7C1BCC",
"~  c #7A17C7",
"^  c #750BD0",
"/  c #7C0CD5",
"(  c #7906D5",
")  c #7E14D3",
"_  c #7A17D3",
"`  c #6F0ED1",
"'  c #7B20C9",
"]  c #7E27C4",
"[  c #772CC5",
"{  c #81398E",
"}  c #89359B",
"|  c #923C9F",
" . c #8516B7",
".. c #830ABF",
"X. c #8E3AA5",
"o. c #955C9C",
"O. c #914E99",
"+. c #9B4AA5",
"@. c #9B49A9",
"#. c #9C42BE",
"$. c #A14EA8",
"%. c #A25CAA",
"&. c #9B6FA2",
"*. c #AD65B2",
"=. c #AE6EB3",
"-. c #830BC5",
";. c #8618C9",
":. c #821AD4",
">. c #8516D4",
",. c #862BC9",
"<. c #8232C2",
"1. c #8527D7",
"2. c #993BD7",
"3. c #9B2FD0",
"4. c #A82ADC",
"5. c #A638D9",
"6. c #B43BCA",
"7. c #8E26E5",
"8. c #9638E1",
"9. c #902DE2",
"0. c #A938E2",
"q. c #B538E6",
"w. c #AA28E2",
"e. c #C73ADD",
"r. c #CC3BE5",
"t. c #CB3CEA",
"y. c #C636E6",
"u. c #D33CEC",
"i. c #D438EA",
"p. c #CE38F5",
"a. c #D336F2",
"s. c #D53BF4",
"d. c #DA3BF4",
"f. c #D435FB",
"g. c #DB35FC",
"h. c #D53DFC",
"j. c #DB3CFC",
"k. c #D936F1",
"l. c #E13BFD",
"z. c #E037F6",
"x. c #9546D1",
"c. c #A842D8",
"v. c #AD44E1",
"b. c #BC41EB",
"n. c #BC5DEF",
"m. c #B26ED5",
"M. c #C947D7",
"N. c #CB4FDC",
"B. c #CD65D9",
"V. c #D769DC",
"C. c #CA42E5",
"Z. c #C946E8",
"A. c #D244E4",
"S. c #D442EB",
"D. c #D54CEC",
"F. c #D946EC",
"G. c #CC52EB",
"H. c #DC55ED",
"J. c #DD5CEC",
"K. c #D457E9",
"L. c #CC4DF3",
"P. c #DC43FC",
"I. c #D747F6",
"U. c #DE5BF3",
"Y. c #D355F8",
"T. c #C952FC",
"R. c #E15DE9",
"E. c #E340FD",
"W. c #E34CFB",
"Q. c #E556F6",
"!. c #E55DF6",
"~. c #E353FD",
"^. c #EB56FE",
"/. c #E45DFD",
"(. c #EB5BFD",
"). c #EE5FF7",
"_. c #F25DFF",
"`. c #D966E5",
"'. c #C865F7",
"]. c #D767FC",
"[. c #E269EA",
"{. c #E57CEB",
"}. c #E97BED",
"|. c #E675E8",
" X c #E965F5",
".X c #EB6CF5",
"XX c #E562FD",
"oX c #EA62FD",
"OX c #E56BFC",
"+X c #EC6CFB",
"@X c #E669F4",
"#X c #F46AFE",
"$X c #F369FB",
"%X c #E775F4",
"&X c #EB75F4",
"*X c #ED7BF4",
"=X c #EE73FC",
"-X c #EC7AFD",
";X c #E479FA",
":X c #F374FD",
">X c #FC75FF",
",X c #F47BFE",
"<X c #FC7CFE",
"1X c #F477F4",
"2X c #AD80B9",
"3X c #CE87D8",
"4X c #DE9CE6",
"5X c #E789ED",
"6X c #E695EE",
"7X c #EA85F4",
"8X c #F48AF5",
"9X c #F483FC",
"0X c #FD83FE",
"qX c #F58BFD",
"wX c #FD8BFF",
"eX c #F383F4",
"rX c #EA9AF6",
"tX c #FE92FF",
"yX c #FD9BFE",
"uX c #F899FA",
"iX c #F18EEB",
"pX c #EDA6ED",
"aX c #F1A4EE",
"sX c #EEA0FD",
"dX c #F2A3F5",
"fX c #FFA2FF",
"gX c #FFABFF",
"hX c #F3A6F9",
"jX c #FFB4FF",
"kX c #F5B9FC",
"lX c #EBB5F1",
"zX c #FFD5FF",
"xX c #FFE0FF",
"cX c None",
/* pixels */
"cXcXcXcXcXcXcXcXcXcXcXcXcXcXcXcXcXcXcXcXcXcXcXcXcXcXcXcXcXcXcXcXcXcXcXcXcXcXcXcXcXcXcXcXcXcXcXcXcXcXcXcXcXcXcXcXcXcXcXcXcXcXcXcXcXcXcXcXcXcXcXcXcXcXcX",
"cXcXcXcXcXcXcXcXcXcXcXcXcXcXcXcXcXcXcXcXcXcXcXcXcXcXcXcXcXcXcXcXcXcXcXcXcXcXcXcXcXcXcXcXcXcXcXcXcXcXcXcXcXcXcXcXcXcXcXcXcXcXcXcXcXcXcXcXcXcXcXcXcXcXcX",
"cXcXcXcXcXcXcXcXcXcXcXcXcXcXcXcXcXcXcXcXcXcXcXcXcXcXcXcXcXcXcXcXcXcXcXcXcXcXcXcXcXcXcXcXcXcXcXcXcXcXcXcXcXcXcXcXcXcXcXcXcXcXcXcXcXcXcXcXcXcXcXcXcXcXcX",
"cXcXcXcXcXcXcXcXcXcXcXcXcXcXcXcXcXcXcXcXcXcXcXcXcXcXcXcXcXcXcXcXcXcXcXcXcXcXcXcXcXcXcXcXcXcXcXcXcXcXcXcXcXcXcXcXcXcXcXcXcXcXcXcXcXcXcXcXcXcXcXcXcXcXcX",
"cXcXcXcXcXcXcXcXcXcXcXcXcXcXcXcXcXcXcXcXcXcXcXcXcXcXcXcXcXcXcXcXcXcXcXcXcXcXcXcXcXcXcXcXcXcXcXcXcXcXcXcXcXcXcXcXcXcXcXcXcXcXcXcXcXcXcXcXcXcXcXcXcXcXcX",
"cXcXcXcXcXcXcXcXcXcXcXcXcXcXcXcXcXcXcXcXcXcXcXcXcXcXcXcXcXcXcXcXcXcXcXcXcXcXcXcXcXcXcXcXcXcXcXcXcXcXcXcXcXcXcXcXcXcXcXcXcXcXcXcXcXcXcXcXcXcXcXcXcXcXcX",
"cXcXcXcXcXcXcXcXcXcXcXcXcXcXcXcXcXcXcXcXcXcXcXcXcXcXcXcXcXcXcXcXcXcXcXcXcXcXcXcXcXcXcXcXcXcXcXcXcXcXcXcXcXcXcXcXcXcXcXcXcXcXcXcXcXcXcXcXcXcXcXcXcXcXcX",
"cXcXcXcXcXcXcXcXcXcXcXcXcXcXcXcXcXcXcXcXcXcXcXcXcXcXcXcXcXcXcXcXcXcXcXcXcXcXcXcXcXcXcXcXcXcXcXcXcXcXcXcXcXcXcXcXcXcXcXcXcXcXcXcXcXcXcXcXcXcXcXcXcXcXcX",
"cXcXcXcXcXcXcXcXcXcXcXcXcXcXcXcXcXcXcXcXcXcXcXcXcXcXcXcXcXcXcXcXcXcXcXcXcXcXcXcXcXcXcXcXcXcXcXcXcXcXcXcXcXcXcXcXcXcXcXcXcXcXcXcXcXcXcXcXcXcXcXcXcXcXcX",
"cXcXcXcXcXcXcXcXcXcXcXcXcXcXcXcXcXcXcXcXcXcXcXcXcXcXcXcXcXcXcXcXcXcXcXcXcXcXcXcXcXcXcXcXcXcXcXcXcXcXcXcXcXcXcXcXcXcXcXcXcXcXcXcXcXcXcXcXcXcXcXcXcXcXcX",
"cXcXcXcXcXcXcXcXcXcXcXcXcXcXcXcXcXcXcXcXcXcXcXcXcXcXcXcXcXcXcXcXcXcXcXcXcXcXcXcXcXcXcXcXcXcXcXcXcXcXcXcXcXcXcXcXcXcXcXcXcXcXcXcXcXcXcXcXcXcXcXcXcXcXcX",
"cXcXcXcXcXcXcXcXcXcXcXcXcXcXcXcXcXcXcXcXcXcXcXcXcXcXcXcXcXcXcXcXcXcXcXcXcXcXcXcXcXcXcXcXcXcXcXcXcXcXcXcXcXcXcXcXcXcXcXcXcXcXcXcXcXcXcXcXcXcXcXcXcXcXcX",
"cXcXcXcXcXcXcXcXcXcXcXcXcXcXcXcXcXcXcXcXcXcXcXcXcXcXcXcXcXcXcXcXcXcXcXcXcXcXcXcXcXcXcXcXcXcXcXcXcXcXcXcXcXcXcXcXcXcXcXcXcXcXcXcXcXcXcXcXcXcXcXcXcXcXcX",
"cXcXcXcXcXcXcXcXcXcXcXcXcXcXcXcXcXcXcXcXcXcXcXcXcXcXcXcXcXcXcXcXcXcXcXcXcXcXcXcXcXcXcXcXcXcXcXcXcXcXcXcXcXcXcXcXcXcXcXcXcXcXcXcXcXcXcXcXcXcXcXcXcXcXcX",
"cXcXcXcXcXcXcXcXcXcXcXcXcXcXcXcXcXcXcXcXcXcXcXcXcXcXcXcXcXcXcXcXcXcXcXcXcXcXcXcXcXcXcXcXcXcXcXcXcXcXcXcXcXcXcXcXcXcXcXcXcXcXcXcXcXcXcXcXcXcXcXcXcXcXcX",
"cXcXcXcXcXcXcXcXcXcXcXcXcXcXcXcXcXcXcXcXcXcXcXcXcXcXcXcXcXcXcXcX9 9 9 9 7 7 7 7 7 7 9 6 5 0 cXcXcXcXcXcXcXcXcXcXcXcXcXcXcXcXcXcXcXcXcXcXcXcXcXcXcXcXcX",
"cXcXcXcXcXcXcXcXcXcXcXcXcXcXcXcXcXcXcXcXcXcXcXcXcXcXcXcX* @ g r p t t ; w w w i t e ; : g % * cXcXcXcXcXcXcXcXcXcXcXcXcXcXcXcXcXcXcXcXcXcXcXcXcXcXcXcX",
"cXcXcXcXcXcXcXcXcXcXcXcXcXcXcXcXcXcXcXcXcXcXcXcXcXcXcX< X f x.1.Y >.F ,.S W [ K G L B #.hXkX% $ cXcXcXcXcXcXcXcXcXcXcXcXcXcXcXcXcXcXcXcXcXcXcXcXcXcXcX",
"cXcXcXcXcXcXcXcXcXcXcXcXcXcXcXcXcXcXcXcXcXcXcXcXcXcX< O J K N 8.:.Y ' G K A v K S N 6.%X7XuXlX& $ cXcXcXcXcXcXcXcXcXcXcXcXcXcXcXcXcXcXcXcXcXcXcXcXcXcX",
"cXcXcXcXcXcXcXcXcXcXcXcXcXcXcXcXcXcXcXcXcXcXcXcXcX> + J ' ' F H 2.1.G S K K K P N 5.*X0X1X|.hXlX& % cXcXcXcXcXcXcXcXcXcXcXcXcXcXcXcXcXcXcXcXcXcXcXcXcX",
"cXcXcXcXcXcXcXcXcXcXcXcXcXcXcXcXcXcXcXcXcXcXcXcXcXO P H ! _ _ F F 2.[ N c M d d x.-X,X:X0XeX}.yXhX# = cXcXcXcXcXcXcXcXcXcXcXcXcXcXcXcXcXcXcXcXcXcXcXcX",
"cXcXcXcXcXcXcXcXcXcXcXcXcXcXcXcXcXcXcXcXcXcXcXcXO u L ! :.7._ ' D D 2.0.'.'.n.'.0X,X:X1XwX0X*X}.7XaX& - cXcXcXcXcXcXcXcXcXcXcXcXcXcXcXcXcXcXcXcXcXcXcX",
"cXcXcXcXcXcXcXcXcXcXcXcXcXcXcXcXcXcXcXcXcXcXcXO y N V Q _ ) :._ ,.D m T.+X+XOXOX+X0X<X1X|.*X9X,X7X5X4X% - cXcXcXcXcXcXcXcXcXcXcXcXcXcXcXcXcXcXcXcXcXcX",
"cXcXcXcXcXcXcXcXcXcXcXcXcXcXcXcXcXcXcXcXcXcXcXy a j C Y W :.:.,.D ,.n.Z.y.y.s.y.A.$X0X0X,X&XwXyXwX}.6X3X& 8 cXcXcXcXcXcXcXcXcXcXcXcXcXcXcXcXcXcXcXcXcX",
"cXcXcXcXcXcXcXcXcXcXcXcXcXcXcXcXcXcXcXcXcXcX: a a x x v C Q ! ;.3.OXtXH.r.E.k.l.u.A.+X0X,X:X:XwX,X9X{.fX=.3 cXcXcXcXcXcXcXcXcXcXcXcXcXcXcXcXcXcXcXcXcX",
"cXcXcXcXcXcXcXcXcXcXcXcXcXcXcXcXcXcXcXcXcXcXw x c c k j C C m  .t.#X0X0XW.k.l.z.P.u.C.+XwX>X.X0X0X|.tXyXo.> cXcXcXcXcXcXcXcXcXcXcXcXcXcXcXcXcXcXcXcXcX",
"cXcXcXcXcXcXcXcXcXcXcXcXcXcXcXcXcXcXcXcXcXcXw c i p c l S n  .G.t.I.#X>X>XI.k.l.g.j.p.I. XwX0X.X&XtX<XV.$.4 cXcXcXcXcXcXcXcXcXcXcXcXcXcXcXcXcXcXcXcXcX",
"cXcXcXcXcXcXcXcXcXcXcXcXcXcXcXcXcXcXcXcXcXcXw v x j i A p B ;XwX/.e.t.oX>X<XW.a.f.g.P.u.A..X<X<XwX0XR.}.$.> cXcXcXcXcXcXcXcXcXcXcXcXcXcXcXcXcXcXcXcXcX",
"cXcXcXcXcXcXcXcXcXcXcXcXcXcXcXcXcXcXcXcXcXcXr v z z S z  .;XwXwXwX Xu.r.>X<X,XC.h.f.j.k.u.A.R.tX0XK.`.fX%.3 cXcXcXcXcXcXcXcXcXcXcXcXcXcXcXcXcXcXcXcXcX",
"cXcXcXcXcXcXcXcXcXcXcXcXcXcXcXcXcXcXcXcXcXcXy v l G C 0.;XwXwXtX0X0XQ.r.A..X@X:XI.f.g.z.j.u.J.wXJ. XB.rXO., cXcXcXcXcXcXcXcXcXcXcXcXcXcXcXcXcXcXcXcXcX",
"cXcXcXcXcXcXcXcXcXcXcXcXcXcXcXcXcXcXcXcXcXcXr v l D  .t.Y.].tX0X8X*XwX).r.S.oX0X>XD.s.E.j.t.@XwXD.<X7XxX=.< cXcXcXcXcXcXcXcXcXcXcXcXcXcXcXcXcXcXcXcXcX",
"cXcXcXcXcXcXcXcXcXcXcXcXcXcXcXcXcXcXcXcXcXcXr v l D m q.P.t.:XwXtXqX0X0XW.r.D.#XwX>XI.a.d.y.OX9Xe.H.n.jX&.= cXcXcXcXcXcXcXcXcXcXcXcXcXcXcXcXcXcXcXcXcX",
"cXcXcXcXcXcXcXcXcXcXcXcXcXcXcXcXcXcXcXcXcXcXr l p d s 4.~.j.r.$XwXtXwX-X0X!.u.t.oX0X0XR.t.y. X>Xq.r.e.;X{ , cXcXcXcXcXcXcXcXcXcXcXcXcXcXcXcXcXcXcXcXcX",
"cXcXcXcXcXcXcXcXcXcXcXcXcXcXcXcXcXcXcXcXcXcXw l p p s q.P.g.u.A.$X0XtXqX0XwX~.S.A.$XwX<X/.t.!.<XH.W.~.,X+.3 cXcXcXcXcXcXcXcXcXcXcXcXcXcXcXcXcXcXcXcXcX",
"cXcXcXcXcXcXcXcXcXcXcXcXcXcXcXcXcXcXcXcXcXcXw k k n n q.P.p.P.i.A.+XwXtXtXwX<XQ.r.A.#XwX>XD.J.,XoX(.^.OX+.& cXcXcXcXcXcXcXcXcXcXcXcXcXcXcXcXcXcXcXcXcX",
"cXcXcXcXcXcXcXcXcXcXcXcXcXcXcXcXcXcXcXcXcXcXe M M D n 5.XXZ.u.j.i.S..XwXwXwX.X<X Xr.r.#X0X:X-X9X!.(.(..X$., cXcXcXcXcXcXcXcXcXcXcXcXcXcXcXcXcXcXcXcXcX",
"cXcXcXcXcXcXcXcXcXcXcXcXcXcXcXcXcXcXcXcXcXcXw M V ! F v.9XOXi.d.j.d.r.:XwXwX0X0X0X!.r.S.#XwXyXqXU.(.^..X+.cXcXcXcXcXcXcXcXcXcXcXcXcXcXcXcXcXcXcXcXcXcX",
"cXcXcXcXcXcXcXcXcXcXcXcXcXcXcXcXcXcXcXcXcXcXw M C W ;.c.wX0X(.u.j.a.I.e.+XwXwXwXwX0XoXe.M.:XtX,X!.$X^. X+.cXcXcXcXcXcXcXcXcXcXcXcXcXcXcXcXcXcXcXcXcXcX",
"cXcXcXcXcXcXcXcXcXcXcXcXcXcXcXcXcXcXcXcXcXcXw M b W F c.qXwX>X_.a.j.a.s.F.#X0XtXqXwX0X`.M.M.+X:X!._._.+X$.cXcXcXcXcXcXcXcXcXcXcXcXcXcXcXcXcXcXcXcXcXcX",
"cXcXcXcXcXcXcXcXcXcXcXcXcXcXcXcXcXcXcXcXcXcXe M l ! F c.wX0XwX<X(.t.P.g.z.u..XtXwXqXtXwX`.e.`.0XA.F.W.H.| cXcXcXcXcXcXcXcXcXcXcXcXcXcXcXcXcXcXcXcXcXcX",
"cXcXcXcXcXcXcXcXcXcXcXcXcXcXcXcXcXcXcXcXcXcXe p j A V 5.wXwXwX1X0X!.s.g.j.i.F.+XtXtX8XwXwXK.`.gX#XA.i.G.} cXcXcXcXcXcXcXcXcXcXcXcXcXcXcXcXcXcXcXcXcXcX",
"cXcXcXcXcXcXcXcXcXcXcXcXcXcXcXcXcXcXcXcXcXcXt k x x n 4.:XtX0X8X9XwX^.d.g.s.d.t..XwXtXwXqX9X|.fX<Xu.d.D.X.cXcXcXcXcXcXcXcXcXcXcXcXcXcXcXcXcXcXcXcXcXcX",
"cXcXcXcXcXcXcXcXcXcXcXcXcXcXcXcXcXcXcXcXcX1 t M p j z 0.D.[.tXwXtXqX<XQ.d.j.f.I.u.#XwXwXtXwX5XtXA.S.t.Z.X.cXcXcXcXcXcXcXcXcXcXcXcXcXcXcXcXcXcXcXcXcXcX",
"cXcXcXcXcXcXcXcXcXcXcXcXcXcXcXcXcXcXcXcXcX1 t M x V C 4.L.G.wXtXuX8X0X0X~.a.h.h.E.i.#XwXqX5XgX5X6.~.P.D.X.cXcXcXcXcXcXcXcXcXcXcXcXcXcXcXcXcXcXcXcXcXcX",
"cXcXcXcXcXcXcXcXcXcXcXcXcXcXcXcXcXcXcXcXcX1 e A A F W ;.4.L.Y.qXqXtX8XwX<X/.I.a.l.l.i.#XwXuXfXqX XF.^.:X@.cXcXcXcXcXcXcXcXcXcXcXcXcXcXcXcXcXcXcXcXcXcX",
"cXcXcXcXcXcXcXcXcXcXcXcXcXcXcXcXcXcXcXcXcX6 t S C _ 9.:.-.4.L.:XtXtXtXeXwXwX/.S.k.l.a.D.tXyX7X9X<XH.A.U.@.cXcXcXcXcXcXcXcXcXcXcXcXcXcXcXcXcXcXcXcXcXcX",
"cXcXcXcXcXcXcXcXcXcXcXcXcXcXcXcXcXcXcXcXcX6 t W Q 1./ C >.E w.I.9XwXwXtXtXqX9XR.i.l.P.I.yXqX%X,X0X<XF.M.} cXcXcXcXcXcXcXcXcXcXcXcXcXcXcXcXcXcXcXcXcXcX",
"cXcXcXcXcXcXcXcXcXcXcXcXcXcXcXcXcXcXcXcXcX6 t W 7.R Y R E E >.q.G.,XtXwXtXuX8XwX!.r.t.:X0X|.wX>X#X>X>XB.{ cXcXcXcXcXcXcXcXcXcXcXcXcXcXcXcXcXcXcXcXcXcX",
"cXcXcXcXcXcXcXcXcXcXcXcXcXcXcXcXcXcXcXcXcX< f 1._ T R E ( ` Y >.q.L.,XtXtXtX8XwXwX`.-X0X&X,X0X>X>X>X1XqXO.cXcXcXcXcXcXcXcXcXcXcXcXcXcXcXcXcXcXcXcXcXcX",
"cXcXcXcXcXcXcXcXcXcXcXcXcXcXcXcXcXcXcXcXcX< f [ W R T ) ` Y ` Y ;.q.G.,XwX8XyXiXtXyXeX[.,X1X<X1X>X$XB.6Xo.cXcXcXcXcXcXcXcXcXcXcXcXcXcXcXcXcXcXcXcXcXcX",
"cXcXcXcXcXcXcXcXcXcXcXcXcXcXcXcXcXcXcXcXcXcXX f <.W T ( ( T _ ` Z ;.5.K.tXuXiXuXfX}.9X,X1X,X,X0X&X`.5X%.cXcXcXcXcXcXcXcXcXcXcXcXcXcXcXcXcXcXcXcXcXcXcX",
"cXcXcXcXcXcXcXcXcXcXcXcXcXcXcXcXcXcXcXcXcXcXU o f <.E / T T T ^ E m D ].gXgXgXfX8X|.*XtXfX1X,X@XB.6X*.  cXcXcXcXcXcXcXcXcXcXcXcXcXcXcXcXcXcXcXcXcXcXcX",
"cXcXcXcXcXcXcXcXcXcXcXcXcXcXcXcXcXcXcXcXcXcXcXq @ g ,.R / / Y / E -.q.=X9X9XeX|.wXwX1X9X,X,X:X`.6Xo.  cXcXcXcXcXcXcXcXcXcXcXcXcXcXcXcXcXcXcXcXcXcXcXcX",
"cXcXcXcXcXcXcXcXcXcXcXcXcXcXcXcXcXcXcXcXcXcXcXcXq @ h <.W Y ) Z -.y.,X:X:X,X[.0X*XtX0X&X;X-X`.5X&.  cXcXcXcXcXcXcXcXcXcXcXcXcXcXcXcXcXcXcXcXcXcXcXcXcX",
"cXcXcXcXcXcXcXcXcXcXcXcXcXcXcXcXcXcXcXcXcXcXcXcXcXq + h <.H n Z b.>X,X:X0X,X,X9X9X7XtXqX;XV.5X*.. cXcXcXcXcXcXcXcXcXcXcXcXcXcXcXcXcXcXcXcXcXcXcXcXcXcX",
"cXcXcXcXcXcXcXcXcXcXcXcXcXcXcXcXcXcXcXcXcXcXcXcXcXcXU X h x.B c.-X%X}.eX{.|.7X{.tXyXgXjX3XjX=.  cXcXcXcXcXcXcXcXcXcXcXcXcXcXcXcXcXcXcXcXcXcXcXcXcXcXcX",
"cXcXcXcXcXcXcXcXcXcXcXcXcXcXcXcXcXcXcXcXcXcXcXcXcXcXcXcXo 2 m.sXsXaXdXdXaXaXpXpXhXzXkXlXzX&.cXcXcXcXcXcXcXcXcXcXcXcXcXcXcXcXcXcXcXcXcXcXcXcXcXcXcXcXcX",
"cXcXcXcXcXcXcXcXcXcXcXcXcXcXcXcXcXcXcXcXcXcXcXcXcXcXcXcXcXo 1 cXcXcXcXcXcXcXcXcXcXcXcXcXcXcXcXcXcXcXcXcXcXcXcXcXcXcXcXcXcXcXcXcXcXcXcXcXcXcXcXcXcXcXcX",
"cXcXcXcXcXcXcXcXcXcXcXcXcXcXcXcXcXcXcXcXcXcXcXcXcXcXcXcXcXcXcXcXcXcXcXcXcXcXcXcXcXcXcXcXcXcXcXcXcXcXcXcXcXcXcXcXcXcXcXcXcXcXcXcXcXcXcXcXcXcXcXcXcXcXcX",
"cXcXcXcXcXcXcXcXcXcXcXcXcXcXcXcXcXcXcXcXcXcXcXcXcXcXcXcXcXcXcXcXcXcXcXcXcXcXcXcXcXcXcXcXcXcXcXcXcXcXcXcXcXcXcXcXcXcXcXcXcXcXcXcXcXcXcXcXcXcXcXcXcXcXcX",
"cXcXcXcXcXcXcXcXcXcXcXcXcXcXcXcXcXcXcXcXcXcXcXcXcXcXcXcXcXcXcXcXcXcXcXcXcXcXcXcXcXcXcXcXcXcXcXcXcXcXcXcXcXcXcXcXcXcXcXcXcXcXcXcXcXcXcXcXcXcXcXcXcXcXcX",
"cXcXcXcXcXcXcXcXcXcXcXcXcXcXcXcXcXcXcXcXcXcXcXcXcXcXcXcXcXcXcXcXcXcXcXcXcXcXcXcXcXcXcXcXcXcXcXcXcXcXcXcXcXcXcXcXcXcXcXcXcXcXcXcXcXcXcXcXcXcXcXcXcXcXcX",
"cXcXcXcXcXcXcXcXcXcXcXcXcXcXcXcXcXcXcXcXcXcXcXcXcXcXcXcXcXcXcXcXcXcXcXcXcXcXcXcXcXcXcXcXcXcXcXcXcXcXcXcXcXcXcXcXcXcXcXcXcXcXcXcXcXcXcXcXcXcXcXcXcXcXcX",
"cXcXcXcXcXcXcXcXcXcXcXcXcXcXcXcXcXcXcXcXcXcXcXcXcXcXcXcXcXcXcXcXcXcXcXcXcXcXcXcXcXcXcXcXcXcXcXcXcXcXcXcXcXcXcXcXcXcXcXcXcXcXcXcXcXcXcXcXcXcXcXcXcXcXcX",
"cXcXcXcXcXcXcXcXcXcXcXcXcXcXcXcXcXcXcXcXcXcXcXcXcXcXcXcXcXcXcXcXcXcXcXcXcXcXcXcXcXcXcXcXcXcXcXcXcXcXcXcXcXcXcXcXcXcXcXcXcXcXcXcXcXcXcXcXcXcXcXcXcXcXcX",
"cXcXcXcXcXcXcXcXcXcXcXcXcXcXcXcXcXcXcXcXcXcXcXcXcXcXcXcXcXcXcXcXcXcXcXcXcXcXcXcXcXcXcXcXcXcXcXcXcXcXcXcXcXcXcXcXcXcXcXcXcXcXcXcXcXcXcXcXcXcXcXcXcXcXcX",
"cXcXcXcXcXcXcXcXcXcXcXcXcXcXcXcXcXcXcXcXcXcXcXcXcXcXcXcXcXcXcXcXcXcXcXcXcXcXcXcXcXcXcXcXcXcXcXcXcXcXcXcXcXcXcXcXcXcXcXcXcXcXcXcXcXcXcXcXcXcXcXcXcXcXcX",
"cXcXcXcXcXcXcXcXcXcXcXcXcXcXcXcXcXcXcXcXcXcXcXcXcXcXcXcXcXcXcXcXcXcXcXcXcXcXcXcXcXcXcXcXcXcXcXcXcXcXcXcXcXcXcXcXcXcXcXcXcXcXcXcXcXcXcXcXcXcXcXcXcXcXcX",
"cXcXcXcXcXcXcXcXcXcXcXcXcXcXcXcXcXcXcXcXcXcXcXcXcXcXcXcXcXcXcXcXcXcXcXcXcXcXcXcXcXcXcXcXcXcXcXcXcXcXcXcXcXcXcXcXcXcXcXcXcXcXcXcXcXcXcXcXcXcXcXcXcXcXcX",
"cXcXcXcXcXcXcXcXcXcXcXcXcXcXcXcXcXcXcXcXcXcXcXcXcXcXcXcXcXcXcXcXcXcXcXcXcXcXcXcXcXcXcXcXcXcXcXcXcXcXcXcXcXcXcXcXcXcXcXcXcXcXcXcXcXcXcXcXcXcXcXcXcXcXcX",
"cXcXcXcXcXcXcXcXcXcXcXcXcXcXcXcXcXcXcXcXcXcXcXcXcXcXcXcXcXcXcXcXcXcXcXcXcXcXcXcXcXcXcXcXcXcXcXcXcXcXcXcXcXcXcXcXcXcXcXcXcXcXcXcXcXcXcXcXcXcXcXcXcXcXcX",
"cXcXcXcXcXcXcXcXcXcXcXcXcXcXcXcXcXcXcXcXcXcXcXcXcXcXcXcXcXcXcXcXcXcXcXcXcXcXcXcXcXcXcXcXcXcXcXcXcXcXcXcXcXcXcXcXcXcXcXcXcXcXcXcXcXcXcXcXcXcXcXcXcXcXcX",
"cXcXcXcXcXcXcXcXcXcXcXcXcXcXcXcXcXcXcXcXcXcXcXcXcXcXcXcXcXcXcXcXcXcXcXcXcXcXcXcXcXcXcXcXcXcXcXcXcXcXcXcXcXcXcXcXcXcXcXcXcXcXcXcXcXcXcXcXcXcXcXcXcXcXcX",
"cXcXcXcXcXcXcXcXcXcXcXcXcXcXcXcXcXcXcXcXcXcXcXcXcXcXcXcXcXcXcXcXcXcXcXcXcXcXcXcXcXcXcXcXcXcXcXcXcXcXcXcXcXcXcXcXcXcXcXcXcXcXcXcXcXcXcXcXcXcXcXcXcXcXcX",
"cXcXcXcXcXcXcXcXcXcXcXcXcXcXcXcXcXcXcXcXcXcXcXcXcXcXcXcXcXcXcXcXcXcXcXcXcXcXcXcXcXcXcXcXcXcXcXcXcXcXcXcXcXcXcXcXcXcXcXcXcXcXcXcXcXcXcXcXcXcXcXcXcXcXcX"
};
