/* XPM */
static char *result[] = {
/* columns rows colors chars-per-pixel */
"75 75 249 2 ",
"   c black",
".  c #A002D0",
"X  c #A402D2",
"o  c #A501D4",
"O  c #A601D5",
"+  c #A701D5",
"@  c #BF03E3",
"#  c #C401EA",
"$  c #C401EB",
"%  c #C601EA",
"&  c #C700EE",
"*  c #C700EF",
"=  c #C802E9",
"-  c #C802EA",
";  c #CA01ED",
":  c #C801EE",
">  c #C800EF",
",  c #CB00EE",
"<  c #CB01EE",
"1  c #C802EE",
"2  c #CD00EE",
"3  c #CC00EF",
"4  c #C900F0",
"5  c #CA00F0",
"6  c #CB00F0",
"7  c #CB00F2",
"8  c #CC00F0",
"9  c #CD00F1",
"0  c #CE00F0",
"q  c #CF00F0",
"w  c #CC00F2",
"e  c #CE00F2",
"r  c #CF00F2",
"t  c #D100F2",
"y  c #D000F3",
"u  c #D100F3",
"i  c #D000F4",
"p  c #D100F4",
"a  c #D100F5",
"s  c #D200F4",
"d  c #D300F4",
"f  c #D201F4",
"g  c #D200F5",
"h  c #D200F6",
"j  c #D200F7",
"k  c #D400F7",
"l  c #D401F7",
"z  c #D300F8",
"x  c #D300F9",
"c  c #D400F8",
"v  c #D500F8",
"b  c #D501F8",
"n  c #D500F9",
"m  c #D600F8",
"M  c #D600F9",
"N  c #D700F9",
"B  c #D500FA",
"V  c #D600FA",
"C  c #D700FA",
"Z  c #D600FB",
"A  c #D700FB",
"S  c #D700FC",
"D  c #D800F9",
"F  c #D800FA",
"G  c #D900FA",
"H  c #D800FB",
"J  c #D900FB",
"K  c #D800FC",
"L  c #D900FC",
"P  c #D800FD",
"I  c #DB00FF",
"U  c #DC00FE",
"Y  c #DD00FF",
"T  c #DE00FF",
"R  c #D31BF0",
"E  c #D81DF6",
"W  c #DA1BF9",
"Q  c #DC1BFA",
"!  c #DD1BFB",
"~  c #E000FF",
"^  c #E100FF",
"/  c #D335F0",
"(  c #D235F1",
")  c #D136F0",
"_  c #D236F0",
"`  c #D736F3",
"'  c #D339F0",
"]  c #D339F1",
"[  c #D33AF0",
"{  c #D33AF1",
"}  c #D33AF2",
"|  c #D83AF3",
" . c #D83FF3",
".. c #DC39F7",
"X. c #DD3AF7",
"o. c #DE3DF7",
"O. c #DE3EF7",
"+. c #DD37F8",
"@. c #DF37F9",
"#. c #DE37FA",
"$. c #DE3BF9",
"%. c #DE39FA",
"&. c #DF39FA",
"*. c #DD3DF8",
"=. c #DE3DF8",
"-. c #DF3DF9",
";. c #DD3EF8",
":. c #DF3EF8",
">. c #DE3EF9",
",. c #DF3EF9",
"<. c #DF3DFA",
"1. c #DF3DFB",
"2. c #E037F9",
"3. c #E037FA",
"4. c #E137FB",
"5. c #E038FB",
"6. c #E039FB",
"7. c #E139FB",
"8. c #E03BFA",
"9. c #E03DFB",
"0. c #E13DFB",
"q. c #E03EFB",
"w. c #E13EFB",
"e. c #E138FC",
"r. c #E339FC",
"t. c #E239FD",
"y. c #E23AFC",
"u. c #E33AFD",
"i. c #E438FC",
"p. c #E439FE",
"a. c #E13DFC",
"s. c #E13EFC",
"d. c #E13FFC",
"f. c #E23EFC",
"g. c #E23EFE",
"h. c #E53DFE",
"j. c #E43EFE",
"k. c #E43FFE",
"l. c #E53FFE",
"z. c #E83AFF",
"x. c #E83FFF",
"c. c #AE56D3",
"v. c #B35AD6",
"b. c #B458D6",
"n. c #B45CD6",
"m. c #D64EF0",
"M. c #DF42F8",
"N. c #DE44F8",
"B. c #DB51F2",
"V. c #E041F9",
"C. c #E143FA",
"Z. c #E142FB",
"A. c #E242FC",
"S. c #E343FE",
"D. c #E940FF",
"F. c #E941FF",
"G. c #E846FF",
"H. c #E252F7",
"J. c #E353F8",
"K. c #E453FA",
"L. c #E054F8",
"P. c #E454F9",
"I. c #E555FB",
"U. c #E655FA",
"Y. c #E855FC",
"T. c #DD64F2",
"R. c #DD74F2",
"E. c #DC77F2",
"W. c #DD77F2",
"Q. c #DD75F4",
"!. c #DD78F2",
"~. c #DE7BF2",
"^. c #DF79F4",
"/. c #E569F8",
"(. c #E76AFA",
"). c #E96BFA",
"_. c #EB6CFB",
"`. c #E178F4",
"'. c #E278F4",
"]. c #E278F5",
"[. c #E17AF5",
"{. c #E27BF6",
"}. c #E57AF7",
"|. c #E37CF4",
" X c #E27CF5",
".X c #E37CF7",
"XX c #E57CF7",
"oX c #E57DF7",
"OX c #E57CF8",
"+X c #E77DF9",
"@X c #E67EF8",
"#X c #E77EF9",
"$X c #E77DFA",
"%X c #E77EFA",
"&X c #E879FA",
"*X c #E87BFA",
"=X c #E87DF9",
"-X c #E87EF9",
";X c #E87EFA",
":X c #E97EFA",
">X c #E87FFA",
",X c #E97FFA",
"<X c #EA7DFC",
"1X c #E780FA",
"2X c #E880F9",
"3X c #E880FA",
"4X c #E980FA",
"5X c #E981FA",
"6X c #E980FB",
"7X c #E981FB",
"8X c #EA80FA",
"9X c #EA81FA",
"0X c #EA80FB",
"qX c #EB80FB",
"wX c #EA81FB",
"eX c #EB81FB",
"rX c #EB83FB",
"tX c #EA80FC",
"yX c #EB80FC",
"uX c #EA81FC",
"iX c #EB81FC",
"pX c #EA82FC",
"aX c #EB82FC",
"sX c #EB83FC",
"dX c #EC81FC",
"fX c #EC82FC",
"gX c #ED83FC",
"hX c #ED82FD",
"jX c #ED83FD",
"kX c #ED82FE",
"lX c #ED83FE",
"zX c #EF83FE",
"xX c #EC85FC",
"cX c #ED86FD",
"vX c #EE86FE",
"bX c #EE87FE",
"nX c #F282FF",
"mX c #F186FF",
"MX c #F187FF",
"NX c #F286FF",
"BX c #F287FF",
"VX c #F387FF",
"CX c #F288FF",
"ZX c #F388FF",
"AX c #F488FF",
"SX c #F58AFF",
"DX c #F68AFF",
"FX c #F88BFF",
"GX c None",
/* pixels */
"GXGXGXGXGXGXGXGXGXGXGXGXGXGXGXGXGXGXGXGXGXGXGXGXGXGXGXGXGXGXGXGXGXGXGXGXGXGXGXGXGXGXGXGXGXGXGXGXGXGXGXGXGXGXGXGXGXGXGXGXGXGXGXGXGXGXGXGXGXGXGXGXGXGXGX",
"GXGXGXGXGXGXGXGXGXGXGXGXGXGXGXGXGXGXGXGXGXGXGXGXGXGXGXGXGXGXGXGXGXGXGXGXGXGXGXGXGXGXGXGXGXGXGXGXGXGXGXGXGXGXGXGXGXGXGXGXGXGXGXGXGXGXGXGXGXGXGXGXGXGXGX",
"GXGXGXGXGXGXGXGXGXGXGXGXGXGXGXGXGXGXGXGXGXGXGXGXGXGXGXGXGXGXGXGXGXGXGXGXGXGXGXGXGXGXGXGXGXGXGXGXGXGXGXGXGXGXGXGXGXGXGXGXGXGXGXGXGXGXGXGXGXGXGXGXGXGXGX",
"GXGXGXGXGXGXGXGXGXGXGXGXGXGXGXGXGXGXGXGXGXGXGXGXGXGXGXGXGXGXGXGXGXGXGXGXGXGXGXGXGXGXGXGXGXGXGXGXGXGXGXGXGXGXGXGXGXGXGXGXGXGXGXGXGXGXGXGXGXGXGXGXGXGXGX",
"GXGXGXGXGXGXGXGXGXGXGXGXGXGXGXGXGXGXGXGX}.;X-X=X#X$X%X%X%X%X%X%X#X#X#X%X#X%X%X#X+X-X-X-X&XN.$.*.;...f g u i < GXGXGXGXGXGXGXGXGXGXGXGXGXGXGXGXGXGXGXGX",
"GXGXGXGXGXGXGXGXGXGXGXGXGXGXGXGXGXGXGXGX+XfXiXiXiXiXiXiXiXiXiXiXiXiXiXiXiXiXiXiXiXiXiXaX<XC.y.s.d.5.N V M Z i GXGXGXGXGXGXGXGXGXGXGXGXGXGXGXGXGXGXGXGX",
"GXGXGXGXGXGXGXGXGXGXGXGXGXGXGXGXGXGXGXGXXX4X3X,X,X,X,X,X,X,X,X,X,X,X3XtXwX0X0X0X2X>X,X4X*XM.8.<.1.#.k z k n e GXGXGXGXGXGXGXGXGXGXGXGXGXGXGXGXGXGXGXGX",
"GXGXGXGXGXGXGXGXGXGXGXGXGXGXGXGXGXGXGXGXzXZXBXBXBXBXBXBXBXBXBXBXBXBXMXiXqXeX0XdXmXBXBXCXnXG.x.D.F.z.U I I Y M GXGXGXGXGXGXGXGXGXGXGXGXGXGXGXGXGXGXGXGX",
"GXGXGXGXGXGXGXGXGXGXGXGXGXGXGX.X#XoX8XR.                                                                      % t q r - GXGXGXGXGXGXGXGXGXGXGXGXGXGXGX",
"GXGXGXGXGXGXGXGXGXGXGXGXGXGXGX;XiX0XlX[.                                                                      w K n A t GXGXGXGXGXGXGXGXGXGXGXGXGXGXGX",
"GXGXGXGXGXGXGXGXGXGXGXGXGXGXGXOX3X#XwX!.                                                                      4 V j n 0 GXGXGXGXGXGXGXGXGXGXGXGXGXGXGX",
"GXGXGXGXGXGXGXGXGXGXGXGXGXGXGXNXSXAXFXpX                                                                      x ^ Y ^ D GXGXGXGXGXGXGXGXGXGXGXGXGXGXGX",
"GXGXGXGXGXGXGXGXGXGXGXGXGXGXQ.                                                                                          @ 2 , 3 = GXGXGXGXGXGXGXGXGXGX",
"GXGXGXGXGXGXGXGXGXGX5XiX6XjX{.                                                                                          7 H n V p GXGXGXGXGXGXGXGXGXGX",
"GXGXGXGXGXGXGXGXGXGX@X,X1XeX^.                                                                                          5 V z c y GXGXGXGXGXGXGXGXGXGX",
"GXGXGXGXGXGXGXGXGXGXBXAXVXDXuX                                                                                          z ~ Y T J GXGXGXGXGXGXGXGXGXGX",
"GXGXGXGXGXGXGXGXGXGXb.v.v.n.c.                                                                                          . + o O X GXGXGXGXGXGXGXGXGXGX",
"GXGXGXGXGX;XqX,XgXE.                                                                                                              & F c n i GXGXGXGXGX",
"GXGXGXGXGX;XiX8XlX!.                                                                                                              * L n V h GXGXGXGXGX",
"GXGXGXGXGX;XiX9XlX!.                                                                                                              * L n V g GXGXGXGXGX",
"GXGXGXGXGX;XiX9XlX!.                                                                                                              * L n V g GXGXGXGXGX",
"GXGXGXGXGX;XiX9XlX!.                                                                                                              * L n V h GXGXGXGXGX",
"GXGXGXGXGX;XiX9XlX!.                                                                                                              * L n V h GXGXGXGXGX",
"GXGXGXGXGX;XiX9XlX!.                                                                                                              * L n V h GXGXGXGXGX",
"GXGXGXGXGX;XiX9XlX!.                                                                                                              1 J b C f GXGXGXGXGX",
"GXGXGXGXGX;XiX9XlX!.                                                                                                              / i.2.5.#.GXGXGXGXGX",
"GXGXGXGXGX;XiX9XlX!.                                                                                                              [ k.q.f.>.GXGXGXGXGX",
"GXGXGXGXGX;XiX9XlX!.                                                                                                              ] j.1.0.=.GXGXGXGXGX",
"GXGXGXGXGX;XiX9XlX!.                                                                                                              ' j.9.0.=.GXGXGXGXGX",
"GXGXGXGXGX;XiX9XlX!.                                                                                                              ' j.1.0.=.GXGXGXGXGX",
"GXGXGXGXGX:XiX9XlX!.                                                                                                              ' j.1.0.o.GXGXGXGXGX",
"GXGXGXGXGX;XyX4XkXW.                                                                                                              { k.q.s.:.GXGXGXGXGX",
"GXGXGXGXGX9XxXrXbX~.                                                                                                              ) u.&.7.X.GXGXGXGXGX",
"GXGXGXGXGXH.K.J.U.m.                                                                                                              T._.(.)./.GXGXGXGXGX",
"GXGXGXGXGXX.6.%.p.(                                                                                                                XvXsXxX7XGXGXGXGXGX",
"GXGXGXGXGXO.s.q.l.{                                                                                                               '.hX0XqX+XGXGXGXGXGX",
"GXGXGXGXGXo.s.1.h.]                                                                                                               ].hXwXiX;XGXGXGXGXGX",
"GXGXGXGXGXo.s.1.h.]                                                                                                               '.hXwXiX;XGXGXGXGXGX",
"GXGXGXGXGXo.s.1.h.]                                                                                                               '.hXwXiX;XGXGXGXGXGX",
"GXGXGXGXGX-.s.1.h.]                                                                                                               '.hXwXiX;XGXGXGXGXGX",
"GXGXGXGXGX-.s.1.h.]                                                                                                               '.hXwXiX;XGXGXGXGXGX",
"GXGXGXGXGX-.s.1.h.]                                                                                                               '.hXwXiX;XGXGXGXGXGX",
"GXGXGXGXGX-.s.1.h.]                                                                                                               '.hXwXiX;XGXGXGXGXGX",
"GXGXGXGXGX-.s.1.h.]                                                                                                               '.hXwXiX;XGXGXGXGXGX",
"GXGXGXGXGX-.s.1.h.]                                                                                                               '.hXwXiX;XGXGXGXGXGX",
"GXGXGXGXGX-.s.1.h.]                                                                                                               '.hXwXiX;XGXGXGXGXGX",
"GXGXGXGXGX-.s.1.h.]                                                                                                               '.hXwXiX;XGXGXGXGXGX",
"GXGXGXGXGX-.a.1.h.]                                                                                                               '.hXwXiX;XGXGXGXGXGX",
"GXGXGXGXGX,.f.w.k.}                                                                                                               '.hXwXiX;XGXGXGXGXGX",
"GXGXGXGXGX@.4.3.r._                                                                                                               '.hXwXiX;XGXGXGXGXGX",
"GXGXGXGXGXf M l G :                                                                                                               '.hXwXiX;XGXGXGXGXGX",
"GXGXGXGXGXh V n S &                                                                                                               '.hXwXiX;XGXGXGXGXGX",
"GXGXGXGXGXh V v S &                                                                                                               '.hXwXiX;XGXGXGXGXGX",
"GXGXGXGXGXh V v S &                                                                                                               '.hXwXiX;XGXGXGXGXGX",
"GXGXGXGXGXh V v S &                                                                                                               '.hXwXiX;XGXGXGXGXGX",
"GXGXGXGXGXh V v S &                                                                                                               '.hXwXiX;XGXGXGXGXGX",
"GXGXGXGXGXh V v S &                                                                                                               `.hX6XyX$XGXGXGXGXGX",
"GXGXGXGXGXg V v S &                                                                                                               |.cXrXxX9XGXGXGXGXGX",
"GXGXGXGXGXg V v S &                                                                                                               B.Y.P.I.L.GXGXGXGXGX",
"GXGXGXGXGXg V v S &                                                                                                               ` t.&.e.+.GXGXGXGXGX",
"GXGXGXGXGXg V v S &                                                                                                               | g.9.0.=.GXGXGXGXGX",
"GXGXGXGXGXg V v S &                                                                                                                .S.Z.A.V.GXGXGXGXGX",
"GXGXGXGXGXg V v S &                                                                                                               R ! W Q E GXGXGXGXGX",
"GXGXGXGXGXg V v S &                                                                                                               8 Z c B a GXGXGXGXGX",
"GXGXGXGXGXj V v S &                                                                                                               9 H n V h GXGXGXGXGX",
"GXGXGXGXGXj V v S &                                                                                                               9 A n V g GXGXGXGXGX",
"GXGXGXGXGXd V v S &                                                                                                               6 K n V j GXGXGXGXGX",
"GXGXGXGXGXd V v S &                                                                                                               * L n V g GXGXGXGXGX",
"GXGXGXGXGXd V m S &                                                                                                               > L M M h GXGXGXGXGX",
"GXGXGXGXGXh A n P >                                                                                                               > L n A j GXGXGXGXGX",
"GXGXGXGXGX< g y j $                                                                                                               # c s y ; GXGXGXGXGX",
"GXGXGXGXGXGXGXGXGXGXGXGXGXGXGXGXGXGXGXGXGXGXGXGXGXGXGXGXGXGXGXGXGXGXGXGXGXGXGXGXGXGXGXGXGXGXGXGXGXGXGXGXGXGXGXGXGXGXGXGXGXGXGXGXGXGXGXGXGXGXGXGXGXGXGX",
"GXGXGXGXGXGXGXGXGXGXGXGXGXGXGXGXGXGXGXGXGXGXGXGXGXGXGXGXGXGXGXGXGXGXGXGXGXGXGXGXGXGXGXGXGXGXGXGXGXGXGXGXGXGXGXGXGXGXGXGXGXGXGXGXGXGXGXGXGXGXGXGXGXGXGX",
"GXGXGXGXGXGXGXGXGXGXGXGXGXGXGXGXGXGXGXGXGXGXGXGXGXGXGXGXGXGXGXGXGXGXGXGXGXGXGXGXGXGXGXGXGXGXGXGXGXGXGXGXGXGXGXGXGXGXGXGXGXGXGXGXGXGXGXGXGXGXGXGXGXGXGX",
"GXGXGXGXGXGXGXGXGXGXGXGXGXGXGXGXGXGXGXGXGXGXGXGXGXGXGXGXGXGXGXGXGXGXGXGXGXGXGXGXGXGXGXGXGXGXGXGXGXGXGXGXGXGXGXGXGXGXGXGXGXGXGXGXGXGXGXGXGXGXGXGXGXGXGX"
};
