/* XPM */
static char *result[] = {
/* columns rows colors chars-per-pixel */
"78 79 189 2 ",
"   c #020002",
".  c #070009",
"X  c #080009",
"o  c #250A2A",
"O  c #290B2F",
"+  c #23002A",
"@  c #2B0034",
"#  c #2B0B31",
"$  c #300837",
"%  c #41084E",
"&  c #44124F",
"*  c #370080",
"=  c #3D0485",
"-  c #3E0C84",
";  c #410687",
":  c #420789",
">  c #450B8B",
",  c #490B8D",
"<  c #410C87",
"1  c #500D8E",
"2  c #52118E",
"3  c #4D0C90",
"4  c #540E91",
"5  c #590F94",
"6  c #570998",
"7  c #5A099A",
"8  c #4F1190",
"9  c #561293",
"0  c #5D1095",
"q  c #5C1199",
"w  c #5C1B9A",
"e  c #611297",
"r  c #661398",
"t  c #6A139A",
"y  c #6F189E",
"u  c #611D9C",
"i  c #74169F",
"p  c #78169F",
"a  c #75189F",
"s  c #6507A3",
"d  c #6A07A5",
"f  c #6309A1",
"g  c #6C0AA5",
"h  c #6F05AA",
"j  c #7005AC",
"k  c #7517A0",
"l  c #7917A1",
"z  c #7718A0",
"x  c #7A18A2",
"c  c #7D07B3",
"v  c #6A24A3",
"b  c #762EAC",
"n  c #7325A7",
"m  c #842494",
"M  c #8B00A4",
"N  c #831BAA",
"B  c #801DA5",
"V  c #8704BC",
"C  c #8804BE",
"Z  c #9E00B9",
"A  c #851DB1",
"S  c #8E1FB3",
"D  c #8A15BD",
"F  c #8B1FBD",
"G  c #9225A4",
"H  c #9228A5",
"J  c #9727A9",
"K  c #8720B9",
"L  c #8D21BE",
"P  c #8D28BE",
"I  c #9127BF",
"U  c #9D26BB",
"Y  c #893AB9",
"T  c #913CBE",
"R  c #A42BBB",
"E  c #AD2EBE",
"W  c #AF31BF",
"Q  c #9140BE",
"!  c #9304C5",
"~  c #9C03CC",
"^  c #9A08CB",
"/  c #9F03D0",
"(  c #A30CC9",
")  c #A102CF",
"_  c #A71FC9",
"`  c #A403D3",
"'  c #AA02D6",
"]  c #A806D6",
"[  c #B107D6",
"{  c #B108D6",
"}  c #B407DA",
"|  c #B312D6",
" . c #9624C4",
".. c #9E25C3",
"X. c #AE2FC0",
"o. c #A927CA",
"O. c #A42ACF",
"+. c #AC2BCC",
"@. c #A324CF",
"#. c #B02BCF",
"$. c #A53FC7",
"%. c #A83FCE",
"&. c #AA37C9",
"*. c #A62BD1",
"=. c #AD2CD2",
"-. c #AB22D3",
";. c #B52DD6",
":. c #B72FD8",
">. c #B82FD8",
",. c #BA30DC",
"<. c #B701E1",
"1. c #BA01E3",
"2. c #BF01E8",
"3. c #BE32E2",
"4. c #C022D8",
"5. c #C334D9",
"6. c #C101E6",
"7. c #C400EB",
"8. c #C900EE",
"9. c #C214E6",
"0. c #CC00F2",
"q. c #CF08F2",
"w. c #D200F6",
"e. c #D40BF6",
"r. c #D500F9",
"t. c #DA00FC",
"y. c #D608F9",
"u. c #D80BFA",
"i. c #D21FF1",
"p. c #E200FF",
"a. c #CC25EB",
"s. c #C333E4",
"d. c #CC38E3",
"f. c #CD36E9",
"g. c #CB37E9",
"h. c #D338EE",
"j. c #D921F6",
"k. c #DD22FA",
"l. c #DD2DF9",
"z. c #D928F5",
"x. c #DA34F6",
"c. c #D739F4",
"v. c #DC3CF6",
"b. c #DE34FA",
"n. c #DE3CF9",
"m. c #D536F4",
"M. c #E02FFB",
"N. c #E13DF6",
"B. c #E13DFC",
"V. c #E034FC",
"C. c #9F4AC8",
"Z. c #AD47CA",
"A. c #A04CC9",
"S. c #AD48CA",
"D. c #AA53CF",
"F. c #A450CC",
"G. c #B74AD6",
"H. c #AC54D1",
"J. c #B156D3",
"K. c #B857D6",
"L. c #B359D4",
"P. c #B75AD8",
"I. c #BD5AD9",
"U. c #DC42F6",
"Y. c #DC4AF5",
"T. c #DF40FA",
"R. c #DE58F4",
"E. c #E244FC",
"W. c #E940FF",
"Q. c #E34DFA",
"!. c #E45DF9",
"~. c #E45CF9",
"^. c #C463E1",
"/. c #D572EC",
"(. c #DF7AF4",
"). c #DE70F3",
"_. c #E561F9",
"`. c #E56FF9",
"'. c #E466F7",
"]. c #E379F5",
"[. c #E772FA",
"{. c #E972FB",
"}. c #E77DF9",
"|. c #E97EFA",
" X c #E781F9",
".X c #EB81FB",
"XX c #F186FF",
"oX c #F589FF",
"OX c None",
/* pixels */
"OXOXOXOXOXOXOXOXOXOXOXOXOXOXOXOXOXOXOXOXOXOXOXOXOXOXOXOXOXOXOXOXOXOXOXOXOXOXOXOXOXOXOXOXOXOXOXOXOXOXOXOXOXOXOXOXOXOXOXOXOXOXOXOXOXOXOXOXOXOXOXOXOXOXOXOXOXOX",
"OXOXOXOXOXOXOXOXOXOXOXOXOXOXOXOXOXOXOXOXOXOXOXOXOXOXOXOXOXOXOXOXOXOXOXOXOXOXOXOXOXOXOXOXOXOXOXOXOXOXOXOXOXOXOXOXOXOXOXOXOXOXOXOXOXOXOXOXOXOXOXOXOXOXOXOXOXOX",
"OXOXOXOXOXOXOXOXOXOXOXOXOXOXOXOXOXOXOXOXOXOXOXOXOXOXOXOXOXOXOXOXOXOXOXOXOXOXOXOXOXOXOXOXOXOXOXOXOXOXOXOXOXOXOXOXOXOXOXOXOXOXOXOXOXOXOXOXOXOXOXOXOXOXOXOXOXOX",
"OXOXOXOXOXOXOXOXOXOXOXOXOXOXOXOXOXOXOXOXOXOXOXOXOXOXOXOXOXOXOXOXOXOXOXOXOXOXOXOXOXOXOXOXOXOXOXOXOXOXOXOXOXOXOXOXOXOXOXOXOXOXOXOXOXOXOXOXOXOXOXOXOXOXOXOXOXOX",
"OXOXOXOXOXOXOXOXOXOXOXOXOXOXOXOXOXOXOXOXOX]. X X}.}.|.}.}.|.}.}.}.}.}.}.}. X}.}. X}.}.}.|.|.`.U.n.v.v.x.e.w.w.0.8.OXOXOXOXOXOXOXOXOXOXOXOXOXOXOXOXOXOXOXOXOX",
"OXOXOXOXOXOXOXOXOXOXOXOXOXOXOXOXOXOXOXOXOX}..X.X|..X.X.X.X.X.X.X X.X.X X.X.X.X.X.X.X X.X.X|.{.n.B.n.T.l.e.w.r.w.w.OXOXOXOXOXOXOXOXOXOXOXOXOXOXOXOXOXOXOXOXOX",
"OXOXOXOXOXOXOXOXOXOXOXOXOXOXOXOXOXOXOXOXOX.X.X.X.X.X.X.X|..X.X.X.X.X.X.X.X.X.X X.X.X.X.X.X.X{.B.B.B.B.M.y.r.r.r.w.OXOXOXOXOXOXOXOXOXOXOXOXOXOXOXOXOXOXOXOXOX",
"OXOXOXOXOXOXOXOXOXOXOXOXOXOXOXOXOXOXOXOXOX.X.X.X.X.X.X.X.X.X.X.X.X.X.X.X.X.X|..X.X.X.X.X.X.X{.E.B.B.E.M.y.t.r.r.w.OXOXOXOXOXOXOXOXOXOXOXOXOXOXOXOXOXOXOXOXOX",
"OXOXOXOXOXOXOXOXOXOXOXOXOXOXOXOXOXOXOXOX^.L.H.L.L.L.L.L.L.L.L.L.L.L.L.P./. X.X.X}./.L.L.P.L.J.=.=.=.=.-.] ` ` ' ` } OXOXOXOXOXOXOXOXOXOXOXOXOXOXOXOXOXOXOXOX",
"OXOXOXOXOXOXOXOXOXOXOXOXOXOXOXOX}..X}..XP.v w w w w w w w w w w w w w u L.}..X.X}.L.u w w w w 7 q q q q 6 7 7 7 d ' t.0.w.w.OXOXOXOXOXOXOXOXOXOXOXOXOXOXOXOX",
"OXOXOXOXOXOXOXOXOXOXOXOXOXOXOXOX.X X.X.XP.w = : < : : : ; < < : : : = , D.}..X|.}.D.> = : : : : > > : < < < : < 6 ' t.r.t.w.OXOXOXOXOXOXOXOXOXOXOXOXOXOXOXOX",
"OXOXOXOXOXOXOXOXOXOXOXOXOXOXOXOX.X.X.XoXP.w , , , , , , , , 8 , , , , 8 H.|..X.X}.H.8 3 , , , , > 3 , , , , , , 7 ' t.t.t.w.OXOXOXOXOXOXOXOXOXOXOXOXOXOXOXOX",
"OXOXOXOXOXOXOXOXOXOXOXOXOXOXOXOX/././.(.D.w , , , , , , , , , , 3 8 , 9 H.}..X.X}.D.8 > , > , , , , , , , 3 , , 7 / 8.7.7.6.<.OXOXOXOXOXOXOXOXOXOXOXOXOXOXOX",
"OXOXOXOXOXOXOXOXOXOXOX|.|..XXXJ.b b b b n i t y y t r e e 5 e t y t y y L.}..X.X}.D.3 > , > 3 5 q 0 e e t y y t y g j j j h ) w.0.w.0.OXOXOXOXOXOXOXOXOXOXOX",
"OXOXOXOXOXOXOXOXOXOX}..X|.}.XXD.* = = * 1 k x x x l y t y t t x x x x B I.|.|..X}.H.8 > 3 > 3 y t t y y l x x B k 1 - < - - ~ t.w.r.w.0.OXOXOXOXOXOXOXOXOXOX",
"OXOXOXOXOXOXOXOXOXOX.X.X.X.XoXH., 3 8 , 0 p x l x p t r t r r k z z x x I.|..X.X XD.3 - , > 3 r t r r t p l l x k 5 , 3 , , ` t.r.t.r.0.OXOXOXOXOXOXOXOXOXOX",
"OXOXOXOXOXOXOXOXOXOX.XXX.XXXoXH.< > > : 9 k x l l x t t t t t a x x l B I..X.X.X XH.8 : , , 1 t t t t t z x x x p 9 : > > > ` t.r.r.r.r.OXOXOXOXOXOXOXOXOXOX",
"OXOXOXOXOXOXOXOXOXOXL.C.A.C.C.Y 4 9 5 4 r a x l x a y r r t t a x l l x G._._._.!.Z., > , : 1 t t r r y p x x x p e 4 5 5 4 c ~ ! ~ ! ` 6.OXOXOXOXOXOXOXOXOX",
"OXOXOXOXOX}.|..X X(.$.: , , < 9 t t t r y x x l x l t r t t r a x x x B >.B.n.B.v.*.3 > , > 2 t t t t t a x x x p t t t t t 2 : > > = c 0.t.r.w.w.OXOXOXOXOX",
"OXOXOXOXOX}.|..X X/.Q > , , , 9 t t r t t p x l l l t t t t t p x x x x >.B.B.B.v.*.3 > , > , t t r r y a x p x x y t r t t 5 , 3 3 > ! 0.r.r.r.w.OXOXOXOXOX",
"OXOXOXOXOX}..X.X.X].C.: , , , 4 t t r t i l l l x z y t t t r z x N l x :.n.B.E.v.*.3 > , , 1 r t r t t l x l x p i t r t t 4 : , , > c 0.r.r.r.0.OXOXOXOXOX",
"OXOXOXOXOX|..X|..X(.Y - , , < 4 t t r t t l x l x z t r t t t z x x l B :.n.n.B.v.*.3 > , , 1 t t t t t l l l x p t t r t t 9 : > > > ! 0.r.r.r.w.OXOXOXOXOX",
"OXOXOXOXOX}..X.X.X(.C.: , , > 9 t t r t y k x p x a y t r t t z x x l x ,.n.n.n.U.O.3 > , : , t t r t t l l l x l i t t t y 4 : , 3 - V 0.t.r.r.w.OXOXOXOXOX",
"OXOXOXOXOX}..X|..X(.Y - , , : 4 t t t t t l x l x z t r t t r z x x l B ,.n.n.n.v.O.3 > , , 1 r r t r t l l l l l t r t t t 4 , > 3 > ! 0.r.r.r.w.OXOXOXOXOX",
"OXOXOXOXOX|..X.X.X(.Q ; , , > 4 t t t r i p l l x z y r r t t z x x l x >.n.B.B.v.*.3 - 3 > 1 t t r r t p x p x x y r t t t 4 > > , > c 0.r.r.r.w.OXOXOXOXOX",
"OXOXOXOXOX}..X|.XX].Q : , , > 9 t r r t t l x l l a t t t t t z x x l B >.B.B.B.v.O.3 > 3 > 8 t t t t y z x l x p t t t t t 4 > , , > ! 0.r.r.r.w.OXOXOXOXOX",
"OXOXOXOXOX|..X.X.X(.Q : , , < 4 r t t r i p x l l k t t t t t z x x x B >.n.n.B.v.*.3 , 3 > 3 t t r t t x x l x x i r r t i 4 > , , > D j.k.k.k.j.OXOXOXOXOX",
"OXOXOXOXOX}..X.X.X].Q : , , > 4 t t t t t l x l x p t t t r t z B x x x >.n.B.B.v.*.3 > , > , t t t t t a x l l p i r r t t 1 > , , : K c.T.n.B.U.OXOXOXOXOX",
"OXOXOXOXOX|..X}..X].Q : , , , 4 t t r t t l x p l x t t t t t a x x x x >.n.n.B.v.*., < , > 1 t t t r t p l l x p t t t t t 4 : , , <  .x.B.B.B.n.OXOXOXOXOX",
"OXOXOXOXOX|..X.XXX(.Q : , , < 4 t t r t t l x l x a t t t t t z x x x B >.n.B.B.n.O.3 , , : 1 r t r r y l x l x p t t t t t 1 > , , : K c.B.n.n.v.OXOXOXOXOX",
"OXOXOXOXOX|..X}..X(.Q < , , < 4 t t r t t l x x x z y r t t r a x x x x >.n.n.B.n.O.3 > , , 1 t t t t t p x l p x i t t t t 4 > , , : L c.B.B.B.v.OXOXOXOXOX",
"OXOXOXOXOX|..X.XXX(.Q : , , > 9 t t r t g x x p l p t t t t t a x x x x >.n.B.B.n.O.3 , , : 1 r t t t t p l l B p t t t t t 4 > , , : L c.B.n.B.v.OXOXOXOXOX",
"OXOXOXOXOX}..X|. X(.C.: , , < 4 t t r t y p x l l p t r t r t z x x x x >.n.B.B.n.O.3 > 3 > 4 t t t r y x l l x p y t r t t 4 > , , >  .c.E.B.B.v.OXOXOXOXOX",
"OXOXOXOXOX X.X.X.X(.Q : , , : 4 t t t r t l x l l p y t t t t z x x l x >.B.n.B.n.O.3 - 3 > , r t r t t a x l x l t t r t t 1 > > : : K m.V.V.n.v.OXOXOXOXOX",
"OXOXOXOXOX[.{.}.|.).T : , , , 9 r t t t i p x l x z y r t t t k x x x N >.n.B.B.n.O.3 > 3 > 3 r t t r y a x l x x y r t t t 5 1 , 4 , I U.E.E.E.Y.OXOXOXOXOX",
"OXOXOXOXOXY.Q.Q.Q.Y.P < , , : 1 t t t t t k l l x z t t r t r p N x x x >.n.n.B.n.*.3 > > > , y t r t t a x l l p i r t t t t i y i t $.).{.{.[.`.OXOXOXOXOX",
"OXOXOXOXOXn.n.n.B.c. .- , , < 9 t t t r i k l l x z y r t t t k x l l N ,.n.n.B.n.*.3 > , , 4 r r t r t k x l x p i r t t r p x x x l Z.}..X.X.X}.OXOXOXOXOX",
"OXOXOXOXOXn.B.B.B.c. .: > , , 9 t r r t t p l l l z t t t r t i l l p l >.n.n.B.v.O.3 - : : , t r t t y p x l x l t t t t r p x x x p Z.}..X.X.X}.OXOXOXOXOX",
"OXOXOXOXOXn.B.n.E.m.F = , , > 1 t r t r i l x l l l y r t t t l B x x N >.n.B.B.n.*.4 3 4 , 1 r r r t t l x k x l t t t t t i l x l p Z.].|..X|.}.OXOXOXOXOX",
"OXOXOXOXOXn.n.n.B.m. .: , , > 4 t t t t t l l l l i t t t t t ..+.;.+.=.f.B.B.B.n.s. . . . .F 5 5 5 4 e p l l x p i r t t r i l x l p Z.}..X.X|.}.OXOXOXOXOX",
"OXOXOXOXOXv.B.n.B.v. .: , , > 9 t t r t t l x l x z y t t t y s.N.v.v.v.v.B.B.B.v.v.v.c.v.N.3.3 3 , > 4 y x p x p i r t t r i l x x l Z.]..X.X.X}.OXOXOXOXOX",
"OXOXOXOXOXB.n.B.B.m.F = , , > 3 t t r f t x l l x z t t t t y s.B.B.B.B.B.B.n.B.B.B.N.N.N.W.3., > > > 4 y x x x l t t t t t i x x x k Z.]..X.X|.}.OXOXOXOXOX",
"OXOXOXOXOXn.n.B.B.v.L : , , > 9 t t t t y l x l x x t r t t t s.B.N.N.N.B.n.n.B.B.N.N.B.N.N.s., , > : 1 i l x x x t t t t t i l x x k Z.].|..X.X}.OXOXOXOXOX",
"OXOXOXOXOXn.n.B.E.c.L : > , > 9 t t r t t l l x x x N A A N A R W E E E d.n.B.B.B.d.E E E W U d d d d d t y y i y t t t t t i x x l p Z.].XX.X|.}.OXOXOXOXOX",
"OXOXOXOXOXn.n.B.B.v. .: , , > 4 t r t r i p x x x A 5.c.f.f.f.& o O # O H v.B.B.v.H O # O o % 1.6.6.7.' f 4 3 3 4 e t r t t i l x x l Z.]..X.X.X}.OXOXOXOXOX",
"OXOXOXOXOXn.n.B.B.c.F : , , > 4 t t t t t p x x z S h.B.W.B.B.O         m v.B.B.v.m         + t.t.t.p.6.f : > > , 5 t t t r p l x x l Z.]..X.X|.}.OXOXOXOXOX",
"OXOXOXOXOXn.n.B.B.c.L : , , > 4 t t r t i p x x l S f.B.n.v.v.#         m v.B.B.v.m         @ 8.w.w.t.<.f : , , , e t t t t i l x x k Z.]..X.X.X}.OXOXOXOXOX",
"OXOXOXOXOXn.n.B.B.v.L < > , : 4 r t t t t x x x l S f.E.n.B.v.$     X X m v.N.B.v.m X .     @ w.w.r.t.<.s , , , , 5 t t t r i l x l p Z.}..X.X|.}.OXOXOXOXOX",
"OXOXOXOXOXB.B.B.B.v.K : , , > 9 t t r t t p x x x S f.N.n.B.n.R G J J J 5.n.n.B.B.4.M M M M Z 0.w.r.t.1.f > , > , e t t r r i l x x k Z.]..X.X|.}.OXOXOXOXOX",
"OXOXOXOXOXv.n.n.B.m. .: , , : 9 t t t t i p x x x S f.B.n.n.B.E.B.W.W.B.E.B.n.B.B.k.p.t.t.t.t.r.r.w.t.1.f > , , 3 5 t t t t i l x x l Z.]..X.X.X}.OXOXOXOXOX",
"OXOXOXOXOXv.B.B.B.c. .: , , < 9 t r r g t p x x B S f.B.B.B.B.n.N.n.n.n.n.B.v.B.V.k.w.w.r.r.r.r.r.r.t.1.f > , , , e y t t r k l x x l Z.].XX|..X}.OXOXOXOXOX",
"OXOXOXOXOXB.B.B.B.v.K : , , : 4 t t r r i i x x x S h.B.B.B.B.B.B.B.B.B.B.B.B.E.B.k.t.r.t.t.t.r.t.t.t.1.s : , > , e t t t t k x x l p Z.]..X.X|.}.OXOXOXOXOX",
"OXOXOXOXOXj.k.i.M.a.D > , > > 9 t t r r y l x l x N @.=.+.=.=.>.>.>.;.;.a.k.k.k.k.9.~ ~ ~ ~ ~ ~ ~ ^ ~ C 7 , , > , e t t t t i l x x l Z.]..X.X.X}.OXOXOXOXOX",
"OXOXOXOXOXw.y.r.t.8.V > , , : 9 t t t r y l x l x l k i k k k x N N N N } r.r.r.w.) 6 4 4 6 4 3 3 4 6 3 , , , > , 5 t t t r i l x x k Z.]..X.X|.}.OXOXOXOXOX",
"OXOXOXOXOXw.r.r.t.0.V > > , < 4 t r t t t l x l x p t r r r r k p p p l [ w.r.r.r.~ , : : > , : > > : > : , , , 1 e t t t t i l x x p Z.]..X.X.X}.OXOXOXOXOX",
"OXOXOXOXOXw.r.r.r.0.C : , > > 9 t t t t t l l l x p y t t r t z x l p N { r.r.r.w.~ 3 > , , > , > , , > , > : > 3 5 t r t t i l x l p Z.].XX.X|.}.OXOXOXOXOX",
"OXOXOXOXOX0.r.r.r.0.V < > , > 4 t t r r y k x l l p t t t t r z x x l l } w.t.r.w.~ 3 > , , , , 4 , , , 1 , 1 1 4 e t t r t i l x x l Z.]..X.X.X}.OXOXOXOXOX",
"OXOXOXOXOX0.r.r.r.0.V : , , > 4 r t t t t l l l l k y r r t t z x x p N [ w.r.r.w./ 3 , , : 1 e e e r r y y y y y t t t t t i l x x k Z.]..X.X|.}.OXOXOXOXOX",
"OXOXOXOXOXr.r.r.r.0.! > > , > 4 t t t t i l l l x k t t t t t p x x x l [ w.r.r.w.~ 3 : , > 4 t t t t t l l x x l t t t t t i l x x p Z.]..X|..X}.OXOXOXOXOX",
"OXOXOXOXOXw.r.r.r.0.c > , , , 4 t t r r t l l l x x y r t t t k x x x N [ r.r.r.w.) 3 , , > , t t t t y k l l x l y t t t t k l x l p Z.].XX.X|.}.OXOXOXOXOX",
"OXOXOXOXOXr.r.r.r.0.V > , > > 4 t t r t t l l l x a y r t t t k B l l l [ w.r.r.w.~ 3 : , > 1 t t r t y p x k x l i t t t t i l x x l Z.}..X|..X}.OXOXOXOXOX",
"OXOXOXOXOXw.r.r.r.0.V < > , > 4 t t t r i l x l x p t r t r t k l l l N [ r.r.r.r.~ 3 , , : 1 t r t r t l l x x l t r r t r i l x x l &.R.!.!.!.~.OXOXOXOXOX",
"OXOXOXOXOXw.r.r.r.0.V : , > > 9 t r t t t l x l l k y r t t t k l x l x [ r.r.r.w.~ 3 , , : 1 t t r t t l l l l l t t t t r i l x l l o.x.B.B.b.v.OXOXOXOXOX",
"OXOXOXOXOXw.r.r.r.0.V , > > > 4 t t t t t l l l x p t t t t t l l N l x { r.r.r.w.~ 3 > , , , t t t r y p x l l p i t t t t k x x x l o.x.B.n.b.v.OXOXOXOXOX",
"OXOXOXOXOX0.r.r.r.0.V : , , > 4 r t r r t l l l x l t t t t t p x x x x } r.r.r.r.^ 3 > , > , t t r r y p l l x l i r t t r i l x l p o.U.T.E.E.E.OXOXOXOXOX",
"OXOXOXOXOXw.r.r.r.0.V > > , > 4 t t y r y k l l x k t t t t t a x x x x | u.u.u.e.( 3 > , , 1 t t t t t k l l x l t t t t t k l x x l _ z.l.l.k.z.OXOXOXOXOX",
"OXOXOXOXOXw.r.r.r.0.V , , > > 4 t t r r y k x x x l t t t t t a x x x x >.b.b.b.b.@.3 > , : 1 t t t r y a x l x l y t r t t i l x x l ( q.y.r.y.e.OXOXOXOXOX",
"OXOXOXOXOXw.r.r.r.0.V < > 3 > 9 r t t r y z z z l k t t t t r z x x x x >.n.B.B.n.*.3 > , , 1 r t r t t p l l x l y r t t r i p x l l ( 0.r.r.r.w.OXOXOXOXOX",
"OXOXOXOXOXw.r.r.r.0.! : , , : 4 t t y r y k x x x l y y t t t z x x x x ,.n.B.B.v.*.3 > 3 > 3 t t t r y l x x x z y t t t t p x x x p ( 0.r.r.r.w.OXOXOXOXOX",
"OXOXOXOXOXw.r.r.r.0.V - > , > 4 r r e e t k k k k y e e r e r i k k i k >.n.n.B.v.O.3 > 3 > 3 t r r e r i i i k k r r r r e y p a a a ^ w.t.r.r.w.OXOXOXOXOX",
"OXOXOXOXOXw.r.r.r.0.V : , , > 3 4 4 4 6 4 5 5 6 5 5 4 3 4 4 4 9 9 0 5 0 *.n.B.B.n.O.3 > > > 3 3 4 4 3 5 5 9 5 5 5 4 4 4 1 4 9 9 9 0 9 ! 0.t.r.r.w.OXOXOXOXOX",
"OXOXOXOXOXw.r.w.r.0.V > , > , > , > > > , > > > > > > 3 > > > > , , : 3 O.n.B.B.n.O.3 - 3 > > > , > , > > > , > > 3 > > > > > > > , > V 0.r.r.r.w.OXOXOXOXOX",
"OXOXOXOXOXw.w.r.r.0.V > , , > > > > > , > > : , > > > > , > , > , , : 3 *.n.B.B.n.O.3 : , : , > > > , > > > , > , , > > , > > > , > > V 0.t.r.r.w.OXOXOXOXOX",
"OXOXOXOXOXw.r.r.r.0.V > , , , , , , , , , , , , > 3 , , , > , , , , , 3 *.v.n.B.v.*.8 , , , , , > , > , , , , > > , , , , , , , , , > V 8.t.r.w.0.OXOXOXOXOX",
"OXOXOXOXOXOX0.w.w.7.V , 1 , , , , , , , , , , , , , , , , , 3 , , , 3 9 O.c.n.n.v...4 , , , , , , , 3 , , , , 3 1 , , > 1 , , , , , , V 8.w.w.w.OXOXOXOXOXOX",
"OXOXOXOXOXOXOXOXOXOXOXOXOXOXOXOXOXOXOXOXOXOXOXOXOXOXOXOXOXOXOXOXOXOXOXOXOXOXOXOXOXOXOXOXOXOXOXOXOXOXOXOXOXOXOXOXOXOXOXOXOXOXOXOXOXOXOXOXOXOXOXOXOXOXOXOXOXOX",
"OXOXOXOXOXOXOXOXOXOXOXOXOXOXOXOXOXOXOXOXOXOXOXOXOXOXOXOXOXOXOXOXOXOXOXOXOXOXOXOXOXOXOXOXOXOXOXOXOXOXOXOXOXOXOXOXOXOXOXOXOXOXOXOXOXOXOXOXOXOXOXOXOXOXOXOXOXOX",
"OXOXOXOXOXOXOXOXOXOXOXOXOXOXOXOXOXOXOXOXOXOXOXOXOXOXOXOXOXOXOXOXOXOXOXOXOXOXOXOXOXOXOXOXOXOXOXOXOXOXOXOXOXOXOXOXOXOXOXOXOXOXOXOXOXOXOXOXOXOXOXOXOXOXOXOXOXOX",
"OXOXOXOXOXOXOXOXOXOXOXOXOXOXOXOXOXOXOXOXOXOXOXOXOXOXOXOXOXOXOXOXOXOXOXOXOXOXOXOXOXOXOXOXOXOXOXOXOXOXOXOXOXOXOXOXOXOXOXOXOXOXOXOXOXOXOXOXOXOXOXOXOXOXOXOXOXOX"
};
