/* XPM */
static char *result[] = {
/* columns rows colors chars-per-pixel */
"75 75 247 2 ",
"   c #13012C",
".  c #1B0835",
"X  c #080020",
"o  c #230C3A",
"O  c #24143C",
"+  c #280A46",
"@  c #2A1A43",
"#  c #291845",
"$  c #3A0052",
"%  c #341853",
"&  c #30164C",
"*  c #34244D",
"=  c #352453",
"-  c #3B2B54",
";  c #3B255C",
":  c #3C2B5C",
">  c #362859",
",  c #3D355B",
"<  c #3B2661",
"1  c #3C2961",
"2  c #372360",
"3  c #3C3764",
"4  c #3F1561",
"5  c #46075A",
"6  c #42135F",
"7  c #412A5C",
"8  c #40245B",
"9  c #42325D",
"0  c #47375E",
"q  c #441A62",
"w  c #5A1575",
"e  c #442464",
"r  c #422C63",
"t  c #49296B",
"y  c #5B286B",
"u  c #433563",
"i  c #4A346C",
"p  c #4C3C6B",
"a  c #483867",
"s  c #533A6B",
"d  c #4B2B78",
"f  c #552976",
"g  c #4C3372",
"h  c #4F3A74",
"j  c #553978",
"k  c #653379",
"l  c #4D436C",
"z  c #49426A",
"x  c #55486F",
"c  c #4D4673",
"v  c #534473",
"b  c #544B74",
"n  c #5B4B7B",
"m  c #584879",
"M  c #5B547B",
"N  c #595779",
"B  c #54596F",
"V  c #645C7C",
"C  c #63567A",
"Z  c #624D7E",
"A  c #63637E",
"S  c #5B2C83",
"D  c #593787",
"F  c #75268B",
"G  c #693C85",
"H  c #763B84",
"J  c #772E98",
"K  c #713894",
"L  c #5D4881",
"P  c #5D5882",
"I  c #624B84",
"U  c #654689",
"Y  c #635382",
"T  c #645B83",
"R  c #695A84",
"E  c #6B5D8C",
"W  c #67578B",
"Q  c #694E94",
"!  c #664A93",
"~  c #77489A",
"^  c #6C5593",
"/  c #6C5B93",
"(  c #6A5099",
")  c #735B95",
"_  c #78579A",
"`  c #76558D",
"'  c #6C628D",
"]  c #686485",
"[  c #73648C",
"{  c #6B6593",
"}  c #6C6699",
"|  c #726392",
" . c #78689A",
".. c #777391",
"X. c #7648A1",
"o. c #795AA5",
"O. c #7F54B0",
"+. c #7B67A4",
"@. c #853999",
"#. c #842E93",
"$. c #9539AD",
"%. c #B33FBE",
"&. c #85549A",
"*. c #837B9B",
"=. c #80619D",
"-. c #874BA4",
";. c #9749AB",
":. c #8757A7",
">. c #9655AD",
",. c #9847B6",
"<. c #8E50B3",
"1. c #A145B4",
"2. c #A558B8",
"3. c #8166A4",
"4. c #8967B5",
"5. c #936AB2",
"6. c #AE63BE",
"7. c #AE1CDD",
"8. c #B531D0",
"9. c #BD24ED",
"0. c #B926E7",
"q. c #BD36EC",
"w. c #BC24F5",
"e. c #BC33F3",
"r. c #BE36FA",
"t. c #AC20E1",
"y. c #B51DE2",
"u. c #C42CEE",
"i. c #C729EA",
"p. c #D828ED",
"a. c #C536ED",
"s. c #D533EB",
"d. c #D73AEB",
"f. c #C42AF3",
"g. c #CB2CF3",
"h. c #C328F4",
"j. c #D52BF2",
"k. c #D92BF5",
"l. c #C233F3",
"z. c #C439F5",
"x. c #CC35FD",
"c. c #C837F9",
"v. c #D334F3",
"b. c #D434FD",
"n. c #DB35FC",
"m. c #D33EFD",
"M. c #DB3BFC",
"N. c #D936F4",
"B. c #E62CEB",
"V. c #EC3DEC",
"C. c #E837EC",
"Z. c #F63EED",
"A. c #E52BF4",
"S. c #EB2CF4",
"D. c #E52DFC",
"F. c #EA29FA",
"G. c #EC32F5",
"H. c #ED3BF4",
"J. c #E434FC",
"K. c #EB34FC",
"L. c #ED3BFD",
"P. c #E338FA",
"I. c #F43BF5",
"U. c #F335FA",
"Y. c #F23AFB",
"T. c #FD3CFE",
"R. c #F537F5",
"E. c #F22FF9",
"W. c #D237DD",
"Q. c #9D55C1",
"!. c #A54DC2",
"~. c #AB55C8",
"^. c #B657C9",
"/. c #B847D8",
"(. c #BD57D4",
"). c #B348CF",
"_. c #966CC6",
"`. c #9774C7",
"'. c #AA67C8",
"]. c #BA66D2",
"[. c #B06FCE",
"{. c #C759D6",
"}. c #C851D6",
"|. c #C465DB",
" X c #C874D8",
".X c #CC6CD8",
"XX c #C94AE8",
"oX c #D649E7",
"OX c #CB59E9",
"+X c #D95AE6",
"@X c #CC48F5",
"#X c #D443FE",
"$X c #DC46FD",
"%X c #D44AFA",
"&X c #DA4BFC",
"*X c #D749F4",
"=X c #CE51F1",
"-X c #D851F7",
";X c #E949EB",
":X c #E957EB",
">X c #F754ED",
",X c #E24CFE",
"<X c #E947F9",
"1X c #F445F3",
"2X c #FD43F6",
"3X c #FD44FB",
"4X c #F54AFB",
"5X c #FC4CFE",
"6X c #F649F6",
"7X c #E954F8",
"8X c #F453F3",
"9X c #FB53F5",
"0X c #F552FC",
"qX c #FD53FE",
"wX c #F35AFC",
"eX c #FE5BFF",
"rX c #F55BF4",
"tX c #F645EE",
"yX c #CD66E6",
"uX c #D868E5",
"iX c #DB7BEA",
"pX c #D669F7",
"aX c #D975F6",
"sX c #CB76E3",
"dX c #E363E9",
"fX c #EB6BF5",
"gX c #E964F3",
"hX c #FD63FF",
"jX c #FD6BFE",
"kX c #F266F7",
"lX c #E877F7",
"zX c #F373FC",
"xX c #FD72FE",
"cX c #FC78FC",
"vX c #EA51DD",
"bX c #9083AA",
"nX c #B287BB",
"mX c #BF82DF",
"MX c #D28EEE",
"NX c #ED87F7",
"BX c #FD86FF",
"VX c #F288F9",
"CX c #E793F4",
"ZX c #FEB9FF",
"AX c #F1A5FB",
"SX c #CA8FD1",
"DX c None",
/* pixels */
"DXDXDXDXDXDXDXDXDXDXDXDXDXDXDXDXDXDXDXDXDXDXDXDXDXDXDXDXDXDXDXDXDXDXDXDXDXDXDXDXDXDXDXDXDXDXDXDXDXDXDXDXDXDXDXDXDXDXDXDXDXDXDXDXDXDXDXDXDXDXDXDXDXDXDX",
"DXDXDXDXDXDXDXDXDXDXDXDXDXDXDXDXDXDXDXDXDXDXDXDXDXDXDXDXDXDXDXDXDXDXDXDXDXDXDXDXDXDXDXDXDXDXDXDXDXDXDXDXDXDXDXDXDXDXDXDXDXDXDXDXDXDXDXDXDXDXDXDXDXDXDX",
"DXDXDXDXDXDXDXDXDXDXDXDXDXDXDXDXDXDXDXDXDXDXDXDXDXDXDXDXDXDXDXDXDXDXDXDXDXDXDXDXDXDXDXDXDXDXDXDXDXDXDXDXDXDXDXDXDXDXDXDXDXDXDXDXDXDXDXDXDXDXDXDXDXDXDX",
"DXDXDXDXDXDXDXDXDXDXDXDXDXDXDXDXDXDXDXDXDXDXDXDXDXDXDXDXDXDXDXDXDXDXDXDXDXDXDXDXDXDXDXDXDXDXDXDXDXDXDXDXDXDXDXDXDXDXDXDXDXDXDXDXDXDXDXDXDXDXDXDXDXDXDX",
"DXDXDXDXDXDXDXDXDXDXDXDXDXDXDXDXDXDXDXDXDXDXDXDXDXDXDXDXDXDXDXDXDXDXDXDXDXDXDXDXDXDXDXDXDXDXDXDXDXDXDXDXDXDXDXDXDXDXDXDXDXDXDXDXDXDXDXDXDXDXDXDXDXDXDX",
"DXDXDXDXDXDXDXDXDXDXDXDXDXDXDXDXDXDXDXDXDXDXDXDXDXDXDXDXDXDXDXDXDXDXDXDXDXDXDXDXDXDXDXDXDXDXDXDXDXDXDXDXDXDXDXDXDXDXDXDXDXDXDXDXDXDXDXDXDXDXDXDXDXDXDX",
"DXDXDXDXDXDXDXDXDXDXDXDXDXDXDXDXDXDXDXDXDXDXDXDXDXDXDXDXDXDXDXDXDXDXDXDXDXDXDXDXDXDXDXDXDXDXDXDXDXDXDXDXDXDXDXDXDXDXDXDXDXDXDXDXDXDXDXDXDXDXDXDXDXDXDX",
"DXDXDXDXDXDXDXDXDXDXDXDXDXDXDXDXDXDXDXDXDXDXDXDXDXDXDXDXDXDXDXDXDXDXDXDXDXDXDXDXDXDXDXDXDXDXDXDXDXDXDXDXDXDXDXDXDXDXDXDXDXDXDXDXDXDXDXDXDXDXDXDXDXDXDX",
"DXDXDXDXDXDXDXDXDXDXDXDXDXDXDXDXDXDXDXDXDXDXDXDXDXDXDXDXDXDXDXDXDXDXDXDXDXDXDXDXDXDXDXDXDXDXDXDXDXDXDXDXDXDXDXDXDXDXDXDXDXDXDXDXDXDXDXDXDXDXDXDXDXDXDX",
"DXDXDXDXDXDXDXDXDXDXDXDXDXDXDXDXDXDXDXDXDXDXDXDXDXDXDXDXDXDXDXDXDXDXDXDXY C DXDXDXDXDXDXDXDXDXDXDXDXDXDXDXDXDXDXDXDXDXDXDXDXDXDXDXDXDXDXDXDXDXDXDXDXDX",
"DXDXDXDXDXDXDXDXDXDXDXDXDXDXDXDXDXDXDXDXDXDXDXDXDXDXDXDXDXDXDXDXDXM b b ' { W P 9 #   DXDXDXDXDXDXDXDXDXDXDXDXDXDXDXDXDXDXDXDXDXDXDXDXDXDXDXDXDXDXDXDX",
"DXDXDXDXDXDXDXDXDXDXDXDXDXDXDXDXDXDXDXDXDXDXDXDXDXDXDXDXDXDXDXv { ] l M ' P E W R Y a #   DXDXDXDXDXDXDXDXDXDXDXDXDXDXDXDXDXDXDXDXDXDXDXDXDXDXDXDXDXDX",
"DXDXDXDXDXDXDXDXDXDXDXDXDXDXDXDXDXDXDXDXDXDXDXDXDXDXDXDXDX> I Y W b 3 a m L P L v L I l 7 9 . DXDXDXDXDXDXDXDXDXDXDXDXDXDXDXDXDXDXDXDXDXDXDXDXDXDXDXDX",
"DXDXDXDXDXDXDXDXDXDXDXDXDXDXDXDXDXDXDXDXDXDXDXDXDXDXDXp m 1 1 m P / W / +.} ) / / L v : n E 3 . DXDXDXDXDXDXDXDXDXDXDXDXDXDXDXDXDXDXDXDXDXDXDXDXDXDXDX",
"DXDXDXDXDXDXDXDXDXDXDXDXDXDXDXDXDXDXDXDXDXDXDXDXDXp p m m 2 i ) ^ L g % + DX& g e I I i p v m p O o DXDXDXDXDXDXDXDXDXDXDXDXDXDXDXDXDXDXDXDXDXDXDXDXDX",
"DXDXDXDXDXDXDXDXDXDXDXDXDXDXDXDXDXDXDXDXDXDXDXC bX[ s a m ) / ; o DXDXDXDX:.MXMXMXX.6 G _ v i b E C x - O DXDXDXDXDXDXDXDXDXDXDXDXDXDXDXDXDXDXDXDXDXDX",
"DXDXDXDXDXDXDXDXDXDXDXDXDXDXDXDXDXDXDXDXDXDXV ..A V p n _ t DXDXDXDXDXy CXAXaXpXpXNX X5 q  .h v ..*.*.*.[ O DXDXDXDXDXDXDXDXDXDXDXDXDXDXDXDXDXDXDXDXDX",
"DXDXDXDXDXDXDXDXDXDXDXDXDXDXDXDXDXDXDXDXDXDX] B B 0 x I & DXDXDXDXDXk AXiX(.@X=X%X/.yX|.$ 6 ) p M V A V A O DXDXDXDXDXDXDXDXDXDXDXDXDXDXDXDXDXDXDXDXDX",
"DXDXDXDXDXDXDXDXDXDXDXDXDXDXDXDXDXDXDXDXDXV A N ] 0 0 O DXDXDXDXDX` ZXNX(.=X%X%X@X-X=XOX~.o % [ A A A C R @ DXDXDXDXDXDXDXDXDXDXDXDXDXDXDXDXDXDXDXDXDX",
"DXDXDXDXDXDXDXDXDXDXDXDXDXDXDXDXDXDXDXDXDXn B ..A 0 s DXDXDXDXDXk ZXAXaXXX%X&X%X*X*X&X@XOXF DX7 ] A ] A V * DXDXDXDXDXDXDXDXDXDXDXDXDXDXDXDXDXDXDXDXDX",
"DXDXDXDXDXDXDXDXDXDXDXDXDXDXDXDXDXDXDXDXDXn ] A A x nXy DXDXDXk AXNXOXXX&X#X$X$X&X,XM.&X=X{.$ o R A T ] M 9 DXDXDXDXDXDXDXDXDXDXDXDXDXDXDXDXDXDXDXDXDX",
"DXDXDXDXDXDXDXDXDXDXDXDXDXDXDXDXDXDXDXDXs R M N N x nXSXDXDX5  X.X8.=X*X$X&X,X,X7X,X,X,X%XOX@.$ R ] ] ] M a DXDXDXDXDXDXDXDXDXDXDXDXDXDXDXDXDXDXDXDXDX",
"DXDXDXDXDXDXDXDXDXDXDXDXDXDXDXDXDXDXDXDXDX] x N N x 3.ZX2.w {.yXoX&X$Xm.#X#Xm.,X$X&X,X7X*X=XyXq s P ] N M x DXDXDXDXDXDXDXDXDXDXDXDXDXDXDXDXDXDXDXDXDX",
"DXDXDXDXDXDXDXDXDXDXDXDXDXDXDXDXDXDXDXDXDX[ R B C R &.CXCXlXoXd.,XM.c.m.m.e.l.a.*X$X,X$X&XXXlX>.r M P b C v DXDXDXDXDXDXDXDXDXDXDXDXDXDXDXDXDXDXDXDXDX",
"DXDXDXDXDXDXDXDXDXDXDXDXDXDXDXDXDXDXDXDXDXV E P  . .3.>.^.}.*X,XM.b.M.#Xc.e.e.q.a.-X%X%XoXXXaXmXh N M c [ s DXDXDXDXDXDXDXDXDXDXDXDXDXDXDXDXDXDXDXDXDX",
"DXDXDXDXDXDXDXDXDXDXDXDXDXDXDXDXDXDXDXDXDXa R |  . .+.-.).XX,XP.b.b.,Xa.e.r.e.z.q.a.%Xd.7XgX!.~ } { ' n Y @ DXDXDXDXDXDXDXDXDXDXDXDXDXDXDXDXDXDXDXDXDX",
"DXDXDXDXDXDXDXDXDXDXDXDXDXDXDXDXDXDXDXDXDXDXn  . .{ } o.!./.@X#Xl.%X#Xu.r.r.c.e.q.a.#X<XwX+X-.U +.} ' E n   DXDXDXDXDXDXDXDXDXDXDXDXDXDXDXDXDXDXDXDXDX",
"DXDXDXDXDXDXDXDXDXDXDXDXDXDXDXDXDXDXDXDXDXDX8 R E E } o.<./.q.z.z.-Xf.c.c.c.c.e.z.v.a.,X7X).G W { ' R R 7 DXDXDXDXDXDXDXDXDXDXDXDXDXDXDXDXDXDXDXDXDXDX",
"DXDXDXDXDXDXDXDXDXDXDXDXDXDXDXDXDXDXDXDXDXDXDXp m C E L J /.q.e.@X%X0.i.9.e.w.l.l.u.a.,X;X/.U } E  .' p o DXDXDXDXDXDXDXDXDXDXDXDXDXDXDXDXDXDXDXDXDXDX",
"DXDXDXDXDXDXDXDXDXDXDXDXDXDXDXDXDXDXDXDXDXDXDX7 - 7 p j J ).e.c.z.a.0.7.t.t.w.h.x.c.W.wX7X!.f z P I m @ DXDXDXDXDXDXDXDXDXDXDXDXDXDXDXDXDXDXDXDXDXDXDX",
"DXDXDXDXDXDXDXDXDXDXDXDXDXDXDXDXDXDXDXDXDXDXDX7 * @ - f $./.r.x.c.x.0.y.0.t.x.w.f.#Xu.wXjX).D c r = - o DXDXDXDXDXDXDXDXDXDXDXDXDXDXDXDXDXDXDXDXDXDXDX",
"DXDXDXDXDXDXDXDXDXDXDXDXDXDXDXDXDXDXDXDXDXDXDX- l - 7 y ,.XXc.b.h.h.a.0.0.c.x.9.y.l.d.d.hX{.S g % - 9 O DXDXDXDXDXDXDXDXDXDXDXDXDXDXDXDXDXDXDXDXDXDXDX",
"DXDXDXDXDXDXDXDXDXDXDXDXDXDXDXDXDXDXDXDXDXDXDX- z a i f 1.=Xv.b.h.9.9.9.f.f.w.w.h.y.N.s.W.zX-.e ; a v o DXDXDXDXDXDXDXDXDXDXDXDXDXDXDXDXDXDXDXDXDXDXDX",
"DXDXDXDXDXDXDXDXDXDXDXDXDXDXDXDXDXDXDXDXDXDXDXb l x t S uX;Xv.j.i.i.9.9.f.f.w.w.9.i.j.s.d.zX'.q a v p O DXDXDXDXDXDXDXDXDXDXDXDXDXDXDXDXDXDXDXDXDXDXDX",
"DXDXDXDXDXDXDXDXDXDXDXDXDXDXDXDXDXDXDXDXDXDXDXT z l e ;.oXs.N.n.g.f.u.9.f.f.w.f.i.g.i.N.d.7XsXk r l z 9 O DXDXDXDXDXDXDXDXDXDXDXDXDXDXDXDXDXDXDXDXDXDX",
"DXDXDXDXDXDXDXDXDXDXDXDXDXDXDXDXDXDXDXDXDXDXDXP , z f ].s.A.J.p.j.b.f.u.g.b.g.b.M.n.v.<XY.;XlX>.r c l n @ DXDXDXDXDXDXDXDXDXDXDXDXDXDXDXDXDXDXDXDXDXDX",
"DXDXDXDXDXDXDXDXDXDXDXDXDXDXDXDXDXDXDXDXDXDXDX} 3 a G ~.N.U.Y.p.n.n.g.u.v.M.j.n.k.i.p.<XY.V.dX Xs n b C O DXDXDXDXDXDXDXDXDXDXDXDXDXDXDXDXDXDXDXDXDXDX",
"DXDXDXDXDXDXDXDXDXDXDXDXDXDXDXDXDXDXDXDXDXDXDX} B 3 f (.N.F.K.P.n.M.u.i.s.n.j.J.k.i.p.P.Y.6XdXsXt c M ' O DXDXDXDXDXDXDXDXDXDXDXDXDXDXDXDXDXDXDXDXDXDX",
"DXDXDXDXDXDXDXDXDXDXDXDXDXDXDXDXDXDXDXDXDXDXDXP P p U iX*XG.H.H.J.J.j.g.N.J.p.J.D.p.p.k.G.4XdX Xt x  . .. DXDXDXDXDXDXDXDXDXDXDXDXDXDXDXDXDXDXDXDXDXDX",
"DXDXDXDXDXDXDXDXDXDXDXDXDXDXDXDXDXDXDXDXDXDXDXDXb { o.2.+XoX4XC.K.Y.k.v.A.L.k.J.D.k.B.K.K.;XfX[.I { bXV X DXDXDXDXDXDXDXDXDXDXDXDXDXDXDXDXDXDXDXDXDXDX",
"DXDXDXDXDXDXDXDXDXDXDXDXDXDXDXDXDXDXDXDXDXDXDXDXM } | _ ^.zXW.V.K.Y.J.L.K.G.J.J.K.A.A.F.I.:X^.5.3. .| * DXDXDXDXDXDXDXDXDXDXDXDXDXDXDXDXDXDXDXDXDXDXDX",
"DXDXDXDXDXDXDXDXDXDXDXDXDXDXDXDXDXDXDXDXDXDXDXDXDX+.+./ @.VXjX9XB.S.K.Y.G.A.D.D.F.F.F.S.V.oX>.=.*. .v . DXDXDXDXDXDXDXDXDXDXDXDXDXDXDXDXDXDXDXDXDXDXDX",
"DXDXDXDXDXDXDXDXDXDXDXDXDXDXDXDXDXDXDXDXDXDXDXDXDXm { W ~ VXcX;XB.S.A.A.B.B.D.D.F.F.E.U.V.:X:.| ) Y = DXDXDXDXDXDXDXDXDXDXDXDXDXDXDXDXDXDXDXDXDXDXDXDX",
"DXDXDXDXDXDXDXDXDXDXDXDXDXDXDXDXDXDXDXDXDXDXDXDXDX= 3 v &.NX>XV.R.S.S.S.G.G.S.A.F.S.E.R.V.fX-.I v : . DXDXDXDXDXDXDXDXDXDXDXDXDXDXDXDXDXDXDXDXDXDXDXDX",
"DXDXDXDXDXDXDXDXDXDXDXDXDXDXDXDXDXDXDXDXDXDXDXDXDX; > i ;.BX;X1XT.E.Y.I.B.C.I.Y.U.E.E.I.1XzX>.s : # . DXDXDXDXDXDXDXDXDXDXDXDXDXDXDXDXDXDXDXDXDXDXDXDX",
"DXDXDXDXDXDXDXDXDXDXDXDXDXDXDXDXDXDXDXDXDXDXDXDXDXr 1 f ^.zXC.T.T.T.U.C.1X2XB.R.U.U.G.4X4XkX2.e : = + DXDXDXDXDXDXDXDXDXDXDXDXDXDXDXDXDXDXDXDXDXDXDXDX",
"DXDXDXDXDXDXDXDXDXDXDXDXDXDXDXDXDXDXDXDXDXDXDXDXDXr q w +X7XV.3XE.3XY.H.qXjXV.C.R.I.H.5X4X:X Xy 8 3 - DXDXDXDXDXDXDXDXDXDXDXDXDXDXDXDXDXDXDXDXDXDXDXDX",
"DXDXDXDXDXDXDXDXDXDXDXDXDXDXDXDXDXDXDXDXDXDXDXDXs g t J +X;X2XT.3XU.I.6XV.cXjXqXtX1X5XhX5X;XNXH 8 a v . DXDXDXDXDXDXDXDXDXDXDXDXDXDXDXDXDXDXDXDXDXDXDX",
"DXDXDXDXDXDXDXDXDXDXDXDXDXDXDXDXDXDXDXDXDXDXDXDXW t f !.;X2X2XT.T.3X2XT.<X0XjXBXcXjXrXtXZ.;XcX'.q a m * DXDXDXDXDXDXDXDXDXDXDXDXDXDXDXDXDXDXDXDXDXDXDX",
"DXDXDXDXDXDXDXDXDXDXDXDXDXDXDXDXDXDXDXDXDXDXDXDX/ d S !.:XtXV.2X4X2X2X2X4X<X;X:XvXvX;X6X2XtXjXiXf u L * DXDXDXDXDXDXDXDXDXDXDXDXDXDXDXDXDXDXDXDXDXDXDX",
"DXDXDXDXDXDXDXDXDXDXDXDXDXDXDXDXDXDXDXDXDXDXDXDX^ d w '.+X>X8XhXhXqX2XZ.2X5XeXhXrX9XtXR.3X1XjXiXf u E = DXDXDXDXDXDXDXDXDXDXDXDXDXDXDXDXDXDXDXDXDXDXDX",
"DXDXDXDXDXDXDXDXDXDXDXDXDXDXDXDXDXDXDXDXDXDXDXDXW L < sXlXhXxXhX<X1X2X2X2X2X2X4XeXeXqX5X6X;XkXNXt p { * DXDXDXDXDXDXDXDXDXDXDXDXDXDXDXDXDXDXDXDXDXDXDX",
"DXDXDXDXDXDXDXDXDXDXDXDXDXDXDXDXDXDXDXDXDXDXDXDXc E j [.VXcXjX6X0X5X5X5X2X2X5X5X5X5XeXhXhXfXVX Xj E Y O DXDXDXDXDXDXDXDXDXDXDXDXDXDXDXDXDXDXDXDXDXDXDX",
"DXDXDXDXDXDXDXDXDXDXDXDXDXDXDXDXDXDXDXDXDXDXDXDX@ { / X.uXxX;X4X5X4X3X5X5X5X5X5X5X<X5XeXxXBXNX>.`  .p   DXDXDXDXDXDXDXDXDXDXDXDXDXDXDXDXDXDXDXDXDXDXDX",
"DXDXDXDXDXDXDXDXDXDXDXDXDXDXDXDXDXDXDXDXDXDXDXDX  n | ~ ^.gX:XqXqX5X5X6X4X0XqX0X0X0XqX6X>XzX.X~ _ L # DXDXDXDXDXDXDXDXDXDXDXDXDXDXDXDXDXDXDXDXDXDXDXDX",
"DXDXDXDXDXDXDXDXDXDXDXDXDXDXDXDXDXDXDXDXDXDXDXDX  * m _ ;.:XwX8X8X9XrX9X0X0X0X0X7XrX8X>X>XdX2._ I :   DXDXDXDXDXDXDXDXDXDXDXDXDXDXDXDXDXDXDXDXDXDXDXDX",
"DXDXDXDXDXDXDXDXDXDXDXDXDXDXDXDXDXDXDXDXDXDXDXDXu > 1 f ;.gX7XkXdX{.uX:X>X9X9X>XdX.X+XrX9XgX~.S t % ; . DXDXDXDXDXDXDXDXDXDXDXDXDXDXDXDXDXDXDXDXDXDXDX",
"DXDXDXDXDXDXDXDXDXDXDXDXDXDXDXDXDXDXDXDXDXDXDXDX[ u 2 w $.:XwXrX1.;.,.(.kX9XrX+X2.2.$.}.wXrX{.w e r Y s DXDXDXDXDXDXDXDXDXDXDXDXDXDXDXDXDXDXDXDXDXDXDX",
"DXDXDXDXDXDXDXDXDXDXDXDXDXDXDXDXDXDXDXDXDXDXDX' W r 2 f (.dXwXoXF ~ :.<.(.pXuX2.:.&.#.%.kXrXdXk q 1 Y ` 7 DXDXDXDXDXDXDXDXDXDXDXDXDXDXDXDXDXDXDXDXDXDX",
"DXDXDXDXDXDXDXDXDXDXDXDXDXDXDXDXDXDXDXDXDXDXDXv W I d k sXlXfXpX[._ o.O.,.iX^.K ) ` 2.|.fXfXuX;.q W W j Z DXDXDXDXDXDXDXDXDXDXDXDXDXDXDXDXDXDXDXDXDXDX",
"DXDXDXDXDXDXDXDXDXDXDXDXDXDXDXDXDXDXDXDXDXDXDX= % j j f -.,.$.,.Q.! ! X.$.lX(.@.G ! -.,.,.,.-.~ G g 1 < DXDXDXDXDXDXDXDXDXDXDXDXDXDXDXDXDXDXDXDXDXDXDX",
"DXDXDXDXDXDXDXDXDXDXDXDXDXDXDXDXDXDXDXDXDXDXDXDXy ) +.o.X.X.X.X.K X.X.O.~.(.].~.:.X.X.-.X.~ _ :.+._ g % DXDXDXDXDXDXDXDXDXDXDXDXDXDXDXDXDXDXDXDXDXDXDX",
"DXDXDXDXDXDXDXDXDXDXDXDXDXDXDXDXDXDXDXDXDXDXDXDXI U ( o.+.4.O.+._._.`.`.[.'.[.Q._._.O.`.`.5.`.5.4.+.^ DXDXDXDXDXDXDXDXDXDXDXDXDXDXDXDXDXDXDXDXDXDXDXDX",
"DXDXDXDXDXDXDXDXDXDXDXDXDXDXDXDXDXDXDXDXDXDXDXZ U m L D D S 3 D D S D L D D D D D D D d d S d d j g L j DXDXDXDXDXDXDXDXDXDXDXDXDXDXDXDXDXDXDXDXDXDXDX",
"DXDXDXDXDXDXDXDXDXDXDXDXDXDXDXDXDXDXDXDXDXl Z m n I I I L I I ^ ! ! W ! ! Q Q Q Q ( ( Q ! ! ! ^ ^ / W I I I DXDXDXDXDXDXDXDXDXDXDXDXDXDXDXDXDXDXDXDXDX",
"DXDXDXDXDXDXDXDXDXDXDXDXDXDXDXDXDXDXDXDXDXDXDXDXDXDXDXDXDXDXDX2 < 1 ; < 1 1 1 1 < DXDXDXDXDXDXDXDXDXDXDXDXDXDXDXDXDXDXDXDXDXDXDXDXDXDXDXDXDXDXDXDXDXDX",
"DXDXDXDXDXDXDXDXDXDXDXDXDXDXDXDXDXDXDXDXDXDXDXDXDXDXDXDXDXDXDXDXDXDXDXDXDXDXDXDXDXDXDXDXDXDXDXDXDXDXDXDXDXDXDXDXDXDXDXDXDXDXDXDXDXDXDXDXDXDXDXDXDXDXDX",
"DXDXDXDXDXDXDXDXDXDXDXDXDXDXDXDXDXDXDXDXDXDXDXDXDXDXDXDXDXDXDXDXDXDXDXDXDXDXDXDXDXDXDXDXDXDXDXDXDXDXDXDXDXDXDXDXDXDXDXDXDXDXDXDXDXDXDXDXDXDXDXDXDXDXDX",
"DXDXDXDXDXDXDXDXDXDXDXDXDXDXDXDXDXDXDXDXDXDXDXDXDXDXDXDXDXDXDXDXDXDXDXDXDXDXDXDXDXDXDXDXDXDXDXDXDXDXDXDXDXDXDXDXDXDXDXDXDXDXDXDXDXDXDXDXDXDXDXDXDXDXDX",
"DXDXDXDXDXDXDXDXDXDXDXDXDXDXDXDXDXDXDXDXDXDXDXDXDXDXDXDXDXDXDXDXDXDXDXDXDXDXDXDXDXDXDXDXDXDXDXDXDXDXDXDXDXDXDXDXDXDXDXDXDXDXDXDXDXDXDXDXDXDXDXDXDXDXDX",
"DXDXDXDXDXDXDXDXDXDXDXDXDXDXDXDXDXDXDXDXDXDXDXDXDXDXDXDXDXDXDXDXDXDXDXDXDXDXDXDXDXDXDXDXDXDXDXDXDXDXDXDXDXDXDXDXDXDXDXDXDXDXDXDXDXDXDXDXDXDXDXDXDXDXDX",
"DXDXDXDXDXDXDXDXDXDXDXDXDXDXDXDXDXDXDXDXDXDXDXDXDXDXDXDXDXDXDXDXDXDXDXDXDXDXDXDXDXDXDXDXDXDXDXDXDXDXDXDXDXDXDXDXDXDXDXDXDXDXDXDXDXDXDXDXDXDXDXDXDXDXDX",
"DXDXDXDXDXDXDXDXDXDXDXDXDXDXDXDXDXDXDXDXDXDXDXDXDXDXDXDXDXDXDXDXDXDXDXDXDXDXDXDXDXDXDXDXDXDXDXDXDXDXDXDXDXDXDXDXDXDXDXDXDXDXDXDXDXDXDXDXDXDXDXDXDXDXDX",
"DXDXDXDXDXDXDXDXDXDXDXDXDXDXDXDXDXDXDXDXDXDXDXDXDXDXDXDXDXDXDXDXDXDXDXDXDXDXDXDXDXDXDXDXDXDXDXDXDXDXDXDXDXDXDXDXDXDXDXDXDXDXDXDXDXDXDXDXDXDXDXDXDXDXDX",
"DXDXDXDXDXDXDXDXDXDXDXDXDXDXDXDXDXDXDXDXDXDXDXDXDXDXDXDXDXDXDXDXDXDXDXDXDXDXDXDXDXDXDXDXDXDXDXDXDXDXDXDXDXDXDXDXDXDXDXDXDXDXDXDXDXDXDXDXDXDXDXDXDXDXDX"
};
