/* XPM */
static char *result[] = {
/* columns rows colors chars-per-pixel */
"77 77 75 1 ",
"  c black",
". c #1D0026",
"X c #24002B",
"o c #201026",
"O c #28162B",
"+ c #2E0037",
"@ c #33013B",
"# c #340E39",
"$ c #331D36",
"% c #341239",
"& c #361E39",
"* c #360041",
"= c #380342",
"- c #3A0F42",
"; c #3A1042",
": c #3D1D42",
"> c #3D2143",
", c #470052",
"< c #480052",
"1 c #4A005C",
"2 c #4E2C52",
"3 c #502C52",
"4 c #512B5A",
"5 c #4B0060",
"6 c #520061",
"7 c #610171",
"8 c #64017B",
"9 c #69017B",
"0 c #512961",
"q c #5B3263",
"w c #67396E",
"e c #6D377D",
"r c #733D7C",
"t c #6C0081",
"y c #754081",
"u c #7A4384",
"i c #BC01E5",
"p c #C701EE",
"a c #CB01EE",
"s c #CC00F2",
"d c #D200F5",
"f c #D600FA",
"g c #D900FC",
"h c #D413F4",
"j c #DA13FA",
"k c #D737F4",
"l c #D933F5",
"z c #D73AF4",
"x c #DD3CF6",
"c c #DE35FA",
"v c #DE3CF9",
"b c #E035FC",
"n c #E13DFC",
"m c #DD43F6",
"M c #DA4DF3",
"N c #DF47F8",
"B c #E440FD",
"V c #E24BFA",
"C c #E150F7",
"Z c #E351F9",
"A c #E851FD",
"S c #CD6CE7",
"D c #CE6CE8",
"F c #D06FE7",
"G c #DF78F4",
"H c #E26AF5",
"J c #E56CF8",
"K c #E96EFB",
"L c #E37BF6",
"P c #E77EF9",
"I c #E97EFA",
"U c #E780F9",
"Y c #EB81FC",
"T c #F085FE",
"R c None",
/* pixels */
"RRRRRRRRRRRRRRRRRRRRRRRRRRRRRRRRRRRRRRRRRRRRRRRRRRRRRRRRRRRRRRRRRRRRRRRRRRRRR",
"RRRRRRRRRRRRRRRRRRRRRRRRRRRRRRRRRRRRRRRRRRRRRRRRRRRRRRRRRRRRRRRRRRRRRRRRRRRRR",
"RRRRRRRRRRRRRRRRRRRRRRRRRRRRRRRRRRRRRRRRRRRRRRRRRRRRRRRRRRRRRRRRRRRRRRRRRRRRR",
"RRRRRRRRRRRRRRRRRRRRRRRRRRRRRRRRRRRRRRRRRRRRRRRRRRRRRRRRRRRRRRRRRRRRRRRRRRRRR",
"RRRRRRRRRRRRRRRRRRRRRPUPPYPPPPPPPPPPPPUPPPPPIICxvxnhdddsRRRRRRRRRRRRRRRRRRRRR",
"RRRRRRRRRRRRRRRRRRRRRPYYYYYYYYYYYYYYYYYYYYYYYICnnmbjfffdaRRRRRRRRRRRRRRRRRRRR",
"RRRRRRRRRRRRRRRRRRRRRPYYYYYYYYYYYYYYYYYYIYIIYIVnnnnjfffdsRRRRRRRRRRRRRRRRRRRR",
"RRRRRRRRRRRRRRRRRRRRRYTTYTTTYTTTTYTYYIYYYTTTTTABnBnjggggRRRRRRRRRRRRRRRRRRRRR",
"RRRRRRRRRRRRRRRRRPULr$&&&&&&&&&&&&&&&&&&&&&&&&%##%#@@@@@9adaaRRRRRRRRRRRRRRRR",
"RRRRRRRRRRRRRRRPPYYPr                                   9dffdsRRRRRRRRRRRRRRR",
"RRRRRRRRRRRRRRRLYYYUy                                   9dffdsRRRRRRRRRRRRRRR",
"RRRRRRRRRRRRRRRYTTTYu                                   tggggdRRRRRRRRRRRRRRR",
"RRRRRRRRRRRRRRRw2332O                                   X<<<<7RRRRRRRRRRRRRRR",
"RRRRRRRRRRYYYYU4                                             1sfdddRRRRRRRRRR",
"RRRRRRRRRRYUYYPq                                             6dfffdRRRRRRRRRR",
"RRRRRRRRRRYTYYYq                                             6fgffdRRRRRRRRRR",
"RRRRRRRRRRSSFFS4                                             1iiiiiRRRRRRRRRR",
"RRRRRPPPYGe0000o                                             .15558sdddpRRRRR",
"RRRRRPYYYU>                                                       *sgffdRRRRR",
"RRRRRPPYYG>                                                       *sfffdRRRRR",
"RRRRRIYYYU>                                                       *sffgdRRRRR",
"RRRRRIYYYG>                                                       *sgffdRRRRR",
"RRRRRIYYYU>                                                       *sgffdRRRRR",
"RRRRRIYYYL>                                                       *sfffdRRRRR",
"RRRRRIYYYL>                                                       *sfffdRRRRR",
"RRRRRIYYTL>                                                       =hjjjhRRRRR",
"RRRRRIYYYG>                                                       -knnnvRRRRR",
"RRRRRIYYYL>                                                       ;znnnxRRRRR",
"RRRRRIYYYL>                                                       ;zBnnvRRRRR",
"RRRRRIYYYL>                                                       ;znvnxRRRRR",
"RRRRRYYYYG>                                                       ;znnnxRRRRR",
"RRRRRIYYYU>                                                       ;zBnBxRRRRR",
"RRRRRIYYYL>                                                       ;znnmnRRRRR",
"RRRRRIIIYL>                                                       ;zBBBmRRRRR",
"RRRRRZVCAM;                                                       :HKKKJRRRRR",
"RRRRRxvvnk;                                                       2PYYYYRRRRR",
"RRRRRxBBnz;                                                       >LTIIPRRRRR",
"RRRRRxnvnz;                                                       >LIYYIRRRRR",
"RRRRRvnnnz;                                                       2LTIYPRRRRR",
"RRRRRvnnnz;                                                       &LYYYPRRRRR",
"RRRRRvnnBz;                                                       >LPPIIRRRRR",
"RRRRRnnvbz;                                                       2GYYYIRRRRR",
"RRRRRvnnnx;                                                       2LYYIIRRRRR",
"RRRRRvBvnz;                                                       &LYYYPRRRRR",
"RRRRRvBvnz-                                                       >LYYYIRRRRR",
"RRRRRvBvnz;                                                       >LTYIIRRRRR",
"RRRRRvnvnz;                                                       2LIYYPRRRRR",
"RRRRRvBvnz;                                                       &LYYYPRRRRR",
"RRRRRvnvnz;                                                       >LYYYPRRRRR",
"RRRRRvnnBz;                                                       >LYYYIRRRRR",
"RRRRRvnnnk-                                                       2LTYIIRRRRR",
"RRRRRhjjjh=                                                       &LIYYPRRRRR",
"RRRRRdfffs*                                                       >LYYYPRRRRR",
"RRRRRdfffs*                                                       >LYYYPRRRRR",
"RRRRRdfffs*                                                       2LYYYPRRRRR",
"RRRRRdfffs*                                                       &LYYYPRRRRR",
"RRRRRdfffs*                                                       >LYYYPRRRRR",
"RRRRRdfffs*                                                       >LYYYPRRRRR",
"RRRRRdfffs*                                                       2LYYYYRRRRR",
"RRRRRdfffs*                                                       &HKKKKRRRRR",
"RRRRRffffs*                                                       ;NVBBVRRRRR",
"RRRRRdfffs*                                                       ;znnvxRRRRR",
"RRRRRdfffs*                                                       ;xBvBmRRRRR",
"RRRRRdfffs*                                                       ;lbcbcRRRRR",
"RRRRRdfffs*                                                       =hjjjhRRRRR",
"RRRRRdfffs*                                                       *dfffdRRRRR",
"RRRRRdfffs*                                                       =sfffdRRRRR",
"RRRRRdfffs*                                                       =dfffdRRRRR",
"RRRRRdfffs*                                                       *sfffdRRRRR",
"RRRRRdfffs*                                                       *sgffdRRRRR",
"RRRRRdfdgs*                                                       *sgffdRRRRR",
"RRRRRdffgs@                                                       *sfdfdRRRRR",
"RRRRRadddp+                                                       +sdddpRRRRR",
"RRRRRRRRRRRRRRRRRRRRRRRRRRRRRRRRRRRRRRRRRRRRRRRRRRRRRRRRRRRRRRRRRRRRRRRRRRRRR",
"RRRRRRRRRRRRRRRRRRRRRRRRRRRRRRRRRRRRRRRRRRRRRRRRRRRRRRRRRRRRRRRRRRRRRRRRRRRRR",
"RRRRRRRRRRRRRRRRRRRRRRRRRRRRRRRRRRRRRRRRRRRRRRRRRRRRRRRRRRRRRRRRRRRRRRRRRRRRR",
"RRRRRRRRRRRRRRRRRRRRRRRRRRRRRRRRRRRRRRRRRRRRRRRRRRRRRRRRRRRRRRRRRRRRRRRRRRRRR"
};
