/* XPM */
static char *result[] = {
/* columns rows colors chars-per-pixel */
"75 75 154 2 ",
"   c black",
".  c #010101",
"X  c gray2",
"o  c #0D0C0D",
"O  c #121112",
"+  c #171617",
"@  c #1A191A",
"#  c #262526",
"$  c #4D494B",
"%  c #4D494C",
"&  c #5F5A5D",
"*  c #736D71",
"=  c #80797D",
"-  c #827B80",
";  c #827C80",
":  c #8C868B",
">  c #A29A9F",
",  c #A69DA3",
"<  c #A69EA3",
"1  c #B2A9AF",
"2  c #B2A9B0",
"3  c #B4ABB1",
"4  c #BAB1B7",
"5  c #C9BFC6",
"6  c #FFA5E3",
"7  c #FFA7E3",
"8  c #FFA9E3",
"9  c #FFABE3",
"0  c #FFA9E4",
"q  c #FFAAE4",
"w  c #FFABE4",
"e  c #FFAAE5",
"r  c #FFABE6",
"t  c #FFACE5",
"y  c #FFADE5",
"u  c #FFAEE5",
"i  c #FFAFE5",
"p  c #FFAEE6",
"a  c #FFAFE6",
"s  c #FFB0E6",
"d  c #FFB1E6",
"f  c #FFB2E6",
"g  c #FFB2E7",
"h  c #FFB3E7",
"j  c #FFB5E6",
"k  c #FFB4E7",
"l  c #FFB5E7",
"z  c #FFB7E7",
"x  c #FFB4E8",
"c  c #FFB5E8",
"v  c #FFB6E8",
"b  c #FFB7E8",
"n  c #FFB6E9",
"m  c #FFB8E8",
"M  c #FFB8E9",
"N  c #FFB9E9",
"B  c #FFBAE9",
"V  c #FFBBE9",
"C  c #FFBAEA",
"Z  c #FFBBEA",
"A  c #FFBCEA",
"S  c #FFBDEA",
"D  c #FFBEEA",
"F  c #FFBEEB",
"G  c #FFBFEB",
"H  c #C9C0C7",
"J  c #D9CED5",
"K  c #FFC0EB",
"L  c #FFC1EB",
"P  c #FFC2EB",
"I  c #FFC1EC",
"U  c #FFC2EC",
"Y  c #FFC3EC",
"T  c #FFC3ED",
"R  c #FFC4EC",
"E  c #FFC5EC",
"W  c #FFC5ED",
"Q  c #FFC6ED",
"!  c #FFC7ED",
"~  c #FFC8ED",
"^  c #FFC8EE",
"/  c #FFC9EE",
"(  c #FFCAEE",
")  c #FFCBEE",
"_  c #FFCBEF",
"`  c #FFCCEE",
"'  c #FFCCEF",
"]  c #FFCDEF",
"[  c #FFCEEF",
"{  c #E5DAE2",
"}  c #E5DBE2",
"|  c #E8DCE4",
" . c #E8DDE5",
".. c #FFCEF0",
"X. c #FFCFF0",
"o. c #FFD0F0",
"O. c #FFD0F1",
"+. c #FFD1F1",
"@. c #FFD2F1",
"#. c #FFD3F1",
"$. c #FFD4F1",
"%. c #FFD5F1",
"&. c #FFD5F2",
"*. c #FFD6F2",
"=. c #FFD7F2",
"-. c #FFD8F2",
";. c #FFD8F3",
":. c #FFD9F3",
">. c #FFDAF3",
",. c #FFDBF3",
"<. c #FFDBF4",
"1. c #FFDCF4",
"2. c #FFDDF4",
"3. c #FFDEF4",
"4. c #FFDEF5",
"5. c #FFDFF5",
"6. c #EDE1E9",
"7. c #EDE1EA",
"8. c #EDE2EA",
"9. c #F2E6EE",
"0. c #FFE0F5",
"q. c #FFE1F5",
"w. c #FFE2F5",
"e. c #FFE1F6",
"r. c #FFE2F6",
"t. c #FFE3F6",
"y. c #FFE4F6",
"u. c #FFE4F7",
"i. c #FFE5F7",
"p. c #FFE6F7",
"a. c #FFE7F7",
"s. c #F7EBF4",
"d. c #FFE8F7",
"f. c #FFE7F8",
"g. c #FFE8F8",
"h. c #FFE9F8",
"j. c #FFEAF8",
"k. c #FFEBF8",
"l. c #FFEAF9",
"z. c #FFEBF9",
"x. c #FFECF9",
"c. c #FFEDF9",
"v. c #FFECFA",
"b. c #FFEDFA",
"n. c #FFEEFA",
"m. c #FFEFFA",
"M. c #FFF0FA",
"N. c #FFF0FB",
"B. c #FFF1FB",
"V. c #FFF2FB",
"C. c #FFF3FB",
"Z. c #FFF3FC",
"A. c #FFF4FC",
"S. c None",
/* pixels */
"S.S.S.S.S.S.S.S.S.S.S.S.S.S.S.S.S.S.S.S.S.S.S.S.S.S.S.S.S.S.S.S.S.S.S.S.S.S.S.S.S.S.S.S.S.S.S.S.S.S.S.S.S.S.S.S.S.S.S.S.S.S.S.S.S.S.S.S.S.S.S.S.S.S.S.",
"S.S.S.S.S.S.S.S.S.S.S.S.S.S.S.S.S.S.S.S.S.S.S.S.S.S.S.S.S.S.S.S.S.S.S.S.S.S.S.S.S.S.S.S.S.S.S.S.S.S.S.S.S.S.S.S.S.S.S.S.S.S.S.S.S.S.S.S.S.S.S.S.S.S.S.",
"S.S.S.S.S.S.S.S.S.S.S.S.S.S.S.S.S.S.S.S.S.S.S.S.S.S.S.S.S.S.S.S.S.S.S.S.S.S.8 8 8 8 8 8 8 8 8 8 S.S.S.S.S.S.S.S.S.S.S.S.S.S.S.S.S.S.S.S.S.S.S.S.S.S.S.",
"S.S.S.S.S.S.S.S.S.S.S.S.S.S.S.S.S.S.S.S.S.S.S.S.S.S.S.S.S.S.S.S.S.S.S.S.S.f c c c c c c c c c c x S.S.S.S.S.S.S.S.S.S.S.S.S.S.S.S.S.S.S.S.S.S.S.S.S.S.",
"S.S.S.S.S.S.S.S.S.S.S.S.S.S.S.S.S.S.S.S.S.S.S.S.S.S.S.S.S.S.S.S.S.S.u u u G o.o.o.o.o.o.o.o.o.o.R q q S.S.S.S.S.S.S.S.S.S.S.S.S.S.S.S.S.S.S.S.S.S.S.S.",
"S.S.S.S.S.S.S.S.S.S.S.S.S.S.S.S.S.S.S.S.S.S.S.S.S.S.S.S.S.S.S.S.S.l ' ' ' [ o.o.[ X.o.o.o.o.o.o.R q q q S.S.S.S.S.S.S.S.S.S.S.S.S.S.S.S.S.S.S.S.S.S.S.",
"S.S.S.S.S.S.S.S.S.S.S.S.S.S.S.S.S.S.S.S.S.S.S.S.S.S.S.S.S.S.S.S.S #.i.f.g.g.g.g.a.f.g.g.g.g.2.=.#.) ) ) S S.S.S.S.S.S.S.S.S.S.S.S.S.S.S.S.S.S.S.S.S.S.",
"S.S.S.S.S.S.S.S.S.S.S.S.S.S.S.S.S.S.S.S.S.S.S.S.S.S.S.S.S.S.S.S $.h.N.V.V.V.V.V.V.V.V.V.V.V.q.:.:.:.:.:.] S S.S.S.S.S.S.S.S.S.S.S.S.S.S.S.S.S.S.S.S.S.",
"S.S.S.S.S.S.S.S.S.S.S.S.S.S.S.S.S.S.S.S.S.S.S.S.S.S.S.S.S.S.m $.l.C.V.V.V.V.V.V.V.V.V.V.V.V.p.0.0.0.>.:.:.X.b S.S.S.S.S.S.S.S.S.S.S.S.S.S.S.S.S.S.S.S.",
"S.S.S.S.S.S.S.S.S.S.S.S.S.S.S.S.S.S.S.S.S.S.S.S.S.S.S.S.S.h &.l.V.V.V.V.V.V.V.V.V.V.V.V.V.V.V.N.m.m.1.:.:.;.#.i q 8 S.S.S.S.S.S.S.S.S.S.S.S.S.S.S.S.S.",
"S.S.S.S.S.S.S.S.S.S.S.S.S.S.S.S.S.S.S.S.S.S.S.S.S.S.w q m &.:.l.V.V.V.V.V.V.V.V.V.V.V.V.V.V.V.V.V.m.1.:.:.:.$.i q 8 S.S.S.S.S.S.S.S.S.S.S.S.S.S.S.S.S.",
"S.S.S.S.S.S.S.S.S.S.S.S.S.S.S.S.S.S.S.S.S.S.S.S.S.S.q B X.<.h.M.V.V.V.V.V.V.V.V.V.V.V.V.V.V.V.V.V.m.1.:.:.:.$.i q 8 S.S.S.S.S.S.S.S.S.S.S.S.S.S.S.S.S.",
"S.S.S.S.S.S.S.S.S.S.S.S.S.S.S.S.S.S.S.S.S.S.S.S.S.S.q L 2.a.B.V.V.V.V.V.V.V.V.V.V.V.V.V.V.V.V.V.V.N.i.1.:.:.=.R L C 8 S.S.S.S.S.S.S.S.S.S.S.S.S.S.S.S.",
"S.S.S.S.S.S.S.S.S.S.S.S.S.S.S.S.S.S.S.S.S.S.S.S.S.S.q L 0.V.V.V.J 1 4 s.V.V.| 2 3  .V.V.V.V.V.V.V.V.M.0.:.:.:.:.:.L q q S.S.S.S.S.S.S.S.S.S.S.S.S.S.S.",
"S.S.S.S.S.S.S.S.S.S.S.S.S.S.S.S.S.S.S.S.S.S.S.S.S.S.q L 0.V.V.6.*   @ { V.V.1 . X > 9.V.V.V.V.V.V.V.C.q.:.:.:.:.:.L q q S.S.S.S.S.S.S.S.S.S.S.S.S.S.S.",
"S.S.S.S.S.S.S.S.S.S.S.S.S.S.S.S.S.S.S.S.S.S.S.S.S.S.q L 0.V.V.& o   @ } Z.V.1   . O : Z.V.V.V.V.V.V.V.0.:.:.:.:.:.L q q S.S.S.S.S.S.S.S.S.S.S.S.S.S.S.",
"S.S.S.S.S.S.S.S.S.S.S.S.S.S.S.S.S.S.S.S.S.S.S.S.S.S.q L e.7.& +     @ } Z.V.1       # ; V.V.V.V.V.V.V.0.:.:.:.:.:.L q q S.S.S.S.S.S.S.S.S.S.S.S.S.S.S.",
"S.S.S.S.S.S.S.S.S.S.S.S.S.S.S.S.S.S.S.S.S.S.S.S.S.S.q L e.{ @       @ } Z.V.1         $ V.V.V.V.V.V.V.q.:.:.:.:.:.L q q S.S.S.S.S.S.S.S.S.S.S.S.S.S.S.",
"S.S.S.S.S.S.S.S.S.S.S.S.S.S.S.S.S.S.S.S.S.S.S.S.S.S.w U 0.6.& $ $ $ & 8.V.V.5 $ $ $ $ - m.m.m.m.m.m.m.t.<.:.:.:.:.L q q S.S.S.S.S.S.S.S.S.S.S.S.S.S.S.",
"S.S.S.S.S.S.S.S.S.S.S.S.S.S.S.S.S.S.S.S.0 s k k f f f ! r.V.V.V.V.V.V.Z.V.V.V.V.V.V.V.n.p.t.w.w.r.w.w.w.2.:.:.:.:.R i a S.S.S.S.S.S.S.S.S.S.S.S.S.S.S.",
"S.S.S.S.S.S.S.S.S.S.S.S.S.S.S.S.S.S.q 0 e ~ &.&.&.&.&.0.n.V.V.Z.Z.Z.V.V.V.V.V.V.V.V.N.x.t.R V S D N N N ~ -.:.:.:.=.$.O.a S.S.S.S.S.S.S.S.S.S.S.S.S.S.",
"S.S.S.S.S.S.S.S.S.S.S.S.S.S.S.S.S.8 k ) ) e.l.l.l.l.l.i.0.r.M.V.Z.H $ $ $ , V.Z.V.#.W R E -.-.:.:.-.-.-.) Q :.:.:.:.:.$.i S.S.S.S.S.S.S.S.S.S.S.S.S.S.",
"S.S.S.S.S.S.S.S.S.S.S.S.S.S.S.S.S.8 m >.u.n.V.V.V.V.V.i.:.1.m.V.V.2       = V.V.c.R h V o.h.c.c.c.c.c.h.>.) ! ..*.:.:.$.i S.S.S.S.S.S.S.S.S.S.S.S.S.S.",
"S.S.S.S.S.S.S.S.S.S.S.S.S.S.S.S.S.9 B e.M.V.V.V.V.C.c.r.:.1.m.V.V.5 % % % < x.4.-./ Y X.k.B.V.C.C.C.C.c.h.1.Y ( &.:.:.$.i S.S.S.S.S.S.S.S.S.S.S.S.S.S.",
"S.S.S.S.S.S.S.S.S.S.S.S.S.S.S.S.q u R m.V.V.V.B.M.B.0.:.:.1.m.V.V.Z.A.A.A.C.5.h h -.d.k.V.V.V.V.V.V.V.V.c.d.i.>.:.:.:.$.i S.S.S.S.S.S.S.S.S.S.S.S.S.S.",
"S.S.S.S.S.S.S.S.S.S.S.S.S.S.S.S.q ( c.V.V.V.V.z.1.1.>.:.>.4.M.V.V.V.V.A.Z.C.5.h h 1.m.B.V.V.V.V.V.V.V.V.B.n.a.i.2.:.:.$.i S.S.S.S.S.S.S.S.S.S.S.S.S.S.",
"S.S.S.S.S.S.S.S.S.S.S.S.S.S.S.S.q [ V.V.V.V.B.g.:.:.:.:.>.4.M.V.V.V.V.Z.Z.V.5.h h 5.V.V.V.V.V.V.V.V.V.V.V.B.n.d.2.:.:.$.i S.S.S.S.S.S.S.S.S.S.S.S.S.S.",
"S.S.S.S.S.S.S.S.S.S.S.S.S.S.S.S.q [ V.V.V.V.z.0.:.:.:.:.:.2.M.V.V.V.V.V.V.V.5.h h Q o.@.@.@.g.V.V.V.V.V.V.V.B.d.2.:.:.$.i S.S.S.S.S.S.S.S.S.S.S.S.S.S.",
"S.S.S.S.S.S.S.S.S.S.S.S.S.S.S.S.q [ V.V.V.V.i.:.;.:.:.:.:.1.M.V.V.V.B.V.V.V.i.Q Q g k D S k 5.V.V.V.V.V.V.V.B.d.2.:.:.$.i S.S.S.S.S.S.S.S.S.S.S.S.S.S.",
"S.S.S.S.S.S.S.S.S.S.S.S.S.S.S.S.w ' x.v.z.z.0.&.%.:.:.:.>.4.M.V.V.N.b.B.V.V.V.V.V.K L =.#.v 2.m.M.V.V.V.V.V.B.h.5.>.:.$.i S.S.S.S.S.S.S.S.S.S.S.S.S.S.",
"S.S.S.S.S.S.S.S.S.S.S.S.S.S.S.S.S.n M N M M n N E =.:.:.>.4.M.V.V.c.y.M.V.V.V.V.V.W R =.@.a ` >.q.V.V.V.V.V.V.B.M.u.:.$.i S.S.S.S.S.S.S.S.S.S.S.S.S.S.",
"S.S.S.S.S.S.S.S.S.S.S.S.S.S.S.S.S.9 t y t A T U K K ] *.>.4.M.V.V.x.3.M.V.V.V.V.V.5._ D G ~ Q ] 5.V.V.V.V.V.V.V.V.i.:.$.i q S.S.S.S.S.S.S.S.S.S.S.S.S.",
"S.S.S.S.S.S.S.S.S.S.S.S.S.S.S.S.S.S.8 8 8 z B N k p R $.>.4.M.V.V.z.2.M.V.V.V.V.V.g._ h b #.] o.,.p.B.V.V.V.V.V.V.i.:.=.R d 8 S.S.S.S.S.S.S.S.S.S.S.S.",
"S.S.S.S.S.S.S.S.S.S.S.S.S.S.S.S.S.S.S.S.S.S.0 q q 7 L #.>.4.M.V.V.z.4.M.V.V.V.V.V.y./ h v ( $.=.@.' n.V.V.V.V.V.V.i.:.:.:.m 8 S.S.S.S.S.S.S.S.S.S.S.S.",
"S.S.S.S.S.S.S.S.S.S.S.S.S.S.S.S.S.S.S.S.S.S.S.q q q I @.>.4.M.V.V.z.4.M.V.V.V.V.V.0.^ b b h ' =.~ y l.V.V.V.B.V.V.i.:.:.:.m 8 S.S.S.S.S.S.S.S.S.S.S.S.",
"S.S.S.S.S.S.S.S.S.S.S.S.S.S.S.S.S.S.S.S.S.S.S.S.q q U #.:.1.m.V.V.z.4.M.V.V.V.V.V.0.=.&.@.c ' =.~ u l.V.V.m.h.B.V.i.:.:.=.m 8 S.S.S.S.S.S.S.S.S.S.S.S.",
"S.S.S.S.S.S.S.S.S.S.S.S.S.S.S.S.S.S.S.S.S.S.S.S.S.q U #.>.2.M.V.V.z.4.M.V.V.V.V.V.0.:.:.&.M ' =./ s l.V.V.m.d.B.V.p.:.:.=.m 8 S.S.S.S.S.S.S.S.S.S.S.S.",
"S.S.S.S.S.S.S.S.S.S.S.S.S.S.S.S.S.S.S.S.S.S.S.S.S.q U #.>.4.M.V.V.z.4.M.V.V.V.V.V.0.:.:.=./ Q E D k e.m.V.m.a.p.p.5.:.:.=.m 8 S.S.S.S.S.S.S.S.S.S.S.S.",
"S.S.S.S.S.S.S.S.S.S.S.S.S.S.S.S.S.S.S.S.S.S.S.S.S.q U #.>.2.M.V.V.z.4.M.V.V.V.V.V.0.:.:.:.:.Q F V b =.z.V.b.q.>.:.:.:.:.-.m 9 S.S.S.S.S.S.S.S.S.S.S.S.",
"S.S.S.S.S.S.S.S.S.S.S.S.S.S.S.S.S.S.S.S.S.S.S.S.S.q U #.:.1.m.V.V.z.4.M.V.V.V.V.V.0.:.:.:.:.:.:.X.B @.i.m.z.=.:.:.:.:.:.:.Z t q q S.S.S.S.S.S.S.S.S.S.",
"S.S.S.S.S.S.S.S.S.S.S.S.S.S.S.S.S.S.S.S.S.S.S.S.S.q U #.>.4.M.V.V.z.4.M.V.V.V.V.V.0.:.:.:.:.:.:.;.@.B N *.l.:.:.:.:.:.:.:.*.G q q S.S.S.S.S.S.S.S.S.S.",
"S.S.S.S.S.S.S.S.S.S.S.S.S.S.S.S.S.S.S.S.S.S.S.S.S.q U @.>.4.M.V.V.z.4.M.V.V.V.V.V.0.:.:.:.:.:.:.:.&.b h @.M.h.2.>.:.:.:.:.:.L q q S.S.S.S.S.S.S.S.S.S.",
"S.S.S.S.S.S.S.S.S.S.S.S.S.S.S.S.S.S.S.S.S.S.S.S.S.q U @.>.4.M.V.V.z.2.p.m.V.V.V.V.h.5.:.:.:.:.:.:.=.^ Q 1.V.N.i.1.:.:.:.:.:.L q q S.S.S.S.S.S.S.S.S.S.",
"S.S.S.S.S.S.S.S.S.S.S.S.S.S.S.S.S.S.S.S.S.S.S.S.S.q U @.>.3.M.V.V.z.1.<.p.n.B.V.V.V.i.:.:.:.:.:.:.:.:.:.i.V.B.z.4.:.:.:.:.:.L q q S.S.S.S.S.S.S.S.S.S.",
"S.S.S.S.S.S.S.S.S.S.S.S.S.S.S.S.S.S.S.S.S.S.S.S.S.q G o.:.2.M.V.V.z.1.:.<.i.m.V.V.V.i.:.:.:.:.:.:.:.:.:.i.V.B.h.3.:.:.:.:.:.R i i S.S.S.S.S.S.S.S.S.S.",
"S.S.S.S.S.S.S.S.S.S.S.S.S.S.S.S.S.S.S.S.S.S.S.S.S.q t G #.1.m.V.V.z.1.:.<.a.V.V.V.V.i.:.:.:.:.:.:.:.:.:.i.V.V.B.i.2.:.:.:.:.=.$.X.i 7 S.S.S.S.S.S.S.S.",
"S.S.S.S.S.S.S.S.S.S.S.S.S.S.S.S.S.S.S.S.S.S.S.S.S.S.S.j P 1.m.V.V.z.>.-.:.t.m.V.V.V.i.:.:.:.:.:.:.:.:.:.2.p.V.V.n.y.>.:.:.:.:.;.@.i 0 7 S.S.S.S.S.S.S.",
"S.S.S.S.S.S.S.S.S.S.S.S.S.S.S.S.S.S.S.S.S.S.S.S.S.S.S.9 g Y ] [ [ ( L L L Q _ +.x.M.u.:.:.:.:.:.:.:.:.:.:.2.a.B.V.a.1.>.:.:.:.:.#.i q w S.S.S.S.S.S.S.",
"S.S.S.S.S.S.S.S.S.S.S.S.S.S.S.S.S.S.S.S.S.S.S.S.S.S.S.8 q w b m m m m m m d q s 1.p.0.:.:.:.:.:.:.:.:.:.:.:.<.h.M.j.e.0.>.:.:.:.*.Z u q q S.S.S.S.S.S.",
"S.S.S.S.S.S.S.S.S.S.S.S.S.S.S.S.S.S.S.S.S.S.S.S.S.S.S.8 q i $.:.:.:.:.:.:.P w i R o.=.:.:.:.:.:.:.:.:.:.:.:.:.:.h.n.z.f.<.:.:.:.:.:.Z t q S.S.S.S.S.S.",
"S.S.S.S.S.S.S.S.S.S.S.S.S.S.S.S.S.S.S.S.S.S.S.S.S.S.S.6 7 i $.:.:.:.:.:.:.Y f G ~ b R >.,.:.:.:.:.:.:.:.:.:.:.:.<.<.<.<.:.:.:.:.:.:.*.G q q S.S.S.S.S.",
"S.S.S.S.S.S.S.S.S.S.S.S.S.S.S.S.S.S.S.S.S.S.S.S.S.S.S.7 0 y U W W W ! ! U c a N I G _ :.>.>.:.>.>.:.:.:.:.:.:.:.:.:.:.:.:.:.:.:.:.:.:.@.L q S.S.S.S.S.",
"S.S.S.S.S.S.S.S.S.S.S.S.S.S.S.S.S.S.S.S.S.S.S.S.S.S.S.S.8 9 N V V m k k d y t s k ! $.:.:.>.:.:.>.:.:.:.:.:.:.>.:.:.:.:.:.>.:.:.:.:.:.:.) q r S.S.S.S.",
"S.S.S.S.S.S.S.S.S.S.S.S.S.S.S.S.S.S.S.S.S.S.S.S.S.S.S.S.S.S.S.S.S.S.q q d k d q q L ) ) ) ) ) ) ) ' ;.:.:.:.:.>.:.:.:.:.:.>.>.:.:.:.:.:.X.b w w S.S.S.",
"S.S.S.S.S.S.S.S.S.S.S.S.S.S.S.S.S.S.S.S.S.S.S.S.S.S.S.S.S.S.S.S.S.S.q q D ! D q q q q q q q q q q a O.$.$.$.$.$.$.$.$.$.$.$.$.$.$.$.$.$.$.o.u q r S.S.",
"S.S.S.S.S.S.S.S.S.S.S.S.S.S.S.S.S.S.S.S.S.S.S.S.S.S.S.S.S.S.S.S.S.S.q q t y t q q S.S.S.S.S.S.S.S.S.a i i i i i i i i i i i i i i i i i i u q q q q q ",
"S.S.S.S.S.S.S.S.S.S.S.S.S.S.S.S.S.S.S.S.S.S.S.S.S.S.S.S.S.S.S.S.S.S.S.S.S.S.S.S.S.S.S.S.S.S.S.S.S.S.S.S.S.S.S.S.S.S.S.S.S.S.S.S.S.S.S.S.S.S.S.S.S.S.S.",
"S.S.S.S.S.S.S.S.S.S.S.S.S.S.S.S.S.S.S.S.S.S.S.S.S.S.S.S.S.S.S.S.S.S.S.S.S.S.S.S.S.S.S.S.S.S.S.S.S.S.S.S.S.S.S.S.S.S.S.S.S.S.S.S.S.S.S.S.S.S.S.S.S.S.S.",
"S.S.S.S.S.S.S.S.S.S.S.S.S.S.S.S.S.S.S.S.S.S.S.S.S.S.S.S.S.S.S.S.S.S.S.S.S.S.S.S.S.S.S.S.S.S.S.S.S.S.S.S.S.S.S.S.S.S.S.S.S.S.S.S.S.S.S.S.S.S.S.S.S.S.S.",
"S.S.S.S.S.S.S.S.S.S.S.S.S.S.S.S.S.S.S.S.S.S.S.S.S.S.S.S.S.S.S.S.S.S.S.S.S.S.S.S.S.S.S.S.S.S.S.S.S.S.S.S.S.S.S.S.S.S.S.S.S.S.S.S.S.S.S.S.S.S.S.S.S.S.S.",
"S.S.S.S.S.S.S.S.S.S.S.S.S.S.S.S.S.S.S.S.S.S.S.S.S.S.S.S.S.S.S.S.S.S.S.S.S.S.S.S.S.S.S.S.S.S.S.S.S.S.S.S.S.S.S.S.S.S.S.S.S.S.S.S.S.S.S.S.S.S.S.S.S.S.S.",
"S.S.S.S.S.S.S.S.S.S.S.S.S.S.S.S.S.S.S.S.S.S.S.S.S.S.S.S.S.S.S.S.S.S.S.S.S.S.S.S.S.S.S.S.S.S.S.S.S.S.S.S.S.S.S.S.S.S.S.S.S.S.S.S.S.S.S.S.S.S.S.S.S.S.S.",
"S.S.S.S.S.S.S.S.S.S.S.S.S.S.S.S.S.S.S.S.S.S.S.S.S.S.S.S.S.S.S.S.S.S.S.S.S.S.S.S.S.S.S.S.S.S.S.S.S.S.S.S.S.S.S.S.S.S.S.S.S.S.S.S.S.S.S.S.S.S.S.S.S.S.S.",
"S.S.S.S.S.S.S.S.S.S.S.S.S.S.S.S.S.S.S.S.S.S.S.S.S.S.S.S.S.S.S.S.S.S.S.S.S.S.S.S.S.S.S.S.S.S.S.S.S.S.S.S.S.S.S.S.S.S.S.S.S.S.S.S.S.S.S.S.S.S.S.S.S.S.S.",
"S.S.S.S.S.S.S.S.S.S.S.S.S.S.S.S.S.S.S.S.S.S.S.S.S.S.S.S.S.S.S.S.S.S.S.S.S.S.S.S.S.S.S.S.S.S.S.S.S.S.S.S.S.S.S.S.S.S.S.S.S.S.S.S.S.S.S.S.S.S.S.S.S.S.S.",
"S.S.S.S.S.S.S.S.S.S.S.S.S.S.S.S.S.S.S.S.S.S.S.S.S.S.S.S.S.S.S.S.S.S.S.S.S.S.S.S.S.S.S.S.S.S.S.S.S.S.S.S.S.S.S.S.S.S.S.S.S.S.S.S.S.S.S.S.S.S.S.S.S.S.S.",
"S.S.S.S.S.S.S.S.S.S.S.S.S.S.S.S.S.S.S.S.S.S.S.S.S.S.S.S.S.S.S.S.S.S.S.S.S.S.S.S.S.S.S.S.S.S.S.S.S.S.S.S.S.S.S.S.S.S.S.S.S.S.S.S.S.S.S.S.S.S.S.S.S.S.S.",
"S.S.S.S.S.S.S.S.S.S.S.S.S.S.S.S.S.S.S.S.S.S.S.S.S.S.S.S.S.S.S.S.S.S.S.S.S.S.S.S.S.S.S.S.S.S.S.S.S.S.S.S.S.S.S.S.S.S.S.S.S.S.S.S.S.S.S.S.S.S.S.S.S.S.S.",
"S.S.S.S.S.S.S.S.S.S.S.S.S.S.S.S.S.S.S.S.S.S.S.S.S.S.S.S.S.S.S.S.S.S.S.S.S.S.S.S.S.S.S.S.S.S.S.S.S.S.S.S.S.S.S.S.S.S.S.S.S.S.S.S.S.S.S.S.S.S.S.S.S.S.S.",
"S.S.S.S.S.S.S.S.S.S.S.S.S.S.S.S.S.S.S.S.S.S.S.S.S.S.S.S.S.S.S.S.S.S.S.S.S.S.S.S.S.S.S.S.S.S.S.S.S.S.S.S.S.S.S.S.S.S.S.S.S.S.S.S.S.S.S.S.S.S.S.S.S.S.S.",
"S.S.S.S.S.S.S.S.S.S.S.S.S.S.S.S.S.S.S.S.S.S.S.S.S.S.S.S.S.S.S.S.S.S.S.S.S.S.S.S.S.S.S.S.S.S.S.S.S.S.S.S.S.S.S.S.S.S.S.S.S.S.S.S.S.S.S.S.S.S.S.S.S.S.S.",
"S.S.S.S.S.S.S.S.S.S.S.S.S.S.S.S.S.S.S.S.S.S.S.S.S.S.S.S.S.S.S.S.S.S.S.S.S.S.S.S.S.S.S.S.S.S.S.S.S.S.S.S.S.S.S.S.S.S.S.S.S.S.S.S.S.S.S.S.S.S.S.S.S.S.S.",
"S.S.S.S.S.S.S.S.S.S.S.S.S.S.S.S.S.S.S.S.S.S.S.S.S.S.S.S.S.S.S.S.S.S.S.S.S.S.S.S.S.S.S.S.S.S.S.S.S.S.S.S.S.S.S.S.S.S.S.S.S.S.S.S.S.S.S.S.S.S.S.S.S.S.S.",
"S.S.S.S.S.S.S.S.S.S.S.S.S.S.S.S.S.S.S.S.S.S.S.S.S.S.S.S.S.S.S.S.S.S.S.S.S.S.S.S.S.S.S.S.S.S.S.S.S.S.S.S.S.S.S.S.S.S.S.S.S.S.S.S.S.S.S.S.S.S.S.S.S.S.S.",
"S.S.S.S.S.S.S.S.S.S.S.S.S.S.S.S.S.S.S.S.S.S.S.S.S.S.S.S.S.S.S.S.S.S.S.S.S.S.S.S.S.S.S.S.S.S.S.S.S.S.S.S.S.S.S.S.S.S.S.S.S.S.S.S.S.S.S.S.S.S.S.S.S.S.S."
};
