/* XPM */
static char *result[] = {
/* columns rows colors chars-per-pixel */
"75 75 89 1 ",
"  c #0D062B",
". c #0E092C",
"X c #120D2E",
"o c #15112F",
"O c #140E31",
"+ c #161132",
"@ c #1A1534",
"# c #1D1936",
"$ c #1D1739",
"% c #1E1A39",
"& c #211C37",
"* c #221D3A",
"= c #222037",
"- c #25223D",
"; c #29253E",
": c #2B293F",
"> c #32263B",
", c #32293E",
"< c #382A3D",
"1 c #2A3237",
"2 c #313E3C",
"3 c #402F3E",
"4 c #41313E",
"5 c #4D343E",
"6 c #34423F",
"7 c #4F7B3F",
"8 c #251E41",
"9 c #272440",
"0 c #292641",
"q c #272840",
"w c #2C2A43",
"e c #2F2F48",
"r c #312E45",
"t c #3F2F40",
"y c #322F48",
"u c #2F3045",
"i c #2F3049",
"p c #323147",
"a c #3A3345",
"s c #353847",
"d c #35344A",
"f c #39364B",
"g c #37384C",
"h c #3A3A4E",
"j c #3B3750",
"k c #3D3E51",
"l c #433443",
"z c #463845",
"x c #4C3B46",
"c c #433D4C",
"v c #4A3D4A",
"b c #533B42",
"n c #593D44",
"m c #403E52",
"M c #354144",
"N c #3B404A",
"B c #3F5542",
"V c #3F4053",
"C c #42444E",
"Z c #4C424E",
"A c #5D4044",
"S c #53434D",
"D c #5B454B",
"F c #56484F",
"G c #5F494E",
"H c #42504D",
"J c #47594A",
"K c #49594D",
"L c #414254",
"P c #4B4452",
"I c #474857",
"U c #4E4855",
"Y c #454658",
"T c #494758",
"R c #454958",
"E c #4B4A59",
"W c #534753",
"Q c #564A53",
"! c #5B4A53",
"~ c #634345",
"^ c #694547",
"/ c #62464A",
"( c #60484D",
") c #694E4F",
"_ c #456345",
"` c #49614C",
"' c #4A6B4A",
"] c #4C7145",
"[ c #57A334",
/* pixels */
"kYhh@ppkchhhL;0dhhfddy-%dykfywy=&QvQh:IcL&wdfLhLhmd@fwLLhchh@hTkh@khIw9mfU-",
"hkkm#pkkkkkkL;qVkkkkkhq%LkkCCkkyyxzZfrVhV*;hVhkVNLd#kkkkkkkd&ckkh+fhh-wVyk;",
"hVhp@hVkkhVkp%0LkhkkkV0@LkkLLkkwpZSPp-Vkh@rLhkkhhp-@kVmhkkkk&fhkd@jkmw*Vfy-",
"#=%-@99=**=#=#$*#*&**-0O9*==00-*&r>r@X*%-@*;-=#-:;-X-#*&@%%*X&&*-+%*-#X*w;+",
"qddLhhgp9@dykhkggy+Nkmk*kwy;9ddkjppw=%gdkkhhgw@hmPh@kyp**rfhwydhkkkhk=;PmP%",
"9Vkkkkkku#kkkkkkVd%JNkh*LkLy9VkkkVVkw#kkkkkkkd&mkkp*mfhyrmfmwwmkkkkkk=tLjk=",
"9kdgghhku@hhhgggdp*fjg;Xdfk-=kggggfg9@kghghhhp+dgg:#ydh*-khy#qhddgkgk=yhgi#",
"+09;@%@@@+-%*#@;ar+**0r*00y*$-*9@wwy;.@@#+@@*-#*@#@Orpc*+--y;wyww+@@+++*#;@",
"$mhf*dggk9kdf;:TVL9ykkLLLkYy*VhLekLPh@hdkwwkhLVkkhw@LkYp-chLLkmLk@ffhd*kdLp",
"%chY8gLLh$khmw:LkV9wVkkhkkh=*VkVwfVVd@ckLw9LkhhVkku#LkVw%LVkkkkkp@fkLd*LhVd",
"%dwy@wddwXpph%&gpp@=eyeyew;@$dyd*wddyXwpf-*dpppppd=+pyp=@yywqww;*Xpdd;odpdw",
";-*-O0-ww00;w@#;-09==9$O;*w00q00X-*qw=99w+-fyyX;*00-;--+*9wy*#*%@X0*ww;qqqo",
"LLLL*gkLLLVVL-qVkLVVLhw*VhLLVVVh*fhLkLVVh&fLVm#hkmLVkVh#x)ScyfYPf$kkLkLVLh@",
"fkkg+dmkkkkkV-;LkkkkkLy+kVkkkkVk+gLhkkkVL&yLVh@dVkkkkkh#f/nA<dffdOhVkkkkLk@",
"-w9=O:wqq9;-;@#wqww00q*Xq0q;9;--O9wwq99--X@---X;wq9qw;w@-f34&-9y;.wq099;--X",
"-qyfdpy0%&prddfdff+00dddpyp#0wpfdfdfw%d*d*0yphdddd-+mycy@0*w@0wyfvapd0+9;w;",
"eVkkkkVLw*kkkkVVVh@gVVkkkkV-0VVkVVVLw*YkYw;VVkkkkLq-kLVg9mhL9pVVkLckLw=kpmj",
"qLkkkkkky*Lkkkhhg:+pkkkkkkk=wLhkhkhp-@VkL-rLkkkkkk0rLkLd$hhk*wjkkkkkp*#Vggq",
"@**%%***$+***#*;:-X*--**-%-+*---#**;%o0-;+@***%**-@@**=+@y:a+%29*%*%%@@ww0+",
"qgya@ydkkggpp@wYNY*dfkw@jdmkhhhf@hCLd&jghffdw;+ffhhfgpw@fYhL-M]fy@gpVkchhf*",
"dLLL%gkkkkkkV=qYkm*gLkd%kkkkkkkh&fCkd$kkkLckLd+hVkkkkVk*fLkL-pkhh%hkkkkhkh&",
"%fddOpjgghghk#%gdd*0gdw+hgfgdggd@fgf0OfhhhghhdXdhfhhfhh@rffh*:hgp+fhgghhgg#",
";wwpX@9w;@*%-*****X%;<a$*--%$$*0*0qw-O*@=#***-#%#%+@-+-*X#O+O***-*9=*@@;*0#",
"TLmLOyIYh%kfLYLVVk$PDbP0hkVwqkkLLLLYg*LdV;whkVVkkh;wYycg@Lyk9pkkLmkVV=:Lkmp",
"Vhkh@hkkk@kkkkkkkk*WbZV9kkkw-LkkkkVhq*LhN%0LkkkhkL:-Pkhy*fhL=wVVhkkkk-;LhVy",
"puu;+fgd0@pippeeew+zvkg*eqp%*dwpwww-#*dNJO*diyyywp*#hdd*+pdd$9purdppp@@dwp;",
"%=-w9000*Op99@*0;ywdgfe.9*+O*90w;---@+w;w*%*%#@fyw;Xw-w0-08-OwfpyX-#wq;;--o",
"iVVLLkVVw*YkfewkVLLmkLw+kfVwwLkVLVLkq*VkVLVLky-YVLa@hhLLVkVh#kVVk#kkLVLhkk*",
"9VkkkkmLp@kkke0LhkkkkLp$kkL-0Lkkkkkhw+LkkVkVLd&kkLpXhVkkkkkk@fckk#hVkkmmhd@",
"%uwq;;--% =9-%*ywq---;*Owwp+$009;:wh-X0-:wwqq;X-;q@Xfwwq99;9X%-=-+;000000wX",
"qfyp@q;wywwww@wkhhO0qqr$dwkywww-@fyQvwhdp@0ydffddhw&c<af-apj+90eywwqw@*fpf-",
"fkkY-dVLVVLLk=dkkk&hLkk*kkkkVLVd;Pz^5wLkY*0kmmkLkLw;fcPkyLkL%dLkLkLLh-yThCw",
"wVkk$dLkkkkkk-wLhd+yLVd@kkkkkkkg-F~/l*Lkf@qLhhkkVp-<TVVwwVkh#wVhhgkkV=wkdk=",
"*99=.%=*%*--w+@*=;X%-;-@-=;*%***+,,-@O**-@-;;;%$#+o+-*-@O=&*@%:;;%;%-#@;;:@",
"wggjgypy=%PhY-wFLL%pphkhkgk%0ddhfgdy**fdmmkkkV+wipuwwwq#0kgkkkhhp#fpVkkhhV%",
"wVVkkkLmw;YkV0wTkk#pLkVkkkk=0LkkkVkkw*LkhkkkkgopVkkVVLk-*kkkkkkVd#hVkkkkVg%",
"9jggkkgkw9Lgg@9gdg@ykhffghh%-kghkhhh9+kfdgghw:XwkjkkhkV*;Vghdhggu@ghhhfdp-@",
"$p-;#*#*=%0;0+@y:;X*@*-+*%-%---*+**-*$**-@@@#*+*=-=$9=9@+$@#+*%**#*%#@@wpwO",
"kLkL=fhLLLkkY0wYLY*mhhf*mhLLVVVg*fhmLLLLY-rhmLLkVkq@kdVkhhhp#dhmVVkhh&0YNY-",
"hkkL-yLkkkkkk=0VkV;gVLh#hkkkkkkk@ykkkkkkg&;VkhkkkVw+hVkkkVVh%ykkkkkVV-yVkk=",
"wfwg*pgdddduq#%pup@yfdp%gpdpdpew+dddgppw;owhfddppp-+hdddddyd+ydppddpd%*dpw#",
"*090%*%+@.@;9#%**w9qww#%fww@%99w--*%++9*y00q*@X:;rhOr;*@=;9gepfdd@:*q;8=%&o",
"wkkLmmkhg@hkLwwVkLLkLk;wYkL9wVVVVLVhw*mkVLLVfy-ILVL*dfkd9VkBVkVVh@kkVVVVNh&",
"9LkkmfhYw*YkL-=Vkkkkkk0-LkV*9VkkkkkLw+Lkkkkhdh*Lkkh#fLkp%LkVkkVhr+kVkkkkkk@",
"%w900;qw*O;;w+*dwy;:-w*@;==+*ywqqw0w%Ow00qw0w9oqqw0+*qyq+9==*-=%@X;-09wqwwX",
"ww9d*ywghdpyw+>!vY=rfda*uqkkhhgd@y0fkfdyf@=yydiwwy0+y9ffdedp+9wpyq0&9+-chm-",
"dVkY9ykkkkkkk;5^xxrdVjh=kVVVkkkg%dkkkkkkV%9LkkkV`kw@kkkkkkVh%iVVVhckc0rYkVw",
"0Vkk$dkkkkkkh-cDS/,ikVk%jgghkhkk@fkkkkhkh#*Lkhkh]hwOkkkkkkhk#qVVVjkkk@-Vhh;",
"$09w@===%%-*a#*;:;@+*-#+-dd@$%==X#%*%@*%-@%;-*@-*0*X9=0=%9%=X@%$@*0*r*@-==o",
"wggVVgjgq9LfUq0fghfgdy*>(nZ@9jjkhggp--kgLVkkkd&YmLk@gdkkjjjs@wkw0*hfPfdhhd#",
"0VkkVVVVw;LVk09LkVkVmL9rAlL0=YkVkkkVw#kkhkkkLd%mkkf+kVkkVVVV@wYkk-kkmfyLVh*",
"%gdgidddq$gdkw*fddgdgf=qckL==hdggggg=%VdgddgdwOydp;OpdddisiiX;gjf+yhgy-dpd@",
"=0=9+%%==%8%9@$pww@wyr-@dqw*$%%%+9*;-=;==+%*-w+%=9q;0qq-@=%-*9wuwOO+@#@y;q@",
"mLVV$jVVLLkkh*wLVV%cLYh-hkkkVkkd+hkmVVVkh%yYPYpekVVVLmYp*VkLVVkkp%kghhyTkY;",
"jVVh@iVVkkkVL=qLkk%hhLf@kLVVkVVhOgkkVVVkV%ychLw0VkkVkkg=*LVVkVkVh@kLLh0kkp@",
"%w9=O9uqwww0w@%q;-+:ww*+wqwwewwq.9ww;w:ww+;yqp*&yww;q;*@+wqq9q;9- -ww0@wq-X",
"9wwdayee9Ow0ddyryq+w-y9*cgf%-wwdrw00$+fdk*$w*$+yfhyXw0pyewyr+-0wwww0w@&cfk9",
"wLkkmkVVi%Lkkkkmkh%kkL00LkL-wLkkmkLmw*YkLr0mymwkVVf@kVLkLVkk&yLmVVLkm-0YkLq",
"9kkkkkkkp+kkkhkkkf@gkk-*kkg#9mkkkkkkw-mhk-*kmL%dhhp@fkgkkkkk+wVkkkkhm@0mjg-",
"%9--%**=*@0-;&-w-wO%#-*O*#*$*9--%**w-X**-++09- #--&X;;w;*9*-$*-9=%;&0&&0;;@",
"mkfh@ddkkkkhh*w!cL*fpgh*hdmVkkkk$ckLf&hfkgdyp0#[_kh%WZLw%kgkkkhhp#hfLLLhkL*",
"kkLk@gVkkkkkL=pLkk%gLVg%kkkkkkkg-Ykkp@LkkkkLLp=KNVh%CkVy*mkkkkkkd@hVkhhVkd#",
"pfdw+whkfdgdg*-gdg@qkdp@hdgdgddp&hgf* dggffdfp+fdfqOdjhq%jggdgddw@fgdgdd:;@",
"*-;p0w9=#@0*0--;--O*-qwwwwi%%==:*--;@O-@0#%r*r+%-;-O09q=$%@%O0*0w-q;q#&ppf+",
"wVkLVVVh:=kVLLVVVg@hkLLVkLY:wVkLVkVkq-LfLwtG/DfmmYf*kkkkkkkg$dVLLVmkL=wYVV=",
"qVVVhkkLp*VkkkVkkh+dLmkkkkd&0LkkkVkLw$YmL*l~nC-fkkh%fkkkkkkk@dLhkhkkV-yLNV=",
"%wqqqwqq*#w;;q00w0X00;9;;-*+*wqqwwww*O00p@*yrwX*---@dpppwwwqX;;;;:0qr@#q;-+",
"whyp@0-ydpuup#;ffhX#0qq@w;fddppd+00ww*fyc**00dddyp**DxUg&09ffyppq+afhw@w;uw",
"fLkV*pVkVVVVV=dLkL+yYhh*kVVVkkkk%fLmdyYk]s9mkLkVkL:*Zbxw-mkkVkkLd#mkLp*LVLh",
"dVkd@dLVkhhhV*;Lhm@yLkV%jhkhkkkk+dkkd#kk'M9LkkkkhL:wRccy*kkkhkkhd+hkm:@khhh",
"@-**+%**#**--++**&.@%%#@2q;#**%*+%%*# #%*+@*%%#*--#@;*-@@y0-%%-f-X-#&X@q;-@",
";wdkjddy-%vfm00gddyw;:$1]kh*rfhkhhhh;#ayhpywy0Ohkmkhgpr@rvzc*hhYf@hpf;hYhfX",
"wLkkkkVkw;CkV00VkVfkkC;9kjV9;kkkkkkk;%VVVkkVkp@hkkkkkkk*wkkh-mkkd@kkVwdhhhX",
"qVkkkkkkw-Lgh09khhkkhV%*kkh%pVkhgkgkq@VkkkkkkgOdhhghkhm%wLhh*hkkw+hhk*whcm@",
"O@+@++++.X*#+OOO++@@@@..OOO.+@@++++XX ++@@%$@O OOOXO++O +@++.+@+O ++@.O%@@X"
};
