/* XPM */
static char *result[] = {
/* columns rows colors chars-per-pixel */
"75 75 219 2 ",
"   c #04193F",
".  c #051A40",
"X  c #0A1C44",
"o  c #0D184D",
"O  c #101852",
"+  c #161958",
"@  c #101A4E",
"#  c #0F2347",
"$  c #12254A",
"%  c #162A4D",
"&  c #192D4F",
"*  c #1C2452",
"=  c #1B2C52",
"-  c #1E3153",
";  c #2A2A5C",
":  c #27395A",
">  c #1A1662",
",  c #1F166A",
"<  c #22176B",
"1  c #2A147C",
"2  c #251573",
"3  c #2E2563",
"4  c #362669",
"5  c #353065",
"6  c #3E346B",
"7  c #393166",
"8  c #2E2971",
"9  c #41356E",
"0  c #47287A",
"q  c #4A3975",
"w  c #533E7B",
"e  c #334564",
"r  c #374867",
"t  c #3B4C6A",
"y  c #39466C",
"u  c #374966",
"i  c #485873",
"p  c #43536F",
"a  c #54637D",
"s  c #2F1483",
"d  c #301485",
"f  c #34138B",
"g  c #3E129C",
"h  c #3B1296",
"j  c #3A2388",
"k  c #41129F",
"l  c #5A2A8A",
"z  c #502782",
"x  c #583491",
"c  c #6A3495",
"v  c #4212A1",
"b  c #4913AA",
"n  c #4E10B4",
"m  c #5110B9",
"M  c #5010B7",
"N  c #4F28A2",
"B  c #7A38A3",
"V  c #7429AD",
"C  c #681FB5",
"Z  c #5C4282",
"A  c #57419B",
"S  c #634587",
"D  c #654689",
"F  c #6A498D",
"G  c #7D519B",
"H  c #754E95",
"J  c #5F6C86",
"K  c #67748B",
"L  c #676C92",
"P  c #7C48A1",
"I  c #6553A2",
"U  c #7777A1",
"Y  c #5A0FC8",
"T  c #5C14C6",
"R  c #610ED3",
"E  c #650DD9",
"W  c #680DDD",
"Q  c #761AD1",
"!  c #6F0CE9",
"~  c #6A0DE1",
"^  c #720CED",
"/  c #750BF2",
"(  c #780BF7",
")  c #7F15F7",
"_  c #7C22D8",
"`  c #8B34B5",
"'  c #82549F",
"]  c #8857A3",
"[  c #9A5DB2",
"{  c #9853B5",
"}  c #9E61B4",
"|  c #A563BA",
" . c #A765BB",
".. c #A25BBB",
"X. c #9239CC",
"o. c #B33ADA",
"O. c #AA32DE",
"+. c #8111F7",
"@. c #8C16F8",
"#. c #861DF8",
"$. c #9119F8",
"%. c #9A1DF8",
"&. c #8C1AEE",
"*. c #8421F8",
"=. c #8728F8",
"-. c #9B23F7",
";. c #9239F8",
":. c #8939ED",
">. c #AA28F9",
",. c #B52EFA",
"<. c #AA3DF7",
"1. c #A737F8",
"2. c #BD31FA",
"3. c #B833F8",
"4. c #BC3BE5",
"5. c #C738F9",
"6. c #D33EFB",
"7. c #8E48CF",
"8. c #B74AD7",
"9. c #B154CC",
"0. c #B66CC7",
"q. c #B96BCA",
"w. c #9744F9",
"e. c #9948F9",
"r. c #9D50F9",
"t. c #B64AF7",
"y. c #AF4EF8",
"u. c #B072FA",
"i. c #9C60EA",
"p. c #C975D5",
"a. c #C573D3",
"s. c #D278DD",
"d. c #C360D9",
"f. c #D942FB",
"g. c #DC4BFA",
"h. c #D245F3",
"j. c #C458F9",
"k. c #DE52FA",
"l. c #DC58FB",
"z. c #D654F4",
"x. c #CC4AF5",
"c. c #E056F9",
"v. c #E15CF9",
"b. c #DC7CE6",
"n. c #D66BF6",
"m. c #DA67F9",
"M. c #DF74F6",
"N. c #D36AF0",
"B. c #E563F9",
"V. c #E26CFB",
"C. c #E96BF8",
"Z. c #E164F4",
"A. c #EC75F7",
"S. c #ED7CF7",
"D. c #EB72F8",
"F. c #E577F8",
"G. c #E676F2",
"H. c #7D899C",
"J. c #788499",
"K. c #808B9E",
"L. c #838EA1",
"P. c #949EAE",
"I. c #8792A4",
"U. c #9CA4B4",
"Y. c #97A1B0",
"T. c #A2ABB9",
"R. c #AAB2BF",
"E. c #A89EBD",
"W. c #B4BCC6",
"Q. c #ADB5C1",
"!. c #BB87FA",
"~. c #B990F0",
"^. c #D092FA",
"/. c #E984EE",
"(. c #E281E8",
"). c #EE85F3",
"_. c #E688FC",
"`. c #E586FC",
"'. c #F285F6",
"]. c #F489F6",
"[. c #EC96FB",
"{. c #F593F7",
"}. c #F59AF7",
"|. c #CFABFC",
" X c #D8B9FC",
".X c #D7B0F4",
"XX c #ECAAFD",
"oX c #E3A4FC",
"OX c #F6A3F8",
"+X c #F6ACF8",
"@X c #F2A6F5",
"#X c #ECB5FD",
"$X c #F7B4F9",
"%X c #F1BCFC",
"&X c #B9C0CA",
"*X c #C9CED6",
"=X c #C1C7D0",
"-X c #CCD2D9",
";X c #D1D6DD",
":X c #D9D1EC",
">X c #F8C4FA",
",X c #F7C8FB",
"<X c #F9D5FB",
"1X c #F5DBFD",
"2X c #F8DAFD",
"3X c #E8D3F9",
"4X c #DEE2E7",
"5X c #E7EAEE",
"6X c #E4E8EC",
"7X c #EBEEF1",
"8X c #EBE3FA",
"9X c #FAEAFC",
"0X c #F6E6FD",
"qX c #EDF1F3",
"wX c #F5F4FC",
"eX c #FBF5FE",
"rX c #FCFEFE",
"tX c #F3F6F7",
"yX c None",
/* pixels */
"yXyXyXyXyXyXyXyXyXyXyXyXyXyXyXyXyXyXyXyXyXyXyXyXyXyXyXyXyXyXyXyXyXyXyXyXyXyXyXyXyXyXyXyXyXyXyXyXyXyXyXyXyXyXyXyXyXyXyXyXyXyXyXyXyXyXyXyXyXyXyXyXyXyXyX",
"yXyXyXyXyXyXyXyXyXyXyXyXyXyXyXyXyXyXyXyXyXyXyXyXyXyXyXyXyXyXyXyXyXyXyXyXyXyXyXyXyXyXyXyXyXyXyXyXyXyXyXyXyXyXyXyXyXyXyXyXyXyXyXyXyXyXyXyXyXyXyXyXyXyXyX",
"yXyXyXyXyXyXyXyXyXyXyXyXyXyXyXyXyXyXyXyXyXyXyXyXyXyXyXyXyXyXyXyXyXyXyXyXyXyXyXyXyXyXyXyXyXyXyXyXyXyXyXyXyXyXyXyXyXyXyXyXyXyXyXyXyXyXyXyXyXyXyXyXyXyXyX",
"yXyXyXyXyXyXyXyXyXyXyXyXyXyXyXyXyXyXyXyXyXyXyXyXyXyXyXyXyXyXyXyXyXyXyXyXyXyXyXyXyXyXyXyXyXyXyXyXyXyXyXyXyXyXyXyXyXyXyXyXyXyXyXyXyXyXyXyXyXyXyXyXyXyXyX",
"yXyXyXyXyXyXyXyXyXyXyXyXyXyXyXyXyXyXyXyXyXyXyXyXyXyXyXyXyXyXyXyXyXyXyXyXyXyXyXyXyXyXyXyXyXyXyXyXyXyXyXyXyXyXyXyXyXyXyXyXyXyXyXyXyXyXyXyXyXyXyXyXyXyXyX",
"yXyXyXyXyXyXyXyXyXyXyXyXyXyXyXyXyXyXyXyXyXyXyXyXyXyXyXyXyXyXyXyXyXyXyXyXyXyXyXyXyXyXyXyXyXyXyXyXyXyXyXyXyXyXyXyXyXyXyXyXyXyXyXyXyXyXyXyXyXyXyXyXyXyXyX",
"yXyXyXyXyXyXyXyXyXyXyXyXyXyXyXyXyXyXyXyXyXyXyXyXyXyXyXyXyXyXyXyXyXyXyXyXyXyXyXyXyXyXyXyXyXyXyXyXyXyXyXyXyXyXyXyXyXyXyXyXyXyXyXyXyXyXyXyXyXyXyXyXyXyXyX",
"yXyXyXyXyXyXyXyXyXyXyXyXyXyXyXyXyXyXyXyXyXyXyXyXyXyXyXyXyXyXyXyXyXyXyXyXyXyXyXyXyXyXyXyXyXyXyXyXyXyXyXyXyXyXyXyXyXyXyXyXyXyXyXyXyXyXyXyXyXyXyXyXyXyXyX",
"yXyXyXyXyXyXyXyXyXyXyXyXyXyXyXyXyXyXyXyXyXyXyXyXyXyXyXyXyXyXyXyXyXyXyXyXyXyXyXyXyXyXyXyXyXyXyXyXyXyXyXyXyXyXyXyXyXyXyXyXyXyXyXyXyXyXyXyXyXyXyXyXyXyXyX",
"yXyXyXyXyXyXyXyXyXyXyXyXyXyXyXyXyXyXyXyXyXyXyXyX      yXyXyXyXyXyXyXyXyXyXyXyXyXyX.     yXyXyXyXyXyXyXyXyXyXyXyXyXyXyXyXyXyXyXyXyXyXyXyXyXyXyXyXyXyXyX",
"yXyXyXyXyXyXyXyXyXyXyXyXyXyXyXyXyXyXyXyXyXyXyX.         yXyXyXyXyXyXyXyXyXyXyXyX        . yXyXyXyXyXyXyXyXyXyXyXyXyXyXyXyXyXyXyXyXyXyXyXyXyXyXyXyXyXyX",
"yXyXyXyXyXyXyXyXyXyXyXyXyXyXyXyXyXyXyXyXyXyXyXq D F c i 9 yXyXyXyXyXyXyXyXyXyX, s f f f 2 yXyXyXyXyXyXyXyXyXyXyXyXyXyXyXyXyXyXyXyXyXyXyXyXyXyXyXyXyXyX",
"yXyXyXyXyXyXyXyXyXyXyXyXyXyXyXyXyXyXyXyXyX  * H a.p.p. .q   yXyXyXyXyXyXyXyX. 1 m R E R h o . yXyXyXyXyXyXyXyXyXyXyXyXyXyXyXyXyXyXyXyXyXyXyXyXyXyXyXyX",
"yXyXyXyXyXyXyXyXyXyXyXyXyXyXyXyXyXyXyXyXyX9 w  .).].].p.' 9 7 yXyXyXyXyXyX> < g E ( ( ^ g o . yXyXyXyXyXyXyXyXyXyXyXyXyXyXyXyXyXyXyXyXyXyXyXyXyXyXyXyX",
"yXyXyXyXyXyXyXyXyXyXyXyXyXyXyXyXyXyXyX  7 '  .s.].].].(.a.| w $ yXyXyXyXo f M R ^ ( ( ! g o   yXyXyXyXyXyXyXyXyXyXyXyXyXyXyXyXyXyXyXyXyXyXyXyXyXyXyXyX",
"yXyXyXyXyXyXyXyXyXyXyXyXyXyXyXyXyXyXyX  9  .].].].].].].]./.] ; ; yXyX  o g ^ ( ( ( ( ^ b > O yXyXyXyXyXyXyXyXyXyXyXyXyXyXyXyXyXyXyXyXyXyXyXyXyXyXyXyX",
"yXyXyXyXyXyXyXyXyXyXyXyXyXyXyXyXyXyXyX  6 | ].].].].].].]./.a.' D ;     o g ! ( ( ( ( / Y b f > yXyXyXyXyXyXyXyXyXyXyXyXyXyXyXyXyXyXyXyXyXyXyXyXyXyXyX",
"yXyXyXyXyXyXyXyXyXyXyXyXyXyXyXyXyXyXyX  9 | ].].].].].].].].'./.[ 7     o k ! ( ( ( ( ( ( / M , . yXyXyXyXyXyXyXyXyXyXyXyXyXyXyXyXyXyXyXyXyXyXyXyXyXyX",
"yXyXyXyXyXyXyXyXyXyXyXyXyXyXyXyXyXyXyXyX7 H } p.].].].].].].S.C.9.B 0 l l Q %.@.( ( ( ( ( ( m < . yXyXyXyXyXyXyXyXyXyXyXyXyXyXyXyXyXyXyXyXyXyXyXyXyXyX",
"yXyXyXyXyXyXyXyXyXyXyXyXyXyXyXyXyXyXyXyXyX; 9 [ /.].].].].'.C.k.h.o.o.o.o.5.5.>.@.( ( ( ( ( m <   yXyXyXyXyXyXyXyXyXyXyXyXyXyXyXyXyXyXyXyXyXyXyXyXyXyX",
"yXyXyXyXyXyXyXyXyXyXyXyXyXyXyXyXyXyXyXyXyX  * P G.S.'.].].'.C.c.c.k.k.k.k.g.6.5.-.@.$.@.+.( Y f < > yXyXyXyXyXyXyXyXyXyXyXyXyXyXyXyXyXyXyXyXyXyXyXyXyX",
"yXyXyXyXyXyXyXyXyXyXyXyXyXyXyXyXyXyXyXyXyX  * B z.C.S.].].].S.A.D.D.D.D.C.c.f.6.5.,.2.,.%.( ! Y b 1   yXyXyXyXyXyXyXyXyXyXyXyXyXyXyXyXyXyXyXyXyXyXyXyX",
"yXyXyXyXyXyXyXyXyXyXyXyXyXyXyXyXyXyXyXyXyX+ 3 B h.v.S.].].].].].].].].].'.C.g.g.f.f.6.6.>.@.+.( R s .   yXyXyXyXyXyXyXyXyXyXyXyXyXyXyXyXyXyXyXyXyXyXyX",
"yXyXyXyXyXyXyXyXyXyXyXyXyXyXyXyXyXyXyXyX4 l B 8.Z.A.'.].].].].].].].].].].A.C.c.g.6.6.6.5.>.-.+.R s     yXyXyXyXyXyXyXyXyXyXyXyXyXyXyXyXyXyXyXyXyXyXyX",
"yXyXyXyXyXyXyXyXyXyXyXyXyXyXyXyXyXyXyX  4 ` 6.Z.S.].].].].].].].].].].].].].].C.g.f.f.f.6.6.3.@.R s . . yXyXyXyXyXyXyXyXyXyXyXyXyXyXyXyXyXyXyXyXyXyXyX",
"yXyXyXyXyXyXyXyXyXyXyXyXyXyXyXyXyXyXyX  0 { v.A.].].].].].].].].}.OX$X$X$X$X$X@X[._.`._._._.j.=.~ n s 2 yXyXyXyXyXyXyXyXyXyXyXyXyXyXyXyXyXyXyXyXyXyXyX",
"yXyXyXyXyXyXyXyXyXyXyXyXyXyXyXyXyXyXyX  7 ..S.'.'.].].].].].].].+X<X9X9X9X9X9X0X1X1X1X1X1X1X^.;./ ~ Y h O . yXyXyXyXyXyXyXyXyXyXyXyXyXyXyXyXyXyXyXyXyX",
"yXyXyXyXyXyXyXyXyXyXyXyXyXyXyXyXyXyX3 4 c 0.].].].].].].].].}.OX>X9XrXrXrXrXrXrXrXrXrXrXrXrX Xu.;.*.^ v O . yXyXyXyXyXyXyXyXyXyXyXyXyXyXyXyXyXyXyXyXyX",
"yXyXyXyXyXyXyXyXyXyXyXyXyXyXyXyXyX  0 ` 9.d.].].].].].].].{.$X<X0XeXrXrXrXrXrXrXrXrXrXrXrXrX3X:X!.w.^ v O . yXyXyXyXyXyXyXyXyXyXyXyXyXyXyXyXyXyXyXyXyX",
"yXyXyXyXyXyXyXyXyXyXyXyXyXyXyXyX    l o.c.C.].].].].].].{.}.>XeXtX7X5X6X6X6X5XqXrXrXrXrXrXrXwXqX:Xi.~ v + O yXyXyXyXyXyXyXyXyXyXyXyXyXyXyXyXyXyXyXyXyX",
"yXyXyXyXyXyXyXyXyXyXyXyXyXyXyXyX    x d.C.S.].].].].].{.+X>X9XrX-XY.K.K.K.K.K.R.4XrXrXrXrXrX;XU.U x h g g f > yXyXyXyXyXyXyXyXyXyXyXyXyXyXyXyXyXyXyXyX",
"yXyXyXyXyXyXyXyXyXyXyXyXyXyXyXyX    S a.].].].].].].].OX<XeXeXrXR.p $ $ # $ # K *XrXrXrXrXrXQ.i # o O h W M <   yXyXyXyXyXyXyXyXyXyXyXyXyXyXyXyXyXyXyX",
"yXyXyXyXyXyXyXyXyXyXyXyXyXyXyXyX    D p.].].].].].].].@X<XtX-XT.K : & p a J J J.Y.W.4XrX-XR.K : & t K A b h + . yXyXyXyXyXyXyXyXyXyXyXyXyXyXyXyXyXyXyX",
"yXyXyXyXyXyXyXyXyXyXyXyXyXyXyXyX    D p.].].].].].].].OX<XqXY.p : # e K.-X-X-XP.a J W.qXU.i : # : H.=XU 8 O X . yXyXyXyXyXyXyXyXyXyXyXyXyXyXyXyXyXyXyX",
"yXyXyXyXyXyXyXyXyXyXyXyXyXyXyXyX    F p.].].].].].].].@X<X7XK.#     u T.rXrXrXT.t r T.qXH.&     r U.qXI.-       yXyXyXyXyXyXyXyXyXyXyXyXyXyXyXyXyXyXyX",
"yXyXyXyXyXyXyXyXyXyXyXyXyXyXyXyX    w p.].].].].].].].@X<X5XK.$     u T.rXrXrXT.t t U.qXI.&     e U.tXI.-       yXyXyXyXyXyXyXyXyXyXyXyXyXyXyXyXyXyXyX",
"yXyXyXyXyXyXyXyXyXyXyXyXyXyXyXyX    w s.].].].].].].].OX<X5XK.$     u Y.7X7X7XY.r r U.qXL.&     e P.4XH.= .     yXyXyXyXyXyXyXyXyXyXyXyXyXyXyXyXyXyXyX",
"yXyXyXyXyXyXyXyXyXyXyXyXyXyXyXyX    c p.].].].].].].].OX<X5XK.#     : a K.K.K.a - r T.qXL.&     & a H.p # .     yXyXyXyXyXyXyXyXyXyXyXyXyXyXyXyXyXyXyX",
"yXyXyXyXyXyXyXyXyXyXyXyXyXyXyXyX    w s.].].].].].].].OX<X6XK.$       $ % % % # X r T.qXL.& . . X # % # X       yXyXyXyXyXyXyXyXyXyXyXyXyXyXyXyXyXyXyX",
"yXyXyXyXyXyXyXyXyXyXyXyXyXyXyXyX    w a.S.].].].].].].}.$X3XE.K t $           : i H.=XtXQ.K t &     . + 1 , o   yXyXyXyXyXyXyXyXyXyXyXyXyXyXyXyXyXyXyX",
"yXyXyXyXyXyXyXyXyXyXyXyXyXyXyXyX    l 8.B.A.].].].].].].}.@X.X*XK.:     . . . i U.;X5XrX4X-XL.e . . X s Y g > . yXyXyXyXyXyXyXyXyXyXyXyXyXyXyXyXyXyXyX",
"yXyXyXyXyXyXyXyXyXyXyXyXyXyXyXyXyX  0 X.8.C.].].].].].].].{.>XeXW.J u u r r r H.;XrXrXrXrXrX&XK e e y N T b , . yXyXyXyXyXyXyXyXyXyXyXyXyXyXyXyXyXyXyX",
"yXyXyXyXyXyXyXyXyXyXyXyXyXyXyXyXyXyX0 0 ' a.].].].].].].].{.>XeX4XW.T.T.T.U.T.=X5XrXrXrXrXrX4XW.T.T.U.L j 2 > yXyXyXyXyXyXyXyXyXyXyXyXyXyXyXyXyXyXyXyX",
"yXyXyXyXyXyXyXyXyXyXyXyXyXyXyXyXyXyXyX  9  .S.].].].].].].{.>XeXeXeXeXrXrXrXrXrXrXrXrXrXrXrXrXrXeXwX8XL.=   yXyXyXyXyXyXyXyXyXyXyXyXyXyXyXyXyXyXyXyXyX",
"yXyXyXyXyXyXyXyXyXyXyXyXyXyXyXyXyXyXyX  4 { B.C.].].].].].{.OX>X$XXX#X1XrXrXrXrXrXrXrXrXrXrXrXrX0X X!.I % . yXyXyXyXyXyXyXyXyXyXyXyXyXyXyXyXyXyXyXyXyX",
"yXyXyXyXyXyXyXyXyXyXyXyXyXyXyXyXyXyXyX  4 ` g.B.'.].].].].].].{.S.l.F.,XrXrXrXrXrXrXrXrXrXrXrXrX3Xu.) k O X yXyXyXyXyXyXyXyXyXyXyXyXyXyXyXyXyXyXyXyXyX",
"yXyXyXyXyXyXyXyXyXyXyXyXyXyXyXyXyXyXyX  4 c o.d.'.].].].].].].].A.B.V.[.%X#X%X%X%X#X X|.|.|.|.|.~.7.b f O yXyXyXyXyXyXyXyXyXyXyXyXyXyXyXyXyXyXyXyXyXyX",
"yXyXyXyXyXyXyXyXyXyXyXyXyXyXyXyXyXyXyXyXyX3 0 { /.].].].].].].].'.S.A.V.M.M.V.M.M.m.y.w.w.w.w.w.:.N , > yXyXyXyXyXyXyXyXyXyXyXyXyXyXyXyXyXyXyXyXyXyXyX",
"yXyXyXyXyXyXyXyXyXyXyXyXyXyXyXyXyXyXyXyXyX  * ' /.].].].].].].].].].S.B.g.k.B.m.B.j.r.;.=.) ! E n s # yXyXyXyXyXyXyXyXyXyXyXyXyXyXyXyXyXyXyXyXyXyXyXyX",
"yXyXyXyXyXyXyXyXyXyXyXyXyXyXyXyXyXyXyXyXyX  * ' /.].].].].].].].].].'.S.D.[.#X#X%X#X|.^.r.) R v 2 , yXyXyXyXyXyXyXyXyXyXyXyXyXyXyXyXyXyXyXyXyXyXyXyXyX",
"yXyXyXyXyXyXyXyXyXyXyXyXyXyXyXyXyXyXyXyXyX# ; ] /.].].].].'.'.'.'.].].].}.>XeXrXrXrXrXwX!.=.m 2 X yXyXyXyXyXyXyXyXyXyXyXyXyXyXyXyXyXyXyXyXyXyXyXyXyXyX",
"yXyXyXyXyXyXyXyXyXyXyXyXyXyXyXyXyXyXyXyX5 Z ' 0./.].].].'.).n.j.n.S.}.+X,X2XeXrXrXrXrXwX!.) E b f 2 yXyXyXyXyXyXyXyXyXyXyXyXyXyXyXyXyXyXyXyXyXyXyXyXyX",
"yXyXyXyXyXyXyXyXyXyXyXyXyXyXyXyXyXyXyX  6 } (./.].].].].].S.t.*.<.M.}.<XeXrXrXrXrXrXrX9X!.=./ ! Y s   yXyXyXyXyXyXyXyXyXyXyXyXyXyXyXyXyXyXyXyXyXyXyXyX",
"yXyXyXyXyXyXyXyXyXyXyXyXyXyXyXyXyXyXyX  6 | ].].].].].].].S.t.+.1.n.OX<XrXrXrXrXrXrXrXwX|.r.w.) R d   . yXyXyXyXyXyXyXyXyXyXyXyXyXyXyXyXyXyXyXyXyXyXyX",
"yXyXyXyXyXyXyXyXyXyXyXyXyXyXyXyXyXyXyX# 6 | ].].].].].].]./.y.( 1.n.}.<XrXrXrXrXrXrXrXrX8X3X!.;.R s   . yXyXyXyXyXyXyXyXyXyXyXyXyXyXyXyXyXyXyXyXyXyXyX",
"yXyXyXyXyXyXyXyXyXyXyXyXyXyXyXyXyXyX; ; Z 0.].].].].].'.F.n.t.@.y.`.$X2XrXrXrXrXrXrXrXrXrXrX|.w.W g > + yXyXyXyXyXyXyXyXyXyXyXyXyXyXyXyXyXyXyXyXyXyXyX",
"yXyXyXyXyXyXyXyXyXyXyXyXyXyXyXyXyX  w '  .s.].].].].].F.j.<.1.,.n.XX2X9XrXrXrXrXrXrXrXrXrXrX|.w.! Y b f O yXyXyXyXyXyXyXyXyXyXyXyXyXyXyXyXyXyXyXyXyXyX",
"yXyXyXyXyXyXyXyXyXyXyXyXyXyXyXyX    S p.].].].].].].].n.1.+.>.6.`.1XrXrXrXrXrXrXrXrXrXrXrXrX|.w.( ( ^ v O   yXyXyXyXyXyXyXyXyXyXyXyXyXyXyXyXyXyXyXyXyX",
"yXyXyXyXyXyXyXyXyXyXyXyXyXyXyXyX    S p.].].].].].].'.n.;.+.>.5.`.1XrXrXrXrXrXrXrXrXrXrXrXrX|.w.( ( ^ v O   yXyXyXyXyXyXyXyXyXyXyXyXyXyXyXyXyXyXyXyXyX",
"yXyXyXyXyXyXyXyXyXyXyXyXyXyXyXyX    S p.].].].].].].'.m.1.+.>.6.`.3XrXrXrXrXrXrXrXrXrXrXrXrX|.w.( ( ^ k O   yXyXyXyXyXyXyXyXyXyXyXyXyXyXyXyXyXyXyXyXyX",
"yXyXyXyXyXyXyXyXyXyXyXyXyXyXyXyX    S p.].].].].].F.n.t.1.%.3.k.[.2XrXrXrXrXrXrXrXrXrXrXrXrX|.e.( ( ^ v O   yXyXyXyXyXyXyXyXyXyXyXyXyXyXyXyXyXyXyXyXyX",
"yXyXyXyXyXyXyXyXyXyXyXyXyXyXyXyX    S p.].].].].].N.<.1.,.5.l.D.OX0XrXrXrXrXrXrXrXrXrXrXrXrX|.r.( ( ^ v O   yXyXyXyXyXyXyXyXyXyXyXyXyXyXyXyXyXyXyXyXyX",
"yXyXyXyXyXyXyXyXyXyXyXyXyXyXyXyXyX  x 0.s.N.F.M.F.t.-.%.5.f.B.'.+X<XeXeXrXrXrXrXrXrXrXrX8X8X~._ E E R h O   yXyXyXyXyXyXyXyXyXyXyXyXyXyXyXyXyXyXyXyXyX",
"yXyXyXyXyXyXyXyXyXyXyXyXyXyXyXyXyXyX6 Z P 7.<.<.<.1.,.2.5.g.B.'.}.$X>X9XrXrXrXrXrXrXrXwX Xu.7.N f f f 2 yXyXyXyXyXyXyXyXyXyXyXyXyXyXyXyXyXyXyXyXyXyXyX",
"yXyXyXyXyXyXyXyXyXyXyXyXyXyXyXyXyXyXyX  < m ( ( ( %.5.6.6.g.B.'.].].@X<XrXrXrXrXeXrXeX8X!.) m , . .   X yXyXyXyXyXyXyXyXyXyXyXyXyXyXyXyXyXyXyXyXyXyXyX",
"yXyXyXyXyXyXyXyXyXyXyXyXyXyXyXyXyXyXyXyX> f b Q -.2.6.g.c.B.A.].].].{.[.XXXXXXXXXXoX|.!.r.) m ,   .   yXyXyXyXyXyXyXyXyXyXyXyXyXyXyXyXyXyXyXyXyXyXyXyX",
"yXyXyXyXyXyXyXyXyXyXyXyXyXyXyXyXyXyXyXyXyX+ < V 5.6.6.k.C.S.'.].].].S.B.k.k.l.k.c.x.1.=.#.( m ,   yXyXyXyXyXyXyXyXyXyXyXyXyXyXyXyXyXyXyXyXyXyXyXyXyXyX",
"yXyXyXyXyXyXyXyXyXyXyXyXyXyXyXyXyXyXyXyXyX  * B z.c.c.v.A.].].].(.0.9.{ X.O.3.2.2.>.$.( ( ( m ,   yXyXyXyXyXyXyXyXyXyXyXyXyXyXyXyXyXyXyXyXyXyXyXyXyXyX",
"yXyXyXyXyXyXyXyXyXyXyXyXyXyXyXyXyXyXyXyXyX  * ' G.A.A.A.'.].].].0.D 9 0 0 C &.$.$.@.+.( ( ( m <   yXyXyXyXyXyXyXyXyXyXyXyXyXyXyXyXyXyXyXyXyXyXyXyXyXyX",
"yXyXyXyXyXyXyXyXyXyXyXyXyXyXyXyXyXyXyXyXyX  * ' /.].].].].].].].} 5     o g ! ( ( ( ( ( ! W b >   yXyXyXyXyXyXyXyXyXyXyXyXyXyXyXyXyXyXyXyXyXyXyXyXyXyX",
"yXyXyXyXyXyXyXyXyXyXyXyXyXyXyXyXyXyXyXyXyX  ; ' /.].].].].].].].[ 5     o g ! ( ( ( ( / Y h 1 > yXyXyXyXyXyXyXyXyXyXyXyXyXyXyXyXyXyXyXyXyXyXyXyXyXyXyX",
"yXyXyXyXyXyXyXyXyXyXyXyXyXyXyXyXyXyXyXyXyX  * ' /.].].].].].].].[ 5     o g ! ( ( ( ( ^ g o . yXyXyXyXyXyXyXyXyXyXyXyXyXyXyXyXyXyXyXyXyXyXyXyXyXyXyXyX",
"yXyXyXyXyXyXyXyXyXyXyXyXyXyXyXyXyXyXyXyXyX  * ' /.].].].]./.a.] F ;     o g ! ( ( ( ( ^ k @ X yXyXyXyXyXyXyXyXyXyXyXyXyXyXyXyXyXyXyXyXyXyXyXyXyXyXyXyX",
"yXyXyXyXyXyXyXyXyXyXyXyXyXyXyXyXyXyXyXyXyX  * ' /.].].].].b.] 7 ; yXyX  o g ! ( ( ( ( ^ k @   yXyXyXyXyXyXyXyXyXyXyXyXyXyXyXyXyXyXyXyXyXyXyXyXyXyXyXyX",
"yXyXyXyXyXyXyXyXyXyXyXyXyXyXyXyXyXyXyXyXyX  * ' /.].].].].b.'     yXyX  o g ! ( ( ( ( ^ k o X yXyXyXyXyXyXyXyXyXyXyXyXyXyXyXyXyXyXyXyXyXyXyXyXyXyXyXyX"
};
