/* XPM */
static char *result[] = {
/* columns rows colors chars-per-pixel */
"75 75 252 2 ",
"   c #01041E",
".  c #020928",
"X  c #06152B",
"o  c #04023B",
"O  c #0A013E",
"+  c #030A36",
"@  c #03153C",
"#  c #07183A",
"$  c #121936",
"%  c #111D2F",
"&  c #1A2338",
"*  c #2A2B3D",
"=  c #020343",
"-  c #0C0143",
";  c #03024C",
":  c #070948",
">  c #120045",
",  c #16054A",
"<  c #091746",
"1  c #151845",
"2  c #060658",
"3  c #150259",
"4  c #081555",
"5  c #191254",
"6  c #25155A",
"7  c #2B1352",
"8  c #0A2346",
"9  c #162845",
"0  c #162A59",
"q  c #172E4C",
"w  c #283447",
"e  c #2E304F",
"r  c #0D0662",
"t  c #16026A",
"y  c #190976",
"u  c #141666",
"i  c #270377",
"p  c #28197A",
"a  c #341A7C",
"s  c #2A086B",
"d  c #1D3B7A",
"f  c #1D2C6D",
"g  c #2F3174",
"h  c #4A2976",
"j  c #511D70",
"k  c #3E495A",
"l  c #1F427B",
"z  c #29467A",
"x  c #34497C",
"c  c #305077",
"v  c #4E5275",
"b  c #586677",
"n  c #515A6A",
"m  c #36178C",
"M  c #3A1B96",
"N  c #34098E",
"B  c #35278B",
"V  c #373889",
"C  c #3B3291",
"Z  c #322C8D",
"A  c #431C9D",
"S  c #451A98",
"D  c #48178C",
"F  c #4E2E95",
"G  c #6B3094",
"H  c #4719A5",
"J  c #5715A8",
"K  c #5619B5",
"L  c #5B0EB3",
"P  c #6819AE",
"I  c #6218B4",
"U  c #7312B5",
"Y  c #5722BC",
"T  c #4E2FA8",
"R  c #6929B3",
"E  c #2C4382",
"W  c #2D4C82",
"Q  c #244585",
"!  c #334C83",
"~  c #354687",
"^  c #365388",
"/  c #355291",
"(  c #4F468F",
")  c #6E4E9D",
"_  c #43669D",
"`  c #5C6787",
"'  c #626F9B",
"]  c #7650AA",
"[  c #4B67A5",
"{  c #4A75AA",
"}  c #586CAA",
"|  c #7B63A8",
" . c #6B78B6",
".. c #435EA5",
"X. c #5E19C7",
"o. c #6418C8",
"O. c #6718D7",
"+. c #720ED3",
"@. c #5C29C9",
"#. c #6724D6",
"$. c #7425CC",
"%. c #780AEA",
"&. c #6B18E6",
"*. c #7614E6",
"=. c #7C0AF6",
"-. c #7A0CF8",
";. c #6E16F2",
":. c #7511F3",
">. c #7021E9",
",. c #8407BB",
"<. c #902EB3",
"1. c #8958A6",
"2. c #9458AE",
"3. c #9557B3",
"4. c #884FAF",
"5. c #A354B9",
"6. c #8861AB",
"7. c #9766B5",
"8. c #A664BC",
"9. c #817694",
"0. c #881DCA",
"q. c #8909CD",
"w. c #992AD7",
"e. c #9533CC",
"r. c #A630D8",
"t. c #820CF8",
"y. c #8C0EF0",
"u. c #9C2DED",
"i. c #A729E3",
"p. c #B83AE8",
"a. c #B637F5",
"s. c #AA30F6",
"d. c #A31FFF",
"f. c #C439F9",
"g. c #D43FF1",
"h. c #CC3BDE",
"j. c #9751CC",
"k. c #B546C5",
"l. c #B958CD",
"z. c #AE4ACF",
"x. c #B865C9",
"c. c #BC65D7",
"v. c #A675CD",
"b. c #B947E5",
"n. c #BD48F5",
"m. c #AA4FEF",
"M. c #AD78EC",
"N. c #CC53D8",
"B. c #C86CD7",
"V. c #D077DC",
"C. c #CA4AE8",
"Z. c #D24BE8",
"A. c #D95CEA",
"S. c #C949FA",
"D. c #D449FA",
"F. c #DB5FF8",
"G. c #C85FF7",
"H. c #DA68E9",
"J. c #DB76E7",
"K. c #D869F8",
"L. c #D879FB",
"P. c #CD64E9",
"I. c #E677E7",
"U. c #EB79FA",
"Y. c #F67BFD",
"T. c #E369F0",
"R. c #E05CEE",
"E. c #6888BA",
"W. c #68839E",
"Q. c #7392CF",
"!. c #9294BB",
"~. c #9CA8BC",
"^. c #B1B2B7",
"/. c #9987C8",
"(. c #938FD2",
"). c #B88AD9",
"_. c #ABB3C8",
"`. c #AFB2CD",
"'. c #B889E9",
"]. c #C587D8",
"[. c #DA9ADB",
"{. c #D38ED6",
"}. c #E596DD",
"|. c #D988E9",
" X c #D999E8",
".X c #D386F8",
"XX c #CC9CFF",
"oX c #DA9CFF",
"OX c #D798FC",
"+X c #C992E9",
"@X c #EB8BEC",
"#X c #EB86EA",
"$X c #F283ED",
"%X c #F28AED",
"&X c #FA87EA",
"*X c #E795EA",
"=X c #EC84F3",
"-X c #EC8BF3",
";X c #ED8CFB",
":X c #E987FA",
">X c #F385F4",
",X c #F38BF4",
"<X c #FA8AF5",
"1X c #F384FC",
"2X c #FC85FD",
"3X c #F48BFB",
"4X c #FB8CFD",
"5X c #FA86F4",
"6X c #ED94FC",
"7X c #EA97F6",
"8X c #F394FD",
"9X c #FB93FF",
"0X c #F49BFB",
"qX c #F79AFB",
"wX c #F093EE",
"eX c #D9A5ED",
"rX c #DBA4F7",
"tX c #CFADF5",
"yX c #E6A5E9",
"uX c #E7A4F9",
"iX c #F6A1FD",
"pX c #F9B8FE",
"aX c #EAB8E4",
"sX c #D2A4D2",
"dX c #B9C6D5",
"fX c #BBC5CB",
"gX c #D0D6EC",
"hX c #EAC7F8",
"jX c #FFC3FF",
"kX c #FFCEFF",
"lX c #FFD4FF",
"zX c #FFDCFF",
"xX c #F4D0FE",
"cX c #D8E4EC",
"vX c #DCE7F7",
"bX c #DFF0FF",
"nX c #E9E9F8",
"mX c #FEE4FE",
"MX c #FEECFF",
"NX c #F5E5FF",
"BX c #EDF3FF",
"VX c #EBF5F9",
"CX c #F4FCF4",
"ZX c #FBFEF5",
"AX c #F5F6FD",
"SX c #FFF3FE",
"DX c #F4FDFE",
"FX c #FCFCFE",
"GX c #FAF4F3",
"HX c #EFF5EE",
"JX c #C3C5D1",
"KX c None",
/* pixels */
"KXKXKXKXKXKXKXKXKXKXKXKXKXKXKXKXKXKXKXKXKXKXKXKXKXKXKXKXKXKXKXKXKXKXKXKXKXKXKXKXKXKXKXKXKXKXKXKXKXKXKXKXKXKXKXKXKXKXKXKXKXKXKXKXKXKXKXKXKXKXKXKXKXKXKX",
"KXKXKXKXKXKXKXKXKXKXKXKXKXKXKXKXKXKXKXKXKXKXKXKXKXKXKXKXKXKXKXKXKXKXKXKXKXKXKXKXKXKXKXKXKXKXKXKXKXKXKXKXKXKXKXKXKXKXKXKXKXKXKXKXKXKXKXKXKXKXKXKXKXKXKX",
"KXKXKXKXKXKXKXKXKXKXKXKXKXKXKXKXKXKXKXKXKXKXKXKXKXKXKXKXKXKXKXKXKXKXKXKXKXKXKXKXKXKXKXKXKXKXKXKXKXKXKXKXKXKXKXKXKXKXKXKXKXKXKXKXKXKXKXKXKXKXKXKXKXKXKX",
"KXKXKXKXKXKXKXKXKXKXKXKXKXKXKXKXKXKXKXKXKXKXKXKXKXKXKXKXKXKXKXKXKXKXKXKXKXKXKXKXKXKXKXKXKXKXKXKXKXKXKXKXKXKXKXKXKXKXKXKXKXKXKXKXKXKXKXKXKXKXKXKXKXKXKX",
"KXKXKXKXKXKXKXKXKXKXKXKXKXKXKXKXKXKXKXKXKXKXKXKXKXKXKXKXKXKXKXKXKXKXKXKXKXKXKXKXKXKXKXKXKXKXKXKXKXKXKXKXKXKXKXKXKXKXKXKXKXKXKXKXKXKXKXKXKXKXKXKXKXKXKX",
"KXKXKXKXKXKXKXKXKXKXKXKXKXKXKXKXKXKXKXKXKXKXKXKXKXKXKXKXKXKXKXKXKXKXKXKXKXKXKXKXKXKXKX/ ^ W KXKXKXKXKXKXKXKXKXKXKXKXKXKXKXKXKXKXKXKXKXKXKXKXKXKXKXKXKX",
"KXKXKXKXKXKXKXKXKXKXKXKXKXKXKXKXKXKXKXKXKXKXKXKXKXKXKXKXKXKXKXKXKXKXKXKXKXKXKXKXKXKXE.4 : = d KXKXKXKXKXKXKXKXKXKXKXKXKXKXKXKXKXKXKXKXKXKXKXKXKXKXKXKX",
"KXKXKXKXKXKXKXKXKXKXKXKXKXKXKXKXKXKXKXKXKXKXKXKXKXKXKXKXKXKXh h g KXKXKXKXKXKXKXKX{ { y p p V KXKXKXKXKXKXKXKXKXKXKXKXKXKXKXKXKXKXKXKXKXKXKXKXKXKXKXKX",
"KXKXKXKXKXKXKXKXKXKXKXKXKXKXKXKXKXKXKXKXKXKXKXKXKXKXKXKX= 6.rX XrX6 < KXKXKXKXKXKXu y Y @.@.M r Q KXKXKXKXKXKXKXKXKXKXKXKXKXKXKXKXKXKXKXKXKXKXKXKXKXKX",
"KXKXKXKXKXKXKXKXKXKXKXKXKXKXKXKXKXKXKXKXKXKXKXKXKXKXKXx , 2.7XwX.Xh 7 ' KXKXKXKX .p N @.&.O.A r W KXKXKXKXKXKXKXKXKXKXKXKXKXKXKXKXKXKXKXKXKXKXKXKXKXKX",
"KXKXKXKXKXKXKXKXKXKXKXKXKXKXKXKXKXKXKXKXKXKXKXKXKXKX< | {.{.%X,X7X).!.g 0 KXKXd m M O.;.;.&.A 2 V KXKXKXKXKXKXKXKXKXKXKXKXKXKXKXKXKXKXKXKXKXKXKXKXKXKX",
"KXKXKXKXKXKXKXKXKXKXKXKXKXKXKXKXKXKXKXKXKXKXKXKXKXKXo 6.uX#X5X5X=X*X X7 = E.E.4 t X.;.-.%.*.H r V KXKXKXKXKXKXKXKXKXKXKXKXKXKXKXKXKXKXKXKXKXKXKXKXKXKX",
"KXKXKXKXKXKXKXKXKXKXKXKXKXKXKXKXKXKXKXKXKXKXKXKXKXKXo 6.uX7X,X5X<X#X#X8.| x x 4 t Y %.=.=.:.X.H V KXKXKXKXKXKXKXKXKXKXKXKXKXKXKXKXKXKXKXKXKXKXKXKXKXKX",
"KXKXKXKXKXKXKXKXKXKXKXKXKXKXKXKXKXKXKXKXKXKXKXKXKXKX+ | rX*X,X>X&X4X1XqX|.s > , i L +.t.t.%.%.#.B ; KXKXKXKXKXKXKXKXKXKXKXKXKXKXKXKXKXKXKXKXKXKXKXKXKX",
"KXKXKXKXKXKXKXKXKXKXKXKXKXKXKXKXKXKXKXKXKXKXKXKXKXKXKXKXh 8.8X,X#X,X2XR.K.r.<.e.e.m.s.y.t.=.:.O.A 2 KXKXKXKXKXKXKXKXKXKXKXKXKXKXKXKXKXKXKXKXKXKXKXKXKX",
"KXKXKXKXKXKXKXKXKXKXKXKXKXKXKXKXKXKXKXKXKXKXKXKXKXKXKXKX> 3.qX<X,X=XY.Z.h.Z.Z.N.S.S.f.y.q.%.%.&.H 2 KXKXKXKXKXKXKXKXKXKXKXKXKXKXKXKXKXKXKXKXKXKXKXKXKX",
"KXKXKXKXKXKXKXKXKXKXKXKXKXKXKXKXKXKXKXKXKXKXKXKXKXKXKXKX3 4.I.Y.4X3X>XT.R.F.A.K.F.S.f.i.i.u.y.%.o.N F KXKXKXKXKXKXKXKXKXKXKXKXKXKXKXKXKXKXKXKXKXKXKXKX",
"KXKXKXKXKXKXKXKXKXKXKXKXKXKXKXKXKXKXKXKXKXKXKXKXKXKXKXKXO <.N.A.3X>X5X2X2X2X2X4XY.C.g.D.D.D.a.%.*.#.M ; KXKXKXKXKXKXKXKXKXKXKXKXKXKXKXKXKXKXKXKXKXKXKX",
"KXKXKXKXKXKXKXKXKXKXKXKXKXKXKXKXKXKXKXKXKXKXKXKXKXKXKXKXs <.V.I.,X,X<X5X2X4X5X<XY.A.D.g.g.g.f.y.t.&.H 2 Q KXKXKXKXKXKXKXKXKXKXKXKXKXKXKXKXKXKXKXKXKXKX",
"KXKXKXKXKXKXKXKXKXKXKXKXKXKXKXKXKXKXKXKXKXKXKXKXKXKX4 F 5.J.1X>X3X%X%X,X>X3X@X#X=X2XY.Z.Z.D.D.S.s.+.H 2 E KXKXKXKXKXKXKXKXKXKXKXKXKXKXKXKXKXKXKXKXKXKX",
"KXKXKXKXKXKXKXKXKXKXKXKXKXKXKXKXKXKXKXKXKXKXKXKXKXKX; ) c.J.3X;X4X-X>X8X-X*X[.[.{.0X@Xl.l.l.z.b.a.+.J r V KXKXKXKXKXKXKXKXKXKXKXKXKXKXKXKXKXKXKXKXKXKX",
"KXKXKXKXKXKXKXKXKXKXKXKXKXKXKXKXKXKXKXKXKXKXKXKXKXKX- 4.=X1X8X=X>X>X;X7X*XjXlXzXlXlXkXjXjXjXpXjXL.P K H Z f KXKXKXKXKXKXKXKXKXKXKXKXKXKXKXKXKXKXKXKXKX",
"KXKXKXKXKXKXKXKXKXKXKXKXKXKXKXKXKXKXKXKXKXKXKXKXKX( > 3.9XU.=X8X>X8X-X|.[.zXSXSXFXSXSXSXSXMXFXMXoXJ I #.M ; d KXKXKXKXKXKXKXKXKXKXKXKXKXKXKXKXKXKXKXKX",
"KXKXKXKXKXKXKXKXKXKXKXKXKXKXKXKXKXKXKXKXKXKXKXKXx F G B.9X<X;X-X,X@X*XpXhXMXSXSXAXAXFXAXFXZXZXFXhXM.m.o.S r Q KXKXKXKXKXKXKXKXKXKXKXKXKXKXKXKXKXKXKXKX",
"KXKXKXKXKXKXKXKXKXKXKXKXKXKXKXKXKXKXKXKXKXKXKXW ; G v.V.9X,X3X,X@X}.[.zXGXFXFXFXDXDXDXFXCXZXZXCXAXNXoXR S 2 E KXKXKXKXKXKXKXKXKXKXKXKXKXKXKXKXKXKXKXKX",
"KXKXKXKXKXKXKXKXKXKXKXKXKXKXKXKXKXKXKXKXKXKXKX^ = ) V.I.,X=X>X@X}.yXaXmXSXJX`.dXfXfXfXHXZXFXZXCXcXgXv.D F i g { { KXKXKXKXKXKXKXKXKXKXKXKXKXKXKXKXKXKX",
"KXKXKXKXKXKXKXKXKXKXKXKXKXKXKXKXKXKXKXKXKXKXKXW > 1.-X@X3X3X3X,X*XlXMXSXnX* X % % % & vXFXAXDXFX~.. 7 3 N T Z 2 W KXKXKXKXKXKXKXKXKXKXKXKXKXKXKXKXKXKX",
"KXKXKXKXKXKXKXKXKXKXKXKXKXKXKXKXKXKXKXKXKXKXKXW - 2.qX=X-X>X3X@X}.zXSXnXcXw X 9 & % * cXnXDXAXDX~.@ $ 0 a T Z 4 z KXKXKXKXKXKXKXKXKXKXKXKXKXKXKXKXKXKX",
"KXKXKXKXKXKXKXKXKXKXKXKXKXKXKXKXKXKXKXKXKXKXKX! - 1.0X#X=X>X>X-X*XzXMXn e 8 9 dXvXgXdXk k VX`.w w . n bX/.< 5 : z KXKXKXKXKXKXKXKXKXKXKXKXKXKXKXKXKXKX",
"KXKXKXKXKXKXKXKXKXKXKXKXKXKXKXKXKXKXKXKXKXKXKXW > 1.qX%X,X3X1X-X[.zXMX* . < 9 bXDXDXBX% % DX_.  # # b DX!.. 1 4 c KXKXKXKXKXKXKXKXKXKXKXKXKXKXKXKXKXKX",
"KXKXKXKXKXKXKXKXKXKXKXKXKXKXKXKXKXKXKXKXKXKXKXc - 1.0X$X,X3X>X@X[.MXNXw # # & cXDXFXvX& & DX_.. 1 . b DX~.X @ < KXKXKXKXKXKXKXKXKXKXKXKXKXKXKXKXKXKXKX",
"KXKXKXKXKXKXKXKXKXKXKXKXKXKXKXKXKXKXKXKXKXKXKX! o 1.iX#X5X2X>X7X[.mXMXw @ < q vXFXFXBX& & DX_.X 9 + ` DX~.X # @ KXKXKXKXKXKXKXKXKXKXKXKXKXKXKXKXKXKXKX",
"KXKXKXKXKXKXKXKXKXKXKXKXKXKXKXKXKXKXKXKXKXKXKX! = | 7X5X5X>X3X@X[.MXMXe # @ 1 v b v v $ $ DX_.X 8 @ q ` e 1 < < KXKXKXKXKXKXKXKXKXKXKXKXKXKXKXKXKXKXKX",
"KXKXKXKXKXKXKXKXKXKXKXKXKXKXKXKXKXKXKXKXKXKXKX^ : | iX&X2X2X3X7X[.zXmX* . 1 + @ . + # . % BX~.. X 8 + + < , < < KXKXKXKXKXKXKXKXKXKXKXKXKXKXKXKXKXKXKX",
"KXKXKXKXKXKXKXKXKXKXKXKXKXKXKXKXKXKXKXKXKXKXKX! - ) |.I.5X2X=X-X*XjXhX9.` 8 # 8 $ % % b W.DXfXb v $ 1 1 u a u : KXKXKXKXKXKXKXKXKXKXKXKXKXKXKXKXKXKXKX",
"KXKXKXKXKXKXKXKXKXKXKXKXKXKXKXKXKXKXKXKXKXKXKX! 2 G x.I.<X<X1X3X-X XsXMXDX9 X X X . w nXZXZXAXFX`.  $ : p ( a 2 KXKXKXKXKXKXKXKXKXKXKXKXKXKXKXKXKXKXKX",
"KXKXKXKXKXKXKXKXKXKXKXKXKXKXKXKXKXKXKXKXKXKXKXKX5 ) 2.B.,X>X4X:X<X@XsXmXnXk * q w w k gXFXSXFXFX^.* e e B F V 4 KXKXKXKXKXKXKXKXKXKXKXKXKXKXKXKXKXKXKX",
"KXKXKXKXKXKXKXKXKXKXKXKXKXKXKXKXKXKXKXKXKXKXKXKXKXF , 5.9X=X3X4X2X%X}.mXMXnXDXVXBXBXAXDXDXFXFXGXHXnXAXSX(.= ~ KXKXKXKXKXKXKXKXKXKXKXKXKXKXKXKXKXKXKXKX",
"KXKXKXKXKXKXKXKXKXKXKXKXKXKXKXKXKXKXKXKXKXKXKXKXKX~ , 3.:X1X3X>X3X%X}.lXmXMXSXFXFXGXAXFXFXSXSXFXCXZXNXMX`.+ KXKXKXKXKXKXKXKXKXKXKXKXKXKXKXKXKXKXKXKXKX",
"KXKXKXKXKXKXKXKXKXKXKXKXKXKXKXKXKXKXKXKXKXKXKXKXKX^ , G B.I.1X3X2X,X@XiXuX].).zXSXZXGXFXFXSXSXSXFXSXtX| F @ KXKXKXKXKXKXKXKXKXKXKXKXKXKXKXKXKXKXKXKXKX",
"KXKXKXKXKXKXKXKXKXKXKXKXKXKXKXKXKXKXKXKXKXKXKXKXKXKX= G c.J.3X>X3X3X-X=X=Xk.8.lXMXFXFXFXZXSXSXSXMXAXXXF a 2 KXKXKXKXKXKXKXKXKXKXKXKXKXKXKXKXKXKXKXKXKX",
"KXKXKXKXKXKXKXKXKXKXKXKXKXKXKXKXKXKXKXKXKXKXKXKXKXKX~ ( G x.qX=X:X;X,X;X9XK.I.8X*XyXeXtXtX).'.'.'.'.j.D V KXKXKXKXKXKXKXKXKXKXKXKXKXKXKXKXKXKXKXKXKXKX",
"KXKXKXKXKXKXKXKXKXKXKXKXKXKXKXKXKXKXKXKXKXKXKXKXKXKXKX~ O 2.;X3X>X3XwX#X:X3XU.N.k.k.k.z.e.P L o.L Y m 2 x KXKXKXKXKXKXKXKXKXKXKXKXKXKXKXKXKXKXKXKXKXKX",
"KXKXKXKXKXKXKXKXKXKXKXKXKXKXKXKXKXKXKXKXKXKXKXKXKXKXKXW > 7.8X>X,X-X@X-X:X>X1XH.A.U.K.L.G.m.s.+.&.K m f c KXKXKXKXKXKXKXKXKXKXKXKXKXKXKXKXKXKXKXKXKXKX",
"KXKXKXKXKXKXKXKXKXKXKXKXKXKXKXKXKXKXKXKXKXKXKXKXKXKXKX^ O 1.qX#X8X=X>X9X4X4X>X@X{.lXmXMXMXzXOXI J i C Q.KXKXKXKXKXKXKXKXKXKXKXKXKXKXKXKXKXKXKXKXKXKXKX",
"KXKXKXKXKXKXKXKXKXKXKXKXKXKXKXKXKXKXKXKXKXKXKXKXKXKX_ ( h 8.0X,X,X,XY.P.P.;XwXyXaXMXGXZXSXSXtXJ L N Z [ { KXKXKXKXKXKXKXKXKXKXKXKXKXKXKXKXKXKXKXKXKXKX",
"KXKXKXKXKXKXKXKXKXKXKXKXKXKXKXKXKXKXKXKXKXKXKXKXKXz = | iXqX@X-X=X9X1X<.U L.iXzXSXFXCXCXFXSXXXK O.#.M 2 l KXKXKXKXKXKXKXKXKXKXKXKXKXKXKXKXKXKXKXKXKXKX",
"KXKXKXKXKXKXKXKXKXKXKXKXKXKXKXKXKXKXKXKXKXKXKXKXKXx - 1.8X3X,X,X3X1XU.0.U .X XmXFXFXZXCXCXSXtXP $.o.A r c E.KXKXKXKXKXKXKXKXKXKXKXKXKXKXKXKXKXKXKXKXKX",
"KXKXKXKXKXKXKXKXKXKXKXKXKXKXKXKXKXKXKXKXKXKXKXKXKX! O 6.iX:X4X5X,X1X1X0.U L.yXzXFXFXZXCXZXGXmXzXOXJ H t E KXKXKXKXKXKXKXKXKXKXKXKXKXKXKXKXKXKXKXKXKXKX",
"KXKXKXKXKXKXKXKXKXKXKXKXKXKXKXKXKXKXKXKXKXKXKXKXQ.~ > 1.7X,X>X2X3X4XU.0.U .X XMXFXFXFXDXZXZXAXSXOXK J t Z Q.KXKXKXKXKXKXKXKXKXKXKXKXKXKXKXKXKXKXKXKXKX",
"KXKXKXKXKXKXKXKXKXKXKXKXKXKXKXKXKXKXKXKXKXKXKXKXf ' 7.{.@X,X3X1XY.p.i.i.j.pXxXSXFXFXFXZXDXFXFXSXoXI K H Z Q / KXKXKXKXKXKXKXKXKXKXKXKXKXKXKXKXKXKXKXKX",
"KXKXKXKXKXKXKXKXKXKXKXKXKXKXKXKXKXKXKXKXKXKXKXW o | uXwX%X%X%X3X2Xq.q.S.c.lXSXSXSXFXFXDXFXDXCXFXoXI &.#.B 2 Q KXKXKXKXKXKXKXKXKXKXKXKXKXKXKXKXKXKXKXKX",
"KXKXKXKXKXKXKXKXKXKXKXKXKXKXKXKXKXKXKXKXKXKXKXx O 1.7X%X&X&X-X;X:X0.q.S.c.xXSXDXFXDXZXCXDXDXCXSXoXU ;.>.A r ~ KXKXKXKXKXKXKXKXKXKXKXKXKXKXKXKXKXKXKXKX",
"KXKXKXKXKXKXKXKXKXKXKXKXKXKXKXKXKXKXKXKXKXKXKX^ O 1.iX$X&X&X6X;X:X$.q.p.l.lXSXFXFXFXZXZXZXFXZXGXOXo.;.;.M 2 E KXKXKXKXKXKXKXKXKXKXKXKXKXKXKXKXKXKXKXKX",
"KXKXKXKXKXKXKXKXKXKXKXKXKXKXKXKXKXKXKXKXKXKXKXx O 1.qX>X5X2X4XL.L.0.0.b.B.zXSXFXFXFXFXFXFXFXFXSXOXo.;.&.A 2 ~ KXKXKXKXKXKXKXKXKXKXKXKXKXKXKXKXKXKXKXKX",
"KXKXKXKXKXKXKXKXKXKXKXKXKXKXKXKXKXKXKXKXKXKXKXW + 1.0X=X4X2X1Xb.,.f.S.U.6XlXSXFXFXFXFXFXFXFXSXMXOXL O.#.M r V KXKXKXKXKXKXKXKXKXKXKXKXKXKXKXKXKXKXKXKX",
"KXKXKXKXKXKXKXKXKXKXKXKXKXKXKXKXKXKXKXKXKXKXKXKX< | uX;XU.1X1Xa.,.f.D.U.8XzXMXGXZXZXCXZXFXSXFXMXXXH @.Y B 2 Q KXKXKXKXKXKXKXKXKXKXKXKXKXKXKXKXKXKXKXKX",
"KXKXKXKXKXKXKXKXKXKXKXKXKXKXKXKXKXKXKXKXKXKXKXKX_ ( D G e.w.i.s.f.D.Z.2X:XuXaXmXGXZXGXGXFXSXtX6.] y m N C } KXKXKXKXKXKXKXKXKXKXKXKXKXKXKXKXKXKXKXKXKX",
"KXKXKXKXKXKXKXKXKXKXKXKXKXKXKXKXKXKXKXKXKXKXKXKXKXE ; m R U U i.S.h.b.1X1X-XwXzXMXSXFXSXSXMXXXF M t 3 ; E KXKXKXKXKXKXKXKXKXKXKXKXKXKXKXKXKXKXKXKXKXKX",
"KXKXKXKXKXKXKXKXKXKXKXKXKXKXKXKXKXKXKXKXKXKXKXKXKX_ ~ F D $.r.a.S.F.T.=X1X;X-X*XuXeXrXrXoX.Xm.Y S 2 f ! KXKXKXKXKXKXKXKXKXKXKXKXKXKXKXKXKXKXKXKXKXKXKX",
"KXKXKXKXKXKXKXKXKXKXKXKXKXKXKXKXKXKXKXKXKXKXKXKXKXKXKX~ 3 R K.C.C.Y.4X%X8X8X:Xc.l.b.b.n.m.+.+.o.A 2 ! KXKXKXKXKXKXKXKXKXKXKXKXKXKXKXKXKXKXKXKXKXKXKXKX",
"KXKXKXKXKXKXKXKXKXKXKXKXKXKXKXKXKXKXKXKXKXKXKXKXKXKXKX~ 2 4.L.T.T.Y.5X%X|.4.G G U i.s.d.d.%.%.>.H ; z KXKXKXKXKXKXKXKXKXKXKXKXKXKXKXKXKXKXKXKXKXKXKXKX",
"KXKXKXKXKXKXKXKXKXKXKXKXKXKXKXKXKXKXKXKXKXKXKXKXKXKXKX~ , 7.8X<X4X2X$XqX+X7 - 3 s L +.%.=.=.%.O.S 2 d KXKXKXKXKXKXKXKXKXKXKXKXKXKXKXKXKXKXKXKXKXKXKXKX",
"KXKXKXKXKXKXKXKXKXKXKXKXKXKXKXKXKXKXKXKXKXKXKXKXKXKXKXW o 6.iX#XY.4X>XwX+X7 < 5 s K %.-.-.=.+.L B g KXKXKXKXKXKXKXKXKXKXKXKXKXKXKXKXKXKXKXKXKXKXKXKXKX",
"KXKXKXKXKXKXKXKXKXKXKXKXKXKXKXKXKXKXKXKXKXKXKXKXKXKXKXx O 7.0X%X&X,X>X7X+X7 + 4 y Y :.-.-.&.L r Z KXKXKXKXKXKXKXKXKXKXKXKXKXKXKXKXKXKXKXKXKXKXKXKXKXKX",
"KXKXKXKXKXKXKXKXKXKXKXKXKXKXKXKXKXKXKXKXKXKXKXKXKXKXKX~ > 2.7X#X#X,X-XOX].e < 4 y K :.=.%.O.H r V KXKXKXKXKXKXKXKXKXKXKXKXKXKXKXKXKXKXKXKXKXKXKXKXKXKX",
"KXKXKXKXKXKXKXKXKXKXKXKXKXKXKXKXKXKXKXKXKXKXKXKXKXKXKX! = 6.uX*XwXwX|.j g ' ' 0 t K *.*.&.O.A r l KXKXKXKXKXKXKXKXKXKXKXKXKXKXKXKXKXKXKXKXKXKXKXKXKXKX",
"KXKXKXKXKXKXKXKXKXKXKXKXKXKXKXKXKXKXKXKXKXKXKXKXKXKXKXW ; | tX X XeX+X6 - E.KX4 u S @.o.X.@.Z 2 KXKXKXKXKXKXKXKXKXKXKXKXKXKXKXKXKXKXKXKXKXKXKXKXKXKXKX",
"KXKXKXKXKXKXKXKXKXKXKXKXKXKXKXKXKXKXKXKXKXKXKXKXKXKXKX} /  .(./.(.(.(.[ _ KXKX[ ..KXKXKXKXKXKXKXKXKXKXKXKXKXKXKXKXKXKXKXKXKXKXKXKXKXKXKXKXKXKXKXKXKXKX",
"KXKXKXKXKXKXKXKXKXKXKXKXKXKXKXKXKXKXKXKXKXKXKXKXKXKXKXKXKXKXKXKXKXKXKXKXKXKXKXKXKXKXKXKXKXKXKXKXKXKXKXKXKXKXKXKXKXKXKXKXKXKXKXKXKXKXKXKXKXKXKXKXKXKXKX",
"KXKXKXKXKXKXKXKXKXKXKXKXKXKXKXKXKXKXKXKXKXKXKXKXKXKXKXKXKXKXKXKXKXKXKXKXKXKXKXKXKXKXKXKXKXKXKXKXKXKXKXKXKXKXKXKXKXKXKXKXKXKXKXKXKXKXKXKXKXKXKXKXKXKXKX",
"KXKXKXKXKXKXKXKXKXKXKXKXKXKXKXKXKXKXKXKXKXKXKXKXKXKXKXKXKXKXKXKXKXKXKXKXKXKXKXKXKXKXKXKXKXKXKXKXKXKXKXKXKXKXKXKXKXKXKXKXKXKXKXKXKXKXKXKXKXKXKXKXKXKXKX",
"KXKXKXKXKXKXKXKXKXKXKXKXKXKXKXKXKXKXKXKXKXKXKXKXKXKXKXKXKXKXKXKXKXKXKXKXKXKXKXKXKXKXKXKXKXKXKXKXKXKXKXKXKXKXKXKXKXKXKXKXKXKXKXKXKXKXKXKXKXKXKXKXKXKXKX",
"KXKXKXKXKXKXKXKXKXKXKXKXKXKXKXKXKXKXKXKXKXKXKXKXKXKXKXKXKXKXKXKXKXKXKXKXKXKXKXKXKXKXKXKXKXKXKXKXKXKXKXKXKXKXKXKXKXKXKXKXKXKXKXKXKXKXKXKXKXKXKXKXKXKXKX",
"KXKXKXKXKXKXKXKXKXKXKXKXKXKXKXKXKXKXKXKXKXKXKXKXKXKXKXKXKXKXKXKXKXKXKXKXKXKXKXKXKXKXKXKXKXKXKXKXKXKXKXKXKXKXKXKXKXKXKXKXKXKXKXKXKXKXKXKXKXKXKXKXKXKXKX"
};
