/* XPM */
static char *result[] = {
/* columns rows colors chars-per-pixel */
"75 75 162 2 ",
"   c #040403",
".  c #080706",
"X  c #060A02",
"o  c #0A0B05",
"O  c #070608",
"+  c #080708",
"@  c #0D0C0B",
"#  c #100F0D",
"$  c #061101",
"%  c #0D1205",
"&  c #0F1807",
"*  c #0E1209",
"=  c #121506",
"-  c #131A05",
";  c #12120D",
":  c #19140E",
">  c #151A0B",
",  c #1A1C0D",
"<  c #151412",
"1  c #191714",
"2  c #171911",
"3  c #1B1A15",
"4  c #1D1C1A",
"5  c #211D15",
"6  c #211F1C",
"7  c #172309",
"8  c #1B230D",
"9  c #1E280F",
"0  c #1D2313",
"q  c #1D2812",
"w  c #1F2119",
"e  c #1F281A",
"r  c #21210D",
"t  c #20290F",
"y  c #232315",
"u  c #2A2617",
"i  c #232A14",
"p  c #2A2C16",
"a  c #23221D",
"s  c #29261D",
"d  c #26291B",
"f  c #2B2C1C",
"g  c #322D1A",
"h  c #263515",
"j  c #2A3315",
"k  c #2B311C",
"l  c #2B381F",
"z  c #33341E",
"x  c #393E1E",
"c  c #1F1E20",
"v  c #252422",
"b  c #292623",
"n  c #2C2A25",
"m  c #282728",
"M  c #2D2C29",
"N  c #312D24",
"B  c #312E2B",
"V  c #382F28",
"C  c #2E3223",
"Z  c #2F3822",
"A  c #333224",
"S  c #383627",
"D  c #353A25",
"F  c #3A3B25",
"G  c #34322D",
"H  c #39352D",
"J  c #363A2A",
"K  c #3B3C2C",
"L  c #302F30",
"P  c #353431",
"I  c #393632",
"U  c #3C3A35",
"Y  c #3D3C39",
"T  c #423D2C",
"R  c #413D35",
"E  c #413E3A",
"W  c #344025",
"Q  c #3D4020",
"!  c #3E422B",
"~  c #3F4E2A",
"^  c #3F4233",
"/  c #43442D",
"(  c #44492D",
")  c #434234",
"_  c #4A4536",
"`  c #454C35",
"'  c #4A4A33",
"]  c #45423C",
"[  c #4A453D",
"{  c #46483D",
"}  c #4D4A3C",
"|  c #524E3E",
" . c #4B5633",
".. c #53533C",
"X. c #464441",
"o. c #494642",
"O. c #4D4944",
"+. c #4E4C49",
"@. c #524D45",
"#. c #524E4A",
"$. c #555244",
"%. c #5A5446",
"&. c #585D45",
"*. c #55524C",
"=. c #5A554C",
"-. c #5D594C",
";. c #565451",
":. c #595652",
">. c #5D5954",
",. c #5F5C59",
"<. c #615B4D",
"1. c #625D54",
"2. c #615E5A",
"3. c #616547",
"4. c #63624C",
"5. c #69654E",
"6. c #64694D",
"7. c #666156",
"8. c #6C6455",
"9. c #676852",
"0. c #6C6A55",
"q. c #65625C",
"w. c #6A655B",
"e. c #6E685C",
"r. c #716A5D",
"t. c #74725D",
"y. c #6A6661",
"u. c #6D6A64",
"i. c #6F6C68",
"p. c #726D65",
"a. c #726E69",
"s. c #767165",
"d. c #7A7465",
"f. c #75716B",
"g. c #7A756C",
"h. c #7E786E",
"j. c #7A7671",
"k. c #7D7973",
"l. c #837C6D",
"z. c #827D75",
"x. c #827E78",
"c. c #858177",
"v. c #8B8374",
"b. c #85817B",
"n. c #8B857D",
"m. c #8D887F",
"M. c #938A7D",
"N. c #99907F",
"B. c #8A8680",
"V. c #8D8982",
"C. c #938D84",
"Z. c #948F88",
"A. c #969187",
"S. c #959189",
"D. c #9C968D",
"F. c #9D988F",
"G. c #9F9A91",
"H. c #A59B89",
"J. c #A09A90",
"K. c #A7A197",
"L. c #A7A299",
"P. c #B0ABA1",
/* pixels */
"[ I 3 v M +.,.2.:.m M Y L O.s.v.<.J 4 4 b G n a 3 2 3 b K <.} } $.%.-.M c Y X.P v L ,.O.X.,.X.U Y :.E o.} 6 6 v M v 6 a b @.r.[ R ] P Y w.u.#.O.] n I ",
"n 3 @ @ < I O.o.O.G < 3 m Y q.p.e./ ] R a 3 4 a 3 a n _ 1.O.H E w.:.#.m 4 4 c * # P ;.Y M +.Y P O.2.*.] [ 5 n N M B B 6 V O.O.n U ] n m M P P Y O.X.6 ",
"4 v +   < v P ,.X.G m L ] X.o.[ 1.9...| R U J v 6 b T _ E #.*.;.O.Y L m P < @ # # B ,.+.X.O.I P o.o.+.O.V : u V b R R 6 T R R O.o.P m < 4 M v Y E #.a ",
"b b < @ @ < P P m 4 a 3 4 < M U G -.s.t.-.} K M b A ! f O.#.:.+.I v < c M M 4 @ * G +.X.P Y o.v b B m U T u g A T %.8._ _ @.O.*.;.M v Y X.U E Y #.#.H ",
"< 3 3 @ + < * @ o   + ; < 6 Y I U G >.v.z.s.-.U K F / %.O.E M X.o.I L M P m 4 * a I L < < M m 1 3 # < 1 V g 5 R #.o.;.;.7.#.E I X.X.I Y I q.z.+.I *.o.",
"# v m 4 1 6 1 1 a 1 : v n v 4 X.;.q.y.y.w.1.p.d.0.....*.I I X.,.,.+.Y m L c ; 4 ] *.$.X.Y M v 1 v B V V 5 u , N U Y ;.X.1.:.E Y #.:.,.Y M ;.=.I v P P ",
"< 3 m I H B a 4 a G I U o.Y P y.V.P.C.*.O.U U #.w.>.@.E P M Y X.Y Y P Y P 4 4 v P Y ] ] *.>.o.*.#.O.#.F z r s G ] ] o.;.a.b.B.y.2.g.q.>.#.I B U 3 < 3 ",
"< @ 1 v E E s : a G I P +.y.f.B.C.i.2.q.X.) I n H G G H a < 4 4 c L U m P B P n c 3 v n M n I X.2.E O.=.@.S b B I M P o.,.B.x.x.z.z.7.] X.n 1 1 1 < @ ",
"1 1 : v b ] K : d H 3 6 #.o.f.a.+.+.,.y.y.q.+.X.^ n e 2 * w 4 @ O # < 1 X.#.M c b ] ;.I M Y #.E B c M @.#.=.@.O.I U X.*.;.o.+.k.u.E E U c @   o ; a ; ",
"; a M G b B A 3 y 6 a B E O.+.M v P ,.;.;.y.>.X.#.k 7 7 9 0 < * 3 c m Y Y o.Y b b X.o.+.Y Y :.;.M n n M E w.u.u.#.X.;.2.;.>.,.2.i.y.:.Y 6 < o 4 H U 4 ",
"> 4 s n b 4 H A f b H U L v v P v v O.,.X.o.f.;.o.K 7 > 8 0 e d c c v X.E B G U P m v I v @ < I v < B R #.f.x.x.i.f.a.#.+.+.2.;.+.+.#.4 v n 5 G O.-.U ",
"d y N [ ] } =.T F I H E Y ] ,.2.X.I o.q.*.+.y.2.o.$.W Z Z b d 8 v v 4 M X.v 6 B c # # @ O O @ @ 6 a v P a.x.x.Z.Z.C.u.I 1 E X.1 M Y B v a B U U #.#.2.",
"f S } [ O.w.@.V _ B R O.y.j.i.>.+.+.+.y.y.X.v M I #.7.J b h > & i m G b a H N G 3 # + . # < 4 a m P P #.g.x.D.D.Z.i.,.Y 1 m v # < Y I M 1 < N I U R O.",
"r.d.} a I X.@.T H N ) E Y E ] #.;.{ Y O.X.Y m c G ] =.J q q X @ q U ) 1 6 6 s G m # ; # < a c n B b P 1.a.#.O.>.;.P X.v + @ O O < v L U 6 1 I E E R v ",
"e.d.1.*.1.i.1.*.E O.[ n v E Y n U L 4 M 1 c I ^ *.X.O.$.h * * 3 0 e v 4 # @ # ; 1 * o o 1 @ < 6 1 B +.1.*.X.P E +.Y +.P O O O O # < B L 6 # v H n N [ ",
"@.=.-.u.y.y.#.#.<.@.B R :.*.I B v c < 4 <   v *.O.Y Y ] q * 3 q 8 > 2 > - = o o = % X % = % ; 3 B L R X.o.U H P b M X.o.m 3 < # + # 6 n 3 o @ 1 6 V @.",
"H B B I X.M v v M U Y =.:.U U P M m @ O < O < c B M # M y + * 0 9 0 8 8 - - o . X X o = = 8 9 s n b B V I M 3 @ < @ m G X.I b a b 6 < # 4 , ; H [ G b ",
"n 6 3 H m 3 # # 1 U X.#.#.o.I Y O.G c < c < O   + 1 a , 3 < < = q ; = @ o       + : 2 i y 3 0 q 1 N n 4 c w ; @ 3 U I m E *.o.P b 2 # ; f S B E <.@.T ",
"s ; 1 : . < 6 < c L I O.b n v P v < I P M c m v 3 a ) p w 2 d D D f u 1 < 1 # 1 N S f A x y 1 > > y < < @ 4 I v c b v < @ I Y 4 a 6 : : R o.[ =.1.e.w.",
"6 3 b 6 6 6 6 @ # # < 4 6 a v 4 4 1 M I L P I P P b J d 0 y A _ D D s 3 1 N [ E I J / F f > @ 1 0 i 3 a a U O.Y b n # O   @ 4 M a : , N U H [ O.:.z.1.",
"a a U H n 6 a 1 = o @ G Y m E I v m Y I M m m a I ] y u p > , d i s v ; 5 H R R R F K J d r y 4 A q k n d n < < 3 1 3 @     o a y @ 4 R E #.q.P X.u.;.",
"[ O.[ E H 1 3 = & & b 6 < v #.X.v m *.k.,.I M B G @.N y y 2 : - s a 6 3 < 5 5 3 1 q y n u , i , w , 9 > 7 n c @   + + * + @ o o = = a R o.,.E o.2.g.k.",
"#.+.#.Y Y N ,     = J B < 1 M m 1 m X.X.#.O.n 4 b O.$.%.$.! S b v R G 6 # # a U U H 0 f p 0 # 5 0 +     = k v # @ @ > $ $ o   o   4 R I M v I q.k.*.Y ",
"i.;.Y U n J q : @ > B P c 4 < B M P Y M M n 4 0 a _ 7.u.d.} ) Y U E [ s 3 5 U ../ A n a r - # 1 % . .   ; q > % * $ X ; # . ; 2 s O.1.| O.R Y X.E U ] ",
"f.f.+.o.;.+.-.! i k ^ X.m a m X.P O.+.M 1 M B b ^ U ) Y R <.O.s F E [ } B 5 R B 0 f S p f p 1 ; 6 2 @ 2 B m * $     @ 0 G f 0 A @.#.d.w.=.@.B v 4 v +.",
"q.2.,.I Y o.,.>.=.*.{ v < a v c L I m < c E X.P G n 3 4 a R H s N R U E n < N R A f 3 2 A i d 6 A a N G G e d 4 @ ; Z -.d.c.d.0.<.@.p.p.@.E M 4 b P :.",
"y.f.:.Y M M Y o.y.+.O.J v N 6 n v < v M m Y Y ^ ) R N G N U T _ T O.V < 1 @ v [ u 3 4 5 j y n f R T ^ G ^ W l n a a K e.h.C.l.-.] B b 6 a b 6 v +.,.f.",
"I :.i.i.;.X.+.y.k.,.I *.[ R R 6 @ v X.^ X.o.c c L E [ @.=.} E F K [ R 3 # + 6 5 @ o # 1 1 A ) [ ] ..! B  .~ Z J b b G I O.a.#.G M I H b b E U E +.;.X.",
"Y v v Y >.a.x.k.f.+.X.O.o.) H N Y I M Y ,.Y c M B b O.>.r.>.*.@.s T U 5 # # a 6 4 s G G U ] ^ ) N j J 6.d.9.$.Z d n n R b b B n H +.f.k.#.Y v M E m M ",
"o.I 4 < m o.U P +.y.*.=.@.=.U b v 1 c P Y Y c M o.E Y #.-.p.1.w.@.R I b 6 U <.1.8.=.O.[ ] ! ` ^ B H &.v.M.g.0.^ K J } <.R a 6 B } p.k.j.j.>.M M 4 m *.",
"#.>.Y v I 4 3 P ,.q.#.%.1.#.B 4 3 3 v @ O v 4 c B U B v I I b U =.<.| @.E <.1.5.t.9.} ^ ~ Z  .^ ^ -.w.1.1.%.1.e.1.%.r.=.1.q.1.z.s.>.,.q.f.i.X.1 < ] ,.",
"c Y P M P v 3 M P X.f.m.p.1.$.H G m < # O O < c B b 6 v 3 < 4 B [ @...R ....' l.N.H.s.} ( ` 3.9.6.%.G R ] I I ] >.*.1.] p.L.H.z.g.u.i.z.i.i.Y P ;.u.X.",
"w 4 c 4 B L +.2.y.q.f.f.q.>.Y G n n a 6 4 @ * 1 G B I n 1 4 ; 4 I R %.K 5.5.1.r.f.y.;.2.@.q.M.M.p.=.@.E o.X.,.j.k.b.1.M #.y.2.w.2.q.n.l.o.2.i.a.g.u.+.",
"m < < < m ;.y.a.k.f.:.q.o.I 6 a ; n m m o.{ B U :.1.#.@.I b 3 @ a H K _ e.u.p.l.>.X.E o.] Y *.#.[ @.] U o.,.j.B.j.*.Y b U :.1.>.u.2.[ O.*.a.Z.D.z.#.>.",
"I # O @ < X.q.:.o.;.*.+.I I B B a R ] Y *.1.*.;.:.2.:.#.[ n a d R _ } 7.p.#.*.a.+.X.;.+.E ] I E I n #.p.a.u.;.:.u.+.c < R #.b n G o.@.M X.i.y.2.p.2.I ",
"4 M a w L *.O.*.O.o.E L # < M G n X.o.+.;.y.,.;.o.M B G <.%.j A -.1.=.1.@.O.*.*.,.o.m Y o.X.E X.U I E E *.] M v L m 1 1 U M B P P b m Y :.+.E U U q.+.",
"4 P I m m Y ^ m < v M I m 4 b Y G Y X.,.i.q.;.Y m +.E B R @.K f R *.@.=.R >.e.#.+.+.X.q.y.2.#.M n B o.X.Y c < + @ @ @ ; b b P a c v I O.L m I Y M +.q.",
"c Y ;.;.Y P m < @ @ < < 4 I I v E Y Y +.q.i.#.;.I 1 b I B R f f V [ $.v 3 I O.X.] *.j.b.i.>.X.P L I 2.j.>.Y P m v b < 6 @.O.B < < m I b B B m B 6 X.,.",
"M >.i.y.+.L 1 c < @ 4 c c P Y M P X.a.f.j.i.y.i.;.b 6 N N @.[ R E I B 6 1 c 1 6 Y y.y.2.y.y.y.;.O.X.f.y.;.,.j.x.h.1.m v I b 4 @ + 1 6 1 n 4 +   # M +.",
"Y Y Y X.Y c # O < 4 4 P X.Y m m 4 o.+.i.j.k.a.#.X.+.@.@.[ U B H s < 6 v B a 1 4 v P L X.y.k.x.:.v I +.o.;.y.j.V.i.1.P 4 < @   + < I X.B B v # # # # c ",
"k.a.*.I 4 @ < 1 v M Y +.y.y.+.Y M v I ;.,.#.;.X.:.o.1.@.] [ G d 3 i n 6 3 v B 6 1 M o.*.E L ;.;.1 m X.O.>.2.:.;.:.:.X.# + @ < 6 6 P B v 6 6 < @ 6 n B ",
"q.k.k.u.P P G X.O.:.;.;.j.k.j.,.I # < m m M I v #.+.Y ] G U [ H t y 6 2 6 H I E Y y.j.j.2.+.X.Y c L 2.2.;.E R O.O.L N b 4 # 3 3 < < @ + @ @ 5 b M E *.",
"] u.k.>.X.P O.O.:.Y E i.y.:.y.j.;.v M M o.,.,.+.U o.2.:.@.[ 1.1.) 2 ; ; M O.M m +.,.;.o.L o.2.#.c M I I v c n X.O.U H B b 3 6 # + + # # # # v E *.*.#.",
"U o.*.;.P m P G P a I I M P ] *.X.+.+.,.f.y.q.+.X.I X.+.B ] O.O.%.d = ; I X.I I X.+.X.v 3 3 Y X.c @ 6 L n n b v b n E U a 1 B V n 1 m V L M 6 6 R X.2.",
"n m Y M v 1 < c 4 b b I Y P P m v X.L +.,.,.f.a.Y b v 3 3 4 b G o.G > 4 S [ I o.X.o.I m 4 4 n G v + b B E M < + : 6 H @.I B R N 5 V L E o.B 3 B @.X.X.",
"I I Y I v 1 c @ o @ 6 M v <     @ 1 < P L v o.*.i.2.m < < 4 v b n d A } &.[ P o.+.;.o.I o.,.h.u.R 6 b M 6 m n b 5 N R R =.} R V } @.E O.I n n B E M 4 ",
"Y m 3 P ] v 4 < * # + . @ @ # < # O # P 4 4 M +.:.;.P G 3 4 B [ a y -.w.w.q.B 6 I E L Y #.o.p.p.@.M B N B R n 6 R b V R [ @.<.8.8.<.2.=.B v 6 a P b M ",
"n M 4 4 +.O.I M ; 3 a < O 3 M +.E Y +.,.o.o.;.,.,.;.] P v < a R d n ,.m.L.C.>.E o.] I X.M v m *.U V H =.l.1.H 1 1 T | <.r.v.r.E <.p.%.O.N 3 a O.u.p.>.",
",.+.3 < 6 4 m B B R E N G b o.>.#.o.Y L m E M c +.:.+.m b 4 a B n Y f.V.A.D.A.f.E 6 >.#.n a B X.R +.<.2.:.2.R N N R <.u.M.A.<.| R [ E b R R I +.a.g.2.",
"*.Y 4 @ + < v B ] G B b n a M 3 P M 3 4 4 v # 1 c I P m I G n n f U O.q.u.w.c.g.#.E *.*.#.] E #.R *.2.p.d.2.%.E I V %.8.w.2.l.E [ @.%.r.@.@.a.f.x.z.#.",
"n M c < @ @ 3 4 v n a N B 6 # 4 v M Y P c @ < < < 4 v 4 3 m I b G ] o.U G G *.+.o.p.z.m.g.g.j.p.<.E 2.s.s.2.1.@.5 N @.2.2.l.1.R [ <.z.d.E +.z.u.u.>.y.",
"# 1 v n 1 * @ 1 1 v B M I M m M Y I P L < O v M c < v w   @ a , n U a ] +.#.Y I O.k.x.f.z.1.>.k.z.f.p.R R E [ E 6 N R E E O.X.T R 1.#.=.<.1.E O.L v o.",
"c G 3 b n 2 % @ @ 6 I G B B b M M M B 1 @ # v U c 1 a 1     @ , w 4 a X.U v m v #.y.;.o.;.u.;.:.q.f.2.*.E 2.*.R 5 5 5 b V b V V V O.2.z.1.2.+.Y 4 < c ",
"X.X.U M U 2 $ $ - a B v v v b G b M 1 # 1 *   @ < 1 a > o % , 7 9 n m 4 m Y O.X.+.o.c m X.;.u.*.E X.E O.E @.=.R 3 : v v E E R =.R E f.m.s.*.v < 1 v L ",
"i.] I Y U d ; % = 3 b 6 6 3 b b 6 6 4 4 3 = @ o O @ 8 $ X % o   q n < < P +.2.;.*.X.v c L I o.O.X.U U m < < 1 N b 5 N T R H 1.w.R #.1.O.X.M 6 < < 1 m ",
"E P v ] ) G e *   % 1 # # o < 1 o # < 2 - = % X $ o             q G v a 3 m +.;.;.Y c < v c L m < # 1 6 : + b [ } R E O.B o.=.2.<.E 6 4 R o.U E c < v ",
"4 1 # H G , i o   < : = = o # 5 n 1 , r = , > @               < i I v B b +.p.q.X.v L L # # 1 a : b 5 5 6 6 R 8.<.1.<.O.<.<.O.:.1.E s b E *.1.a.o.< a ",
". ; . 4 0 : 9 ; 4 n n a u f G O.*.R / N u z p a #             2 k J E #.@.,.#.;.2.;.+.m 1 4 m B R ;.O.V N s b R B b R R R R ] O.#.:.<.2.p.l.w.:.+.4 + ",
"o ; d H n ; 4 3 s ) _ %.} @.} R U *.>.%.S A ! D 1   + @ +       2 0 Y ] U E ;.y.q.y.i.:.;.:.q.u.u.g.2.E 6 V s 1 5 5 5 6 s b H M B :.l.f.2.e.o.P E c 6 ",
"= 4 U #.-.n 5 K G H R ] R ] *.E m E ) E u = i k c @ + +       O @ d D v v ;.,.+.m Y o.q.+.>.j.C.x.x.l.%.R R %.@.H 6 4 3 N b v < 6 B U @.=.*.=.U B c B ",
"G %.[ G ] @.) 1.%.%.e.1.<.@.E I I Y I u e @ * # @ @ < < @ O   O w J { U P y.y.X.M L L L E :.:.R o.p.s.w.8.=.%.T V E R I B b 6 5 1 3 v b 1 3 m v 4 c v ",
"] #.E n R -.*.U U X.U O.#.O.B < 4 G S j k w 4 @ O O # < # O O # M C J $.#.+.v P m c n 6 c M H I O.O.O.p.d.l.@.E } %.[ 5 V H b 5 5 I B 1 # ; 1 3 1 v # ",
"#.] #.] e.1.O.G v 1 o 5 B n 1 # o N Q 8 k e M m < O < c < < @ 1 v w ! X.P M 4 v < @ @ 1 M m n B P ] 1.p.j.V.8.1.8.E @.R H H M : b V H E R H H M U O.P ",
"k.A.c.p.z.@.@.@.G f r a v 6 : 5 ; g K j 9 2 e M c # < # < O   @ < e b I L I I I < 1 4 4 P E B v c V @.2.l.1.@.R V R <.<.O.V 1 < s I @.1.w.f.c.a.O.O.1.",
"F.S.B.S.G.x.+.=.w./ j D J N N u , r s z > : d C m 3 < < #   O < c v d J m 4 1 1 * w 4 4 B =.#.@.] N 3 1 1 N E R 5 n R %.$.R 5 5 A $.*.[ @.<.a.V.C.d.a.",
"p.k.i.#.f.b.,.I o.%.U ) E B s : : 5 : ,   # = w m L P P 4 O + + < v v > *     . 4 c 3 P E @.2.w.w.] N # + + # 5 5 3 N @.1.R s 5 H $.[ #.n n B O.A.D.x.",
"i.>.y.y.*.q.f.Y G O.7.@.N u u y 5 N g s # # + # I ` { ^ c # O * 1 4 4 3 w > 0 n b P v M B b B B #.*.E R 6 3 1 # = 6 [ r.r.%.A g _ H H 5 5 5 B R w.g.g.",
"2.*.,.2.+.X.*.M G I [ [ ; : r A [ %.T N v M v N D l Z b e 4 @ @ < O < m v k U I B v < 4 < v ] @.] 1.@.R H s K p , a H H %.<.R <.R I n N n s 1 R O.] #.",
"o.M X.i.+.o.;.O.B b M O.d O < A ] ] g 6 b T T V C C C d e 2 +   < v m B f f B v 1 #     1 H ] X.U I R [ [ a R p > N B 2 a R G N b B R I V m N R H o.2.",
"=.) G *.,.>.y.;.U B a n 1   3 y 6 5 5 b N N T V K J { C d *   * 3 4 Y I , i f a @ O . ; < 3 6 < ; 5 # 6 g a H f , n b N u s A 5 s B U V E 6 6 B R 2.M.",
"1.O.a M Y ] Y G B G R d < * g _ A 5 5 5 s T s g 8 2 2 2 > . O < < < m ) ..! N 4 b ; # 4 6 v < # @ 1 U R k R | 2 : n A S N g s u A } @.@.1.*.R a E p.@.",
"H E X.I P I +.I n U a Z 4 2 f } N 1 5 5 : 5 5 g 3 ; < y 4 + < 4 < v G ] ;.Y X.X.O.G n U m I *.[ R b R [ H n H 2 2 k ) K 3 a # # u @.E ;.w.2.w.p.d.u.E ",
". 6 E #.w.q.O.I G { [ } G d u : : # : 1 @ : 5 p , a f C n c v w v K } 1.) c P Y E o.+.o.X.2.x.p.O.*.O.R : 5 3 , , t r # o : , 1 S [ b O.U B u.e.;.] B ",
"1 < b B >.>.X.X.O.Y Y #.%.#.) 1 1 6 1 1 3 < ; < < d D K ^ ] n @ s J } -.I v M Y X.:.a.B.x.z.x.C.z.d.w.%.5 r , @   o o o 6 N S g T [ n 4 n @.1.#.>.O.b ",
"o.n U o.E :.E o.*.+.X.O.7.1.[ G N 6 a 6 6 B v w K n 2 0 U ! D M B n ] X.v Y o.L E :.f.b.z.q.1.z.x.f.O.<.R 5 5 @ .   . 4 F ) [ _ | E B E X.1.z.1.@.E N "
};
