/* XPM */
static char *result[] = {
/* columns rows colors chars-per-pixel */
"75 75 154 2 ",
"   c #451B5E",
".  c #491C5E",
"X  c #461661",
"o  c #491462",
"O  c #451961",
"+  c #4B1D64",
"@  c #4E1C6A",
"#  c #50176A",
"$  c #511D6C",
"%  c #541E71",
"&  c #5A1F73",
"*  c #5E1D79",
"=  c #611E7B",
"-  c #4D2165",
";  c #4E2269",
":  c #4F2D6C",
">  c #512266",
",  c #53236D",
"<  c #58246F",
"1  c #532A6C",
"2  c #592B6E",
"3  c #552471",
"4  c #5A2574",
"5  c #562871",
"6  c #5C2A75",
"7  c #5D2679",
"8  c #5E2A7A",
"9  c #602577",
"0  c #612B76",
"q  c #62247C",
"w  c #69257F",
"e  c #622B7D",
"r  c #692D7E",
"t  c #623276",
"y  c #65337C",
"u  c #69337E",
"i  c #6B3A7E",
"p  c #5F2A81",
"a  c #652581",
"s  c #6B2685",
"d  c #642C82",
"f  c #6A2B85",
"g  c #6E2689",
"h  c #6E2B89",
"j  c #702787",
"k  c #702D86",
"l  c #71278B",
"z  c #732A8C",
"x  c #663381",
"c  c #6C3384",
"v  c #6C3B84",
"b  c #6F3389",
"n  c #6E3B89",
"m  c #713486",
"M  c #733B86",
"N  c #793C87",
"B  c #73348B",
"V  c #78358E",
"C  c #733B8B",
"Z  c #7A3B8D",
"A  c #762C91",
"S  c #7D2D95",
"D  c #7E2D98",
"F  c #763392",
"G  c #7B3494",
"H  c #753C91",
"J  c #7C3D93",
"K  c #7F3698",
"L  c #7C3C98",
"P  c #6E4182",
"I  c #724385",
"U  c #74418C",
"Y  c #7A428E",
"T  c #79488B",
"R  c #764390",
"E  c #7C4393",
"W  c #754892",
"Q  c #7D4993",
"!  c #7F439A",
"~  c #803E8E",
"^  c #802E97",
"/  c #812E9A",
"(  c #813597",
")  c #813E94",
"_  c #83369B",
"`  c #85399D",
"'  c #893B9F",
"]  c #8635A0",
"[  c #8A37A1",
"{  c #873AA0",
"}  c #8A3CA2",
"|  c #80408E",
" . c #834395",
".. c #884397",
"X. c #824D96",
"o. c #8A4A97",
"O. c #85449B",
"+. c #8A459D",
"@. c #844A9B",
"#. c #8B4A9D",
"$. c #904C9F",
"%. c #805095",
"&. c #87539A",
"*. c #8C529D",
"=. c #8F5C9F",
"-. c #91509F",
";. c #8646A0",
":. c #8C44A3",
">. c #8748A1",
",. c #8C4AA2",
"<. c #9145A4",
"1. c #934DA5",
"2. c #9244A9",
"3. c #964EA9",
"4. c #984EAA",
"5. c #8F51A7",
"6. c #8F5AA2",
"7. c #8F50A9",
"8. c #9552A6",
"9. c #9A54A6",
"0. c #955BA4",
"q. c #995BA6",
"w. c #9650A9",
"e. c #9B53AB",
"r. c #9C59AA",
"t. c #9A4FB0",
"y. c #9D57B1",
"u. c #9E58B1",
"i. c #A156AD",
"p. c #A359AE",
"a. c #A95CAF",
"s. c #A256B1",
"d. c #A55BB2",
"f. c #AA5DB4",
"g. c #9761A4",
"h. c #9A62A6",
"j. c #9763A8",
"k. c #9D64A9",
"l. c #A265AB",
"z. c #AC61B5",
"x. c #A569B2",
"c. c #AD6AB5",
"v. c #AD61B9",
"b. c #B063B7",
"n. c #B365BB",
"m. c #B866BF",
"M. c #B669BE",
"N. c #B96ABF",
"B. c #AE75B7",
"V. c #B278B9",
"C. c #BA6AC2",
"Z. c #C36EC7",
"A. c #C46FC8",
"S. c #CB79CF",
/* pixels */
"@.*...8.8.q.q.r.r.9.0.-.-.-.N 0.r.r.w.,.,.,.,.,.5.,.,.>.,.@.O.,.@.X.X.X.Q E T M v i I I T T  .O.! !  .O...@..... .X.+...,.J C H V H  .,.,.O.E J ! O.@.",
"0.Z.z.N.N.N.M.M.m.n.b.b.n.-.t d.f.p.w.w.8.8.w.w.w.w.w.e.w.1.R k.k.j.h.q.q.q.q.0.q.9.9.8.r. . .3.;.;.' ` _ _ _ _ _ _ ( _ ` g B w.#.,.,.1.,.:.:.+.+.' O.",
"q.f.9.p.p.p.p.p.i.i.i.$.i.a.E #.w.3.w.w.e.e.8.,.7.w.w.w.e.1.C k.r.w.w.e.4.w.1.w.3.w.w.3.r.J E _ A S A S S S S A A D ^ ^ D l m w.` ` ) ` ) _ ) _ ( _ _ ",
"9.a.p.p.p.p.p.p.a.a.i.i.a.f.Y $.e.w.w.,.>.J  .J O.7.w.w.w.,.v j.e.8.w.w.w.w.w.w.w.w.w.3.e.C Z D ^ ^ S S ^ / A S S S A A / l B 1.K _ { ` ] ` ] { ` ` ` ",
"q.a.a.i.i.p.p.p.d.p.p.p.a.i.M $.e.w.3.c ..E ,.e.e.w.w.w.w.:.v 0.w.w.3.w.w.w.w.w.3.8.4.8.y.M C D S / S / / z q s s s z A / l B :.K ` ` ` ` { ` { ` ` ` ",
"q.a.i.p.p.p.p.p.p.p.p.p.p.$.u -.t.1.J :.e.,.w.w.w.w.w.4.w.>.v q.4.w.w.w.w.w.w.w.4.9.w.w.w.v F _ S S s l s j S S ^ / / D / z b } ` ` ` ` ` ` ` K ` ` ` ",
"q.a.i.a.p.a.i.i.p.p.p.p.a.p.U #.4.O.4.e.3.3.w.w.w.1.4.1.e.O.x q.3.w.3.w.w.w.w.w.4.w.w.w.,.x V S s s s A A ^ / ^ ^ S S ^ ( z h } ` ` ` ` K ` ] { ` ` ` ",
"i.a.a.a.a.d.p.z.d.z.z.d.p.z.N #.1.4.e.4.e.e.e.e.w.y.y.4.y.E y q.w.w.4.i.w.e.4.i.w.,.e.w.,.y B A ^ / / / / ^ ^ ^ ^ ^ / / / z h ' { ` ` ` { { ! { ` ` ` ",
"..w.#...F ..J E .. . .Z ..@.e o.,.@.@.@.@.#.,.#.#.@.@.@.! I y 8.1.,.,.) c  .Z B c e d y d 6 d l z B z l z z z F S S S S z d f } L F A F F h h h h B h ",
"6 , 3 3 3 3 $ + + O X X O O y y 6 5 5 2 6 8 5 3 , , , , 1 5 8 , > > ; - > < $ - ; @ @ 3 7 7 8 5 6 6 6 7 6 6 , ; , < , ; - - 3 6 5 6 5 3 3 5 3 3 3 3 3 ",
"e.8.e.9.#.@.#.......Y Z M c  .;.:.#.+.1.C x  .J Z J J J J J ..) ) J J J J e B L J L ) ) ..) ) ) ' ' } +.,.B v 6.*.&.@.Q U >.R R ! ! ! R ! b 7 A b d b ",
"f.f.d.z.8.e.C.v.v.f.s.r.r.4.1.r.e.e.e.d.H b S.C.N.n.v.v.z.f.p.w.r.r.e.e.w.e ) _ S ( D K S D D / S G S A S 7 U j.@.,.>.,.>.>.>.,.>.,.>.>.>.H g { } } { ",
"u.p.p.d.#.8.i.1.1.1.3.1.e.,.,.3.1.,.+.e.B M v.7.1.w.1.1.4.1.8...3.3.1.,.w.x V ^ S S S S S D a z A S A A D 7 v 8.! >.;.>.>.>.;.>.>.>.>.! C b g ` ] { ` ",
"p.d.p.d.@.5.f.1.w.w.e.w.3.V J :.,.O.1.u.n Z v.1.w.w.w.w.w.w.9.+.<.1.1.w.w.y V / ^ ^ / S S s a z S S S / D 7 P 5.;.>.>.>.;.>.O.C H ! ! n U H z K K { ` ",
"r.p.p.d. .#.d.1.e.1.)  .O.1.w.w.w.1.3.y.B M v.1.w.w.y.O.1.:.1.w.w.w.w.1.y.y B S l l s w s A / / / ^ S ^ K 7 x 7.;.;.>.>.>.>.R n U n x U R n z ` ` ` ` ",
"i.p.p.z. .>.u.@.O.` ,.3.e.w.w.w.3.3.3.r.b b v.1.w.#.' O.+.3.w.w.w.w.4.1.4.8 B A z A A ^ D D D S S S S ^ D 3 v 7.;.>.>.>.>.H n H U U R U U c z { K ` ` ",
"i.p.p.z...X.u.1.1.w.e.e.w.w.w.8.w.8.w.u.c c v.1. .:.1.e.e.4.4.w.w.w.1.w.1., V _ G / / D D / / ( ^ D S / A 3 t 7.;.! Z v x n U Y Y R R Y U n z ' _ _ ` ",
"f.a.i.9.m Z y.,.:.r.w.4.3.3.e.u.e.y.8.:.d B d. .,.s.e.e.y.e.e.w.w.e.4.,.V 6 f A l h F A A A A A S G S z f 3 t ,.C n W U W U I U I P y x v t z _ [ [ ' ",
"m c 0 9 < 8 x e 7 x r 0 4 4 n c d r e < $ m E x J  .J C V Z J B b c r 7 4 5 , 4 3 1 5 4 4 8 8 7 7 4 4 3 8 ; ; c y y 2 -   - + > , ; , ; , 4 4 a w w f ",
"< 6 0 6 8 8 , ; 1 , , 6 8 8 3 3 7 6 < 6 3 3 3 < @ @ 3 > , O . + + + + > 1 e x x r r d x d 6 , 4 < , , 3 , 3 6 4 8 6 6 8 6 7 6 6 6 8 t 8 t x 6 3 6 4 4 ",
"e.r.i.9.r.r.p.N t i.i.l.#.Y n.n.C.C.n.b.d.0.9.8.$. .> , m ~ ~ ~ Z ~ V ) ) ' _ [ { { ` } G r :.+.#...O.,.,.,.,.,.:.} ' } ) j :.3.2.,.} :.O.` { { ) _ { ",
"f.f.d.f.p.a.a.z. .a.p.z.o...Z.b.f.f.f.f.d.d.d.i.i.i.$.Z J f.} } } } ' ' { _ ` ` ` ` ` ] F c <.' ' } } ` ` ` ` ` _ ) ` ` ' V 4.2.{ ` { { ] { ` ` ` ] { ",
"i.s.i.i.a.p.a.$.$.p.a.d... .b.+.1.1.4.1.1.1.1.4.4.4.r. .V 1.( ` ' _ _ _ ' _ V _ _ G F ` F c :.` ` ` ` K ` ` ` ` ` ` ` ` _ F ,.] _ ` _ ` ` ` ` ` ` { ` ",
"i.f.f.d.4.$.9.i.i.i.p.f. .| b.1.w.4.w.w.w.w.3.9.w.1.4. .V 1._ ` _ _ ' ' _ k k G G K ) } F c } K ` ` ` ` ` ` ` ` ` ` ` _ { B ,.] ` ` ` ` { ` ` ` ` _ ` ",
"d.i.9.$. .r.s.a.p.e.9.f. .Y b.1.w.w.w.w.w.w.w.9.w.w.3.Z M <._ ` [ S G z f K ` ' ' _ _ ' F m } ` ` ` _ ` ` ` ` ` ` ` ` _ { B ,._ ` ` ` ` ` _ ` _ ` ` ` ",
"i.4.i.4.i.d.i.d.i.f.8.i.| N b.$.w.w.w.w.w.w.w.e.w.8.e.E m <.` ` G f A ( ' ' _ _ _ _ _ ' V m } _ ` ` ` ` ` ` ` ` _ ` ` ` { f #.` ` ` ` _ ` ` ` ` ` ` ` ",
"1.f.f.f.f.f.s.f.f.f.f.e.m N b.1.w.w.w.w.w.w.1.#.1.8.e.C m :._ K ( ` ' ' _ [ ' ' ` ' _ [ G B } ) ` ` { ` ` ` ] ` ` ] ` { ) d *.` _ ` ` ` ` ` ` ` ` ` ` ",
"+.+.$.+.#.+.B J O. .) m 4 M f.1.9.,.#.#.@.Q W U W >.Q P m ) _ ( ` ' ' ` ` G F ( K K _ ) z m } } { _ K K _ ` ) ` _ ) K G h d O.` ' _ _ ( _ ` ` _ _ _ _ ",
"$ % $ 3 3 @ , 3 % 3 < , < > 6 0 7 6 5 2 2 1 1 1 1 : 1 1 c f s s a 4 4 3 4 , ; , , , , 1 , 4 e $ $ , , 3 6 8 e 8 7 3 3 3 4 4 7 < , , 3 +   .   O @ $ 4 ",
"1.#.+...Z ,.1.$.1.w.e.p.s.d.i.p.a.l.z.#., I | N | Y N o.8.1.$.o.e Y Y Z e t M x c M J E @.) c r u c c m Z , O + 8 b c h B f d r d d b d 9 3 e z z k j ",
"e.9.9.i.E z.u.r.e.e.e.8.d.d.r.r.9.e.d. .5 M.z.f.d.i.s.p.i.r.i.r.,.e.4.f.C C 4.{ } } ' +.} ' } :.:.} } } K ; + , b z z z l l z A l l l g A a l } [ } [ ",
"4.8.4.9.C w.8.1.9.r...q  .) ..,.1.1.8.B , z.1.1.1.4.4.1.1.4.1.4.w.8.3.y.M M } _ _ _ ) _ _ _ _ K _ _ _ K 7 ; O d l g g g l l g g l l g g g q h } _ ) ` ",
"w.w.w.e.M ,.e.9.$.N ) $.1.1.1.1.w.w.e.b , z.w.w.4.4.4.4.r. .J #...#.1.e.B M 2._ ` ` ` ` _ ` K ` K K { q e ; 7 f l h g h g g g l l l g g f 7 h ` _ ` ' ",
"w.w.w.u.b ,...G ) ' 4.e.4.4.4.3.w.w.e.c , f.1.w.w.9.w.1.) J #.8.1.w.3.y.c M } _ { _ ` { ` { ] b f e e p d ; f f l g g s g g s g g l s f p 7 h ' _ _ ` ",
"w.w.w.8.e  .) 7.4.e.4.4.1.4.4.9.w.3.r.B , d.3.w.1. .J  .1.e.w.w.3.3.1.r.c M :._ { ` ] K K F q 8 p d d d d ; h z g g l l g g l h d d d e d 7 h ' ) _ ` ",
"w.w.e.,.3 C y.w.4.4.e.w.4.w.4.9.e.e.:.e 2 z.e.,.#.$.1.4.4.3.w.w.w.8.w.e.r V } ' ] K d d d 7 p d p p d p d - h z g g s h f s f d 8 d e e d 6 f ` ' ` _ ",
"1.1.,.E : C 2.1.4.1.9.9.8.8.1.1.,.J f d 8 r.8.w.e.e.e.e.e.e.e.e.r.e.e.r.r V ) h F d d d d d d d d d d d d O z A g g f d d d d d d d d r d 4 h [ ' [ ' ",
", 1 ; ; ; 6 3 8 0 e e e e e e 7 4 4 4 3 6 8.1.1.:.,.1.:.) J V J J L O.;.8 7 8 3 3 3 3 3 $ @ $ + @ @ + + X   e r 8 d 8 e 7 4 7 7 4 4 7 7 8 < 7 a = 9 < ",
"e y y e e c Z C B m m f f f r r q e 0 7 e t t 8 5 3 < 3 $ 4 4 7 4 % % 4 4 % & 3 ; > + - + - + - O O + +   5 1 + > , 1 , ; - , , < < 4 < . + 8 9 9 9 4 ",
"w.w.w.y...1.A.n.M.M.n.b.f.f.i.s.r.e.w.1.b y r.r...#.#...9.9.4.1.1.,.#.1.+.8 b ,.O.O.O.L F F B L b x B F G b y 1.,.) V V M V G V A V z z g q w ' _ _ B ",
"8.w.w.e.@.+.u.1.w.1.w.w.7.w.w.w.9.3.4.u.J n d.4.,.8.e.e.e.w.w.w.w.w.e.w.u.C C ;.F A g g g s g g z z l l l w u _ z l g g g g g g g g g s l q w ` ` _ K ",
"w.w.8.e.! ..u.w.w.e.w.w.,.w.w.w.w.1.4.e.J B s.1.1.8.w.w.w.8.w.8.w.w.w.8.e.Z B z s g g g h l g g l s g g s w i A s g g g g g g g g l g g l = 9 } ` ` ` ",
"w.w.w.e. ...u.1.w.w.w.w.w.w.w.w.w.w.w.r...m s.3.w.w.w.w.w.w.9.w.w.8.w.w.e.r m z g g g g g g g g l g g a 4 & u G s g g g g g g g g g g g l 7 q [ ` _ ` ",
"w.w.w.y.L  .y.w.3.w.w.3.w.w.w.w.w.3.w.1. .B s.1.w.w.w.w.w.w.3.3.w.4.w.w.1.6 c l g g g g g g s g s g g l z a u F s g g l g g g g g l g g A = q _ ` ` { ",
"1.3.3.e.J ..d.w.e.e.e.4.e.e.e.w.e.e.e.e.b B e.8.w.w.w.w.w.9.w.w.w.w.8.e.#., m l g g g g g g j l s s h g g d d A g g g g g g g g g g g g l q q { _ K ` ",
"u.y.r.s.C B 1.;...) J O.:.:...J L ! ' +.f J u.w.1.8.w.1.1.1.1.1.w.1.1.4.J , V z g g h f h g h f f d d d f p e z g l l l l l l l l l z l z w 9 ] } } } ",
"b x u u $ # < @ # $ $ $ , $ @ $ % , < % % B M f r r r 7 e e e e e e 9 7 7 $ x a 7 4 4 4 q w 7 < 3 3 4 4 3 3 $ q a a a q q a a a q = * * * % & q q r d ",
"r r r e ) L r J J Z m c 7 h B z m B m k f B f h h h h z l a B V G J J ) ..+.$.+.#. .J Z m 4 2 2 t u x b H B e 3 3 3 3 4 4 , 7 d u u i v u i N y e 6 7 ",
"m.n.f.f.z.i.#.z.z.f.f.z.J ' 4.:.<.<.} <.} ` S ^ ^ D S D j r z.d.t.4.4.3.<.<.:.<.:.:.} :.:.r ! O.G S A z A A A z z z z A A 3 >.j.&.Q %.Q %.%.Q Q Q Q Q ",
"1.1.1.1.1.1.8.,.w.,.8.e.B J } _ _ _ _ _ _ ( A / S D D K h w d.+._ _ _ _ _ _ _ _ ( _ _ _ ] d L z s s s h g g g g g g g g g 3 Q W n n U C I C U n n I C ",
"w.w.4.w.w.w.w.w.w.w.w.e.M G :._ ` ` ` ` [ G h z j l l A j f e.) ` ' ` ` _ { ` ` _ [ ` ` { d F g l g h g h g g g g g g g c , Q W U U U U U U U C n H Y ",
"w.w.w.w.w.w.w.4.w.w.w.e.B G } _ ' ' ( ( G k j z l A ^ _ l f 4._ _ _ ` ` ` ` ` ` ` _ ` _ ` f F g h g g g g g g l g g g h d , T W n U U U U U C R U I U ",
"w.w.w.w.w.w.8.e.#.3.4.e.b V } _ S r w j z ^ / ^ / / ^ / l r <._ ' ' ` ` ` ` ` ` ` ` ` ` _ d F g g g g g g l g a q q 7 a d @ T W U U U U U n U U U U I ",
"w.w.w.w.w.w.w.,.C e.3.e.d S :.z j S ^ ^ / ^ ^ ^ ^ S ^ / j r <._ _ _ ` _ _ _ ` _ ` _ ` ` K a F g l g g h h g w 7 8 8 4 e d 3 U R U U U U I v C U U U U ",
"w.e.e.w.w.w.w.4.b :.r.O.7 S K A ^ ^ / / / / ^ ^ / / ^ / z u <._ ' ` ' ` ` ' ` ` { _ { _ K e H g g g d d 8 d d d d d e e d 3 U U U C U R R x I U U U U ",
"w.,.O.1.8.1.@.#.Y 8 x e 0 < j z ^ z z z l z z z j j j z = q } ( _ _ ( G G K K D G D K G h 1 F f h d d f d d d d d d d d r @ T W U U U n I v v U n U U ",
"d 4 7 f x e 7 7 6 3 3 , ; - > @ > , ; , 5 , 4 6 6 0 w r k Z m m c f y 0 0 , > < 3 % ; + + + - O - - ; . - 3 3 3 , 3 + o o , , , 3 5 5 5 5 3 3 @ @ + + ",
"{ O. .) f ..i.r.e.r.p.p.q.e.8.q.e.e.r.8.E 6.V.V.B.c.z.c.c.c.l.l.l.l.k.l.h.r L E ! ! ! E H H y e 0 e 0 6 6 1 6 x x v c C J J B C b f f h g d d c d d d ",
"e.w.1.s.x q.S.C.n.a.i.i.i.i.d.s.i.r.4.r.Z 8.B.k.h.h.k.h.h.h.h.h.h.h.k.k.6.e ,.:.,.` G G G F F F G F A F z a v ,.L G A z z h z A A g g g z a b ,.,.,.,.",
"4.4.3.i.u r.f.1.1.1.1.8.1.8.1.1.1.1.3.e.Z *.x.j.k.l.k.k.k.l.k.k.k.k.k.l.W 8 ,.K h s s s s g s g g s g h g q c G s s g g g g g g g g g g l 4 b ,.;.>.;.",
"4.w.8.e.x 9.s.8.w.w.9.w.w.w.w.e.w.w.w.y.m -.x.k.k.k.k.k.k.k.g.h.j.j.k.%.v y L g g h g g g g g g g g g g l p d A g l g g g g g h g g g g h 7 b ,.O.>.>.",
"w.w.4.r.y 9.i.w.w.w.w.w.w.w.3.9.w.w.3.r.Z -.x.h.k.h.k.k.k.k.k.=.=.*.E U I r F s l g g l g g g g g g g g l p x F g g g g g g g g g g g h d e x >.O.>.;.",
"w.w.3.e.r 8.w.w.w.w.w.w.w.w.1.w.w.w.w.4.x #.x.h.h.k.k.k.l.l.&.C M v v U P e A g g g g g g g g g g g g g l q x F s g g l g g g g s d d p d d x ,.;.>.>.",
"w.3.w.3.8 9.e.3.8.4.w.w.w.3.w.w.3.3.e.r.9 *.x.k.l.g.&.X.X.W U I U T Y U v e z g h g g g g g g g g g g g h q x A s g g g g g g d 8 d d d d e x @.;.>.;.",
"e.e.r.:.3 9.e.e.w.w.w.u.e.e.e.e.w.w.1.,.e @.x.0.*.Y C U C C Y R Y Y Y E U t G g l l l l g l g g z g g g d 7 x F g g g s e d d e d e d e d 8 x >.;.:.>.",
" .B d 4 3 ..+.)  .B M J J +.J b f r 8 7 $ M W I v U U U I I n v y t t 5 - 3 s a a = a s a w s a a d r e d 7 7 B d a d e e p d r d 7 e d d e x U R Q Q ",
"B F C G O.) J V V V Z Z J r e V V B b b l c c b c c x x x y e v m m f l c b f e e e 9 r e 6 3 7 7 7 7 8 q d 3 , 4 q q 7 4 4 % 4 4 7 7 6 6 6 5 5 5 6 6 ",
"1.3.:.:.:.:.:.:.<.:.:.+.2.9 c <.^ ` ` _ _ _ ( ^ K / ( / _ l f y.} } ' / _ ) ` _ ( ] _ K _ z d ` B h f f d d d 7 8 f d d f 3 6 J B H B c x d y y d p d ",
",.` _ _ _ _ _ _ _ _ _ _ ' q v [ S ^ S S S S / s S ^ ^ S S z c } l ^ S S S ^ S ^ D S S S / s d f 8 p p p d p e d d 8 d e d , t b p 8 d e 7 8 6 8 8 d d ",
",.` ` ` ` ` ` ` ) ' ' _ } q x ] S ^ S ^ ^ ^ z * j z j w S l y } S ^ ^ ^ ^ ^ ^ S A S ^ ^ / s d x d p d d p d d d d e d e f , 8 d d d d 5 8 8 e x d d d ",
",.` ` ` ` ` ` ` _ _ _ ` } f d _ S / / z j j w ^ ^ ^ S A ( l e ' S ^ ^ / S z z z A D S S / a 9 f p d d d d d p d e d e e d @ e c a 3 3 8 d p d d d 8 d ",
",.` ` _ ` ` ` ` ' ` ` ` _ q c ] S l s = z A ^ ^ ^ ^ S S / j y ' S ^ S l A j S G / S S ^ / a 7 f p 8 7 3 8 7 7 e d p d d d X e f 3 8 8 d e e d e e d d ",
":.` ` ` { ` ` ` _ ` ` { F 3 b [ h l S / / / D / / / / / / z e ` S / z S / ^ ^ ^ / D ( S / 7 8 f 8 d e 3 7 8 d d d f d d p X p d 7 d d d d d d d d d d ",
":.` ` G G _ ) _ K f z b f 7 B A f S / A S S A S S A A A S l 0 ) S A A / S S S z l D S D z ; 4 d 8 d e 8 d p 7 7 7 4 7 7 % X 7 d 7 7 8 e e 8 7 7 8 e 8 ",
"H h d 8 4 d e e 7 7 a d f d d q f q e 7 7 4 4 3 < $ $ < , % 4 q 8 q a r 9 4 $ $ ; 3 4 3 > @ 3 $ > 3 3 $ % % # @ # @ @ # @ @ % $ @ @ @ $ % @ # # $ # $ "
};
